<svg id="Layer_1" data-name="Layer 1" xmlns="http://www.w3.org/2000/svg" xmlns:xlink="http://www.w3.org/1999/xlink" viewBox="0 0 516.72 444.57"><defs><linearGradient id="linear-gradient" x1="269.03" y1="378.09" x2="243.56" y2="944.2" gradientUnits="userSpaceOnUse"><stop offset="0" stop-color="#010101" stop-opacity="0"/><stop offset="0.95" stop-color="#010101"/></linearGradient><linearGradient id="linear-gradient-2" x1="132.14" y1="93.92" x2="152.65" y2="93.92" gradientUnits="userSpaceOnUse"><stop offset="0" stop-color="#e4c5d5"/><stop offset="0.42" stop-color="#e9d3cf"/><stop offset="1" stop-color="#efe8ca"/></linearGradient><linearGradient id="linear-gradient-3" x1="189.06" y1="81.34" x2="224.72" y2="81.34" xlink:href="#linear-gradient-2"/><linearGradient id="linear-gradient-4" x1="362.15" y1="196.4" x2="362.46" y2="244.21" xlink:href="#linear-gradient"/><linearGradient id="linear-gradient-5" x1="370.16" y1="219.15" x2="367.33" y2="256.26" xlink:href="#linear-gradient"/><linearGradient id="linear-gradient-6" x1="133.84" y1="213.95" x2="481.05" y2="156.08" xlink:href="#linear-gradient"/><linearGradient id="linear-gradient-7" x1="119.91" y1="259.76" x2="269.61" y2="99.36" xlink:href="#linear-gradient"/><linearGradient id="linear-gradient-8" x1="189.34" y1="291.46" x2="184.31" y2="140.49" gradientUnits="userSpaceOnUse"><stop offset="0" stop-color="#fff" stop-opacity="0"/><stop offset="0.95" stop-color="#fff"/></linearGradient><linearGradient id="linear-gradient-9" x1="278.03" y1="193.31" x2="257.9" y2="306.22" xlink:href="#linear-gradient"/><linearGradient id="linear-gradient-10" x1="326.49" y1="201.3" x2="282.46" y2="296.59" xlink:href="#linear-gradient"/><linearGradient id="linear-gradient-11" x1="155.48" y1="105.92" x2="210.81" y2="105.92" xlink:href="#linear-gradient-2"/><linearGradient id="linear-gradient-12" x1="241.61" y1="193.71" x2="127.13" y2="115.4" xlink:href="#linear-gradient"/><linearGradient id="linear-gradient-13" x1="183.05" y1="230.61" x2="183.41" y2="230.61" xlink:href="#linear-gradient"/><linearGradient id="linear-gradient-14" x1="314.16" y1="219.96" x2="300.48" y2="312.42" xlink:href="#linear-gradient"/><linearGradient id="linear-gradient-15" x1="163.28" y1="220.5" x2="158.56" y2="266.73" xlink:href="#linear-gradient"/><linearGradient id="linear-gradient-16" x1="350.2" y1="427.7" x2="435.75" y2="217.61" xlink:href="#linear-gradient"/><linearGradient id="linear-gradient-17" x1="348.74" y1="426.83" x2="433.58" y2="218.47" xlink:href="#linear-gradient"/><linearGradient id="linear-gradient-18" x1="250.65" y1="404.96" x2="250.65" y2="358.41" xlink:href="#linear-gradient"/><linearGradient id="linear-gradient-19" x1="225.35" y1="404.96" x2="225.35" y2="358.41" xlink:href="#linear-gradient"/><linearGradient id="linear-gradient-20" x1="200.05" y1="404.96" x2="200.05" y2="358.41" xlink:href="#linear-gradient"/><linearGradient id="linear-gradient-21" x1="174.74" y1="404.96" x2="174.74" y2="358.41" xlink:href="#linear-gradient"/><linearGradient id="linear-gradient-22" x1="222.39" y1="391.11" x2="225.53" y2="329.46" xlink:href="#linear-gradient"/><linearGradient id="linear-gradient-23" x1="112.73" y1="345.28" x2="354.27" y2="220.73" xlink:href="#linear-gradient"/><linearGradient id="linear-gradient-24" x1="111.04" y1="344.36" x2="343.59" y2="224.46" xlink:href="#linear-gradient"/><linearGradient id="linear-gradient-25" x1="313.27" y1="310.06" x2="281.82" y2="119.47" xlink:href="#linear-gradient"/><linearGradient id="linear-gradient-26" x1="227.79" y1="223.3" x2="343.62" y2="223.3" xlink:href="#linear-gradient"/><linearGradient id="linear-gradient-27" x1="97.54" y1="247.03" x2="283.82" y2="232.4" xlink:href="#linear-gradient"/><linearGradient id="linear-gradient-28" x1="277.89" y1="189.3" x2="370.55" y2="189.3" xlink:href="#linear-gradient"/></defs><title>Boss 2</title><path d="M509.66,331.6a531.91,531.91,0,0,1-34.21,66.68c-1.85,3-3.72,6-5.6,9-5,7.88-10.49,15.92-18.5,20.75-11.79,7.17-26.57,6.06-40.38,5.76-60.42-1.41-119.56,16.18-179.75,21.81-60.69,5.67-120.07-2.14-178.41-18.9-17.56-5-29.79-8.61-39-25.63a57.65,57.65,0,0,1-2.55-5.43C.77,379.82,13.81,354.45,20,328.51,28.55,293.23,23,256.3,23.46,220c.63-45.51,13.43-94.67,49.89-121.88C96.24,81.07,125.19,75,152,65.16c27.38-10.09,53-24.4,80-35.59s56.1-19.27,85.12-16c18.63,2.15,36.36,8.88,53.88,15.55,24.7,9.42,50.6,19.71,67.16,40.31,24.06,29.93,21.91,73.09,38.3,107.84,13.61,28.79,39.95,51.74,46.18,83C527.42,284.35,519.28,309,509.66,331.6Z" transform="translate(-7.32 -12.84)" fill="#643518" opacity="0.24" style="isolation:isolate"/><path d="M475.45,398.28c-1.85,3-3.72,6-5.6,9-5,7.88-10.49,15.92-18.5,20.75-11.79,7.17-26.57,6.06-40.38,5.76-60.42-1.41-119.56,16.18-179.75,21.81-60.69,5.67-120.07-2.14-178.41-18.9-17.56-5-29.79-8.61-39-25.63a57.65,57.65,0,0,1-2.55-5.43c19.34-8.24,48.83-5.09,64.71-5.26q122.75-1.37,245.53-2.68,67.26-.75,134.51-1.48C462.54,396.14,469.45,396.17,475.45,398.28Z" transform="translate(-7.32 -12.84)" fill="#643518" opacity="0.44" style="isolation:isolate"/><path d="M80.05,416.53c7.8,7.53,19.71,8.37,30.56,8.6q26.91.57,53.84-.33c5.92-.2,11.87-.45,17.71.48,6.25,1,12.19,3.33,18.3,5,13.83,3.74,28.34,4,42.66,4q86.17.31,172.13-7.45c10.49-1,21.74-2.31,29.62-9.31,4.82-4.29,7.79-10.22,10.66-16l-176.14,4.33c-2.58.07-5.3.09-7.53-1.21-1.7-1-2.91-2.67-4.57-3.75-2.25-1.47-5.07-1.69-7.76-1.85a871.89,871.89,0,0,0-109-.08c-12.76.84-22.27,6.95-34.67,8.46C114.06,407.64,76.23,412.84,80.05,416.53Z" transform="translate(-7.32 -12.84)" fill="url(#linear-gradient)"/><path d="M140.65,85.82c2-1.76,4.73-2.4,7.34-3a3.09,3.09,0,0,1,2.62.21,2.72,2.72,0,0,1,.74,1.16,23.72,23.72,0,0,1,1.25,7.82c.11,2.54.14,5.26-1.19,7.43-1.56,2.54-4.6,3.7-7.41,4.7-2.34.83-5.11,1.61-7.16.21a7.25,7.25,0,0,1-1.79-2c-.81-1.21-3-4.05-2.91-5.6s1.73-1.84,2.78-2.93C137.23,91.49,138.11,88,140.65,85.82Z" transform="translate(-7.32 -12.84)" fill="url(#linear-gradient-2)"/><path d="M218.12,78.54c-1.88-1.44-3.58-3.13-5.6-4.38-4.62-2.84-10.34-3-15.76-3.14-2.19,0-4.65,0-6.19,1.57a6.14,6.14,0,0,0-1.5,4.07,11.9,11.9,0,0,0,5.09,10.16c5.94,4,14.11,1.9,20.92,4.18a7.73,7.73,0,0,0,2.74.65c2.12-.07,3.57-2.12,4.48-4,.68-1.41,3-4,2.26-5.3S219.54,79.63,218.12,78.54Z" transform="translate(-7.32 -12.84)" fill="url(#linear-gradient-3)"/><path d="M354.69,205.41a16.77,16.77,0,0,0-2.54,2.85c-2.64,4.07-1.4,9.43-.06,14.1a2.46,2.46,0,0,0,1,1.63,2.55,2.55,0,0,0,1,.21l5.32.33a11.73,11.73,0,0,0,5.31-.49c2.21-.92,3.63-3.1,4.55-5.31a36.85,36.85,0,0,0,2.19-9.17c.4-3,4.16-14.59,1.33-16-1.84-.92-8.36,2.81-9.89,4.21Q358.73,201.52,354.69,205.41Z" transform="translate(-7.32 -12.84)" fill="#643518"/><path d="M354.69,205.41a16.77,16.77,0,0,0-2.54,2.85c-2.64,4.07-1.4,9.43-.06,14.1a2.46,2.46,0,0,0,1,1.63,2.55,2.55,0,0,0,1,.21l5.32.33a11.73,11.73,0,0,0,5.31-.49c2.21-.92,3.63-3.1,4.55-5.31a36.85,36.85,0,0,0,2.19-9.17c.4-3,4.16-14.59,1.33-16-1.84-.92-8.36,2.81-9.89,4.21Q358.73,201.52,354.69,205.41Z" transform="translate(-7.32 -12.84)" fill="url(#linear-gradient-4)"/><path d="M375.91,213.06c-25.47,11-20.35,18.05-21,23.31a4.2,4.2,0,0,0,.56,3.1,6,6,0,0,0,2.48,1.65,16.83,16.83,0,0,0,7.21,1.81,11.93,11.93,0,0,0,7.75-3.66,29.66,29.66,0,0,0,4.74-6.89c3.44-6.25,3.65-9.47,6.77-15.86C386.79,211.63,377.74,212.27,375.91,213.06Z" transform="translate(-7.32 -12.84)" fill="#643518"/><path d="M375.91,213.06c-25.47,11-20.35,18.05-21,23.31a4.2,4.2,0,0,0,.56,3.1,6,6,0,0,0,2.48,1.65,16.83,16.83,0,0,0,7.21,1.81,11.93,11.93,0,0,0,7.75-3.66,29.66,29.66,0,0,0,4.74-6.89c3.44-6.25,3.65-9.47,6.77-15.86C386.79,211.63,377.74,212.27,375.91,213.06Z" transform="translate(-7.32 -12.84)" fill="url(#linear-gradient-5)"/><path d="M209.37,284.31c-.6,3.72-1.61,8-5,9.65a11.75,11.75,0,0,1-4.19.88q-24.12,2.21-48.25,4.39a2.82,2.82,0,0,1-3.82-2.75c-.64-3.49-1.28-6.94-1.91-10.42A61.23,61.23,0,0,0,141.45,301a91.48,91.48,0,0,1-15.22-3c-.16-8.42-.37-16.83-.53-25.27a2.28,2.28,0,0,0,0-.64,55.44,55.44,0,0,1-15.08-4.82,5.33,5.33,0,0,1-2.85-2.42.82.82,0,0,1-.1-.4,6.06,6.06,0,0,1,0-2.81c1.67-10,3.35-19.94,5-29.93,1.8-10.89,3.61-21.78,5.76-32.64,1.84-9.28,3.89-24.36,14.21-28.21,12.7-4.69,23.92,1,35.22,6.2,10.18,4.72,21.91,7.37,29.42,15.75,4.12,4.62,6.47,10.55,8.54,16.38A131.19,131.19,0,0,1,212.29,233C214.87,250,212.12,267.32,209.37,284.31Z" transform="translate(-7.32 -12.84)" fill="#643518"/><path d="M154.46,192.9c5.86,10.1,8.87,21.62,14.59,31.8,2.19,3.91,4.79,7.63,6.29,11.86.8,2.25,1.3,4.67,2.67,6.63,3.65,5.23,11.34,4.94,17.66,4.09a5.24,5.24,0,0,0,3.21-1.21,4.71,4.71,0,0,0,.91-3.43c-.31-10.22-7.28-18.8-13.23-27.11-10.79-15.07-19.93-32.56-36.18-41.47-6-3.28-17.08-6.44-22.69-.88,3.66,3,10.6,3.14,15.05,6.36A43.29,43.29,0,0,1,154.46,192.9Z" transform="translate(-7.32 -12.84)" fill="url(#linear-gradient-6)"/><path d="M125.93,231.57c-.48-12.44.56-25.29,6-36.49.78-1.61,1.83-3.33,3.55-3.79,2.18-.59,4.29,1.07,5.8,2.75,8.84,9.85,11.62,23.63,18.31,35.05,4.7,8,11.65,16.07,10.27,25.27-1.16,7.72-7.89,13.24-14.39,17.56-4.71,3.13-9.8,6.12-15.44,6.5-10.5.71-12.41-5.46-11.9-13.62C128.82,253.85,126.36,242.53,125.93,231.57Z" transform="translate(-7.32 -12.84)" fill="url(#linear-gradient-7)"/><path d="M258.92,214c.18-6.33-21.52-17.89-24.85-23.27s-1.35-17.68-4.41-23.22c-1.6-2.89-2.93-6.4-1.58-9.4a11.67,11.67,0,0,1,3.8-4.11c10.35-8,22.2-16,25.8-28.52,2.33-8.14.61-17.14-3.69-24.45S243,88,235.58,84c-3.47-1.91-8.07-3.38-11.11-.85-2.62,2.18-2.7,6.33-5.08,8.77,2.38,4.4,7.49,6.36,11.74,9a11.25,11.25,0,0,1,4.15,4.8,20.4,20.4,0,0,1-1.55,20.17,15,15,0,0,1-6.84,5.65,39.76,39.76,0,0,1-9.66,2.41q-17.73,2.81-35.68,4.07c-4.2.3-8.46.54-12.47,1.83-6.3,2-11.82,6.57-18.42,7.1a22.16,22.16,0,0,1-9.23-1.5c-4.39-1.57-8.77-4.33-10.33-8.72-1.28-3.63-.37-7.67.94-11.29a85,85,0,0,1,6.68-13.65c1.26-2.16,2.61-4.47,2.42-7-.26-3.57-3.44-6-6.6-7.85a7.79,7.79,0,0,0-8.16.26,39.29,39.29,0,0,0-16.93,26.09,46.62,46.62,0,0,0,5.68,30.76,40.92,40.92,0,0,0,15.73,16c6.66,3.6,14.58,5,20.29,10a35.37,35.37,0,0,1,4.11,4.45,118.9,118.9,0,0,1,14.16,22.18c1.45,2.94,2.6,6.41,3.83,9.46a34.34,34.34,0,0,0,3.53,6.94,38.66,38.66,0,0,0,4.73,5.18l7.86,7.61a37.58,37.58,0,0,0,6.28,5.27c7.63,4.7,17.81,3.32,25.6-1.12s13.71-11.47,19.46-18.35c2.17-2.6,4.92.19,6.26-2.92C248.43,215.3,258.81,217.72,258.92,214Z" transform="translate(-7.32 -12.84)" fill="#643518"/><path d="M258.44,212.59c.19-6.33-21-16.48-24.37-21.86s-1.35-17.68-4.41-23.22c-1.6-2.89-2.93-6.4-1.58-9.4a11.67,11.67,0,0,1,3.8-4.11c10.35-8,22.2-16,25.8-28.52,2.33-8.14.61-17.14-3.69-24.45S243,88,235.58,84c-3.47-1.91-8.07-3.38-11.11-.85-2.62,2.18-2.7,6.33-5.08,8.77,2.38,4.4,7.49,6.36,11.74,9a11.25,11.25,0,0,1,4.15,4.8,20.4,20.4,0,0,1-1.55,20.17,15,15,0,0,1-6.84,5.65,39.76,39.76,0,0,1-9.66,2.41q-17.73,2.81-35.68,4.07c-4.2.3-8.46.54-12.47,1.83-6.3,2-11.82,6.57-18.42,7.1a22.16,22.16,0,0,1-9.23-1.5c-4.39-1.57-8.77-4.33-10.33-8.72-1.28-3.63-.37-7.67.94-11.29a85,85,0,0,1,6.68-13.65c1.26-2.16,2.61-4.47,2.42-7-.26-3.57-3.44-6-6.6-7.85a7.79,7.79,0,0,0-8.16.26,39.29,39.29,0,0,0-16.93,26.09,46.62,46.62,0,0,0,5.68,30.76,40.92,40.92,0,0,0,15.73,16c6.66,3.6,14.58,5,20.29,10a35.37,35.37,0,0,1,4.11,4.45,118.9,118.9,0,0,1,14.16,22.18c1.45,2.94,2.6,6.41,3.83,9.46a34.34,34.34,0,0,0,3.53,6.94,38.66,38.66,0,0,0,4.73,5.18l7.86,7.61a37.58,37.58,0,0,0,6.28,5.27c7.63,4.7,17.81,3.32,25.6-1.12s13.71-11.47,19.46-18.35c2.17-2.6,2.25,4,3.58.85C245.76,219.07,258.33,216.31,258.44,212.59Z" transform="translate(-7.32 -12.84)" fill="url(#linear-gradient-8)"/><path d="M201.41,263a39,39,0,0,0,26.49,9.65,60.73,60.73,0,0,0,17-3.37,139.94,139.94,0,0,0,28.69-13c6.51-3.89,12.69-8.31,19.19-12.22a143.83,143.83,0,0,1,59.66-19.76l1.14-10.79c.19-1.85.19-4.11-1.4-5.06a5.08,5.08,0,0,0-2-.51c-18.07-2-36.33-3.32-54.42-1.53-14.31,1.41-28.35,4.72-42.34,8-17.24,4.07-34.69,8.22-50.78,15.83-5.9,2.79-13.67,5.34-13.08,12.94C190.13,250.41,196.2,258.36,201.41,263Z" transform="translate(-7.32 -12.84)" fill="#643518"/><path d="M201.41,263a39,39,0,0,0,26.49,9.65,60.73,60.73,0,0,0,17-3.37,139.94,139.94,0,0,0,28.69-13c6.51-3.89,12.69-8.31,19.19-12.22a143.83,143.83,0,0,1,59.66-19.76l1.14-10.79c.19-1.85.19-4.11-1.4-5.06a5.08,5.08,0,0,0-2-.51c-18.07-2-36.33-3.32-54.42-1.53-14.31,1.41-28.35,4.72-42.34,8-17.24,4.07-34.69,8.22-50.78,15.83-5.9,2.79-13.67,5.34-13.08,12.94C190.13,250.41,196.2,258.36,201.41,263Z" transform="translate(-7.32 -12.84)" fill="url(#linear-gradient-9)"/><path d="M257.84,239.71c-1.5-1.09,28.76-15.13,30.06-16.44s3.21-1.76,5-2.15c16.6-3.57,33.66-6.78,50.47-4.39,5.35.76,10.86,2.21,14.84,5.87,3.78,3.49,6.83,11.46,1.65,14.52-5.66,3.34-17.67,2-24,1.69C319.43,237.86,273.42,244.82,257.84,239.71Z" transform="translate(-7.32 -12.84)" fill="#643518"/><path d="M257.84,239.71c-1.5-1.09,28.76-15.13,30.06-16.44s3.21-1.76,5-2.15c16.6-3.57,33.66-6.78,50.47-4.39,5.35.76,10.86,2.21,14.84,5.87,3.78,3.49,6.83,11.46,1.65,14.52-5.66,3.34-17.67,2-24,1.69C319.43,237.86,273.42,244.82,257.84,239.71Z" transform="translate(-7.32 -12.84)" fill="url(#linear-gradient-10)"/><path d="M206.15,91.4a4.86,4.86,0,0,1,1.78,1.38c.77,1.2.27,2.76.12,4.17-.37,3.65,1.84,7,2.54,10.64a13.33,13.33,0,0,1-4.2,12.3c-2.53,2.23-5.91,3.47-8,6.1-1.93,2.41-2.5,5.62-2.89,8.68a8.26,8.26,0,0,1-1.19,4c-1.09,1.48-3,2-4.82,2.35a45.86,45.86,0,0,1-9.5.75,8.45,8.45,0,0,1-3.63-.68c-3.38-1.69-3.46-6.33-4.13-10-1.24-6.93-5.94-12.63-9.43-18.74a57.46,57.46,0,0,1-6.9-19.89,22.85,22.85,0,0,1,0-8.12,16.93,16.93,0,0,1,7.86-10.61,26,26,0,0,1,12.94-3.52c6.26-.17,12.92,1.84,16.33,7.43C196.49,83.32,200.07,88,206.15,91.4Z" transform="translate(-7.32 -12.84)" fill="url(#linear-gradient-11)"/><path d="M190.31,71.43a13.68,13.68,0,0,1,1.5,3c.46,2.4-1.26,4.68-3.18,6.2-3,2.39-6.74,3.73-10.16,5.53s-6.76,4.3-8.08,7.94c-1.41,3.9-.2,8.21,1,12.17a10,10,0,0,0-4.09-2.21c-1.55-.27-3.38.41-3.87,1.9a4.17,4.17,0,0,0,.41,2.94,12.83,12.83,0,0,0,2.59,3.79,7.82,7.82,0,0,1,1.82,2.16,6.12,6.12,0,0,1,.36,2.38l.09,6.3c-5.26-2.85-9.76-6.9-14.2-10.9a38.26,38.26,0,0,1-6.65-7.11c-1.3-2-1.72-4.11-2.76-6.13s-2.76-3.61-3.51-6a8.82,8.82,0,0,1,1-8c.94-1.22,2.26-1.83,3.32-2.86a25.54,25.54,0,0,0,3.18-4.48,102.94,102.94,0,0,1,8.19-10.75c2.05-2.37,4.5-4.78,7.61-5.08,1.68-.17,3.36.32,5,.24,3.12-.13,6.06-2.19,9.16-1.72,2.9.43,5,2.93,6.77,5.24C186.64,66,188.81,69,190.31,71.43Z" transform="translate(-7.32 -12.84)" fill="#606161"/><path d="M236,196.84a132.15,132.15,0,0,1-11.77-14.2c-2.14-3-4.16-6.07-6.12-9.18-1.5-2.39-3-4.81-4.66-7.07-3.39-4.58-7.61-8.48-11.12-13-1.05-1.33-4.17-5.68-5.05-7.13,0-2.29-1.8-7-3-7.52-1.79-.84-4-1.67-5.63-.64a4.42,4.42,0,0,0-1.81,3.34c-.15,1.31,0,2.63,0,3.94,0,1.08,4.13,1.92,6.54,2.18,6,17.18,15.46,36.52,26.59,50.9,3.28,4.25,6.94,8.46,11.84,10.65,3.33,1.48,7.06,1.93,10.39,3.44.58-3.07,1.17-6.21.62-9.28S238.1,199.1,236,196.84Z" transform="translate(-7.32 -12.84)" fill="#643518"/><path d="M236,196.84a132.15,132.15,0,0,1-11.77-14.2c-2.14-3-4.16-6.07-6.12-9.18-1.5-2.39-3-4.81-4.66-7.07-3.39-4.58-7.61-8.48-11.12-13-1.05-1.33-4.17-5.68-5.05-7.13,0-2.29-1.8-7-3-7.52-1.79-.84-4-1.67-5.63-.64a4.42,4.42,0,0,0-1.81,3.34c-.15,1.31,0,2.63,0,3.94,0,1.08,4.13,1.92,6.54,2.18,6,17.18,15.46,36.52,26.59,50.9,3.28,4.25,6.94,8.46,11.84,10.65,3.33,1.48,7.06,1.93,10.39,3.44.58-3.07,1.17-6.21.62-9.28S238.1,199.1,236,196.84Z" transform="translate(-7.32 -12.84)" fill="url(#linear-gradient-12)"/><path d="M183.23,230.85v-.47C182.61,230.69,183.86,230.54,183.23,230.85Z" transform="translate(-7.32 -12.84)" fill="url(#linear-gradient-13)"/><rect x="126.89" y="228.69" width="300.47" height="9.69" fill="#643518"/><rect x="196.94" y="228.69" width="230.43" height="9.69" fill="url(#linear-gradient-14)"/><rect x="126.98" y="228.69" width="69.99" height="9.17" fill="url(#linear-gradient-15)"/><rect x="359.81" y="239.23" width="66.71" height="165.91" fill="#643518"/><rect x="359.81" y="239.23" width="66.71" height="165.91" fill="url(#linear-gradient-16)"/><rect x="359.94" y="239.23" width="62.8" height="165.91" fill="url(#linear-gradient-17)"/><circle cx="250.65" cy="390.1" r="6.63" fill="#643518"/><circle cx="225.35" cy="390.1" r="6.63" fill="#643518"/><circle cx="200.05" cy="390.1" r="6.63" fill="#643518"/><circle cx="174.74" cy="390.1" r="6.63" fill="#643518"/><circle cx="250.65" cy="390.1" r="6.63" fill="url(#linear-gradient-18)"/><circle cx="225.35" cy="390.1" r="6.63" fill="url(#linear-gradient-19)"/><circle cx="200.05" cy="390.1" r="6.63" fill="url(#linear-gradient-20)"/><circle cx="174.74" cy="390.1" r="6.63" fill="url(#linear-gradient-21)"/><path d="M213.3,379.67c-2.33,4.46-7.89,5.82-12.66,7.41a54.85,54.85,0,0,0-17.18,9.4c-.75.61-1.57,1.53-1.19,2.42s1.47,1,2.39,1q30.15-.35,60.29-1.18c5.75-.16,11.62-.36,17-2.36a49.36,49.36,0,0,0-21.73-10.74c-2.82-.6-5.8-1-8.18-2.63-4-2.73-5.12-8.06-5.64-12.87-.3-2.78,1.79-24.67-.21-26.5-1.85-1.69-6.94-.16-8.36,1.64C213.65,350.55,216.49,373.53,213.3,379.67Z" transform="translate(-7.32 -12.84)" fill="#643518"/><path d="M213.3,379.67c-2.33,4.46-7.89,5.82-12.66,7.41a54.85,54.85,0,0,0-17.18,9.4c-.75.61-1.57,1.53-1.19,2.42s1.47,1,2.39,1q30.15-.35,60.29-1.18c5.75-.16,11.62-.36,17-2.36a49.36,49.36,0,0,0-21.73-10.74c-2.82-.6-5.8-1-8.18-2.63-4-2.73-5.12-8.06-5.64-12.87-.3-2.78,1.79-24.67-.21-26.5-1.85-1.69-6.94-.16-8.36,1.64C213.65,350.55,216.49,373.53,213.3,379.67Z" transform="translate(-7.32 -12.84)" fill="url(#linear-gradient-22)"/><rect x="126.89" y="237.82" width="66.71" height="165.91" fill="#643518"/><rect x="126.89" y="237.82" width="66.71" height="165.91" fill="url(#linear-gradient-23)"/><rect x="126.27" y="237.82" width="61.04" height="165.91" fill="url(#linear-gradient-24)"/><rect x="192.91" y="237.74" width="234.45" height="106.69" fill="#643518"/><rect x="192.91" y="237.74" width="234.45" height="106.69" fill="url(#linear-gradient-25)"/><rect x="227.79" y="218.39" width="115.83" height="9.83" fill="#643518"/><rect x="227.79" y="218.39" width="115.83" height="9.83" fill="url(#linear-gradient-26)"/><path d="M125.7,272.08a55.44,55.44,0,0,1-15.08-4.82,5.33,5.33,0,0,1-2.85-2.42.82.82,0,0,1-.1-.4c.43-3.68,2.31-8.18,2.68-11,1.41-12,7.41-23.23,8.11-35.29,1,10.15,2.45,20.24,3.89,30.36.5,3.72,1,7.44,1.54,11.19C124.16,261.59,125.63,268.43,125.7,272.08Z" transform="translate(-7.32 -12.84)" fill="url(#linear-gradient-27)"/><path d="M187.05,137.82a1.67,1.67,0,0,1,.84.68,1.71,1.71,0,0,1,.07,1l-1.31,9.81a1.37,1.37,0,0,1-.23.72,1.31,1.31,0,0,1-1.17.31c-2.64-.25-4.94-1.88-6.84-3.73a76.14,76.14,0,0,0-5.6-5.62c-2.74-2.18-4.51-6.07,0-7.29C176.64,132.63,183.67,136.19,187.05,137.82Z" transform="translate(-7.32 -12.84)" fill="#fff" style="isolation:isolate"/><path d="M191.83,136.25c-.48.5-1,1.26-.58,1.83a1.55,1.55,0,0,0,.52.39l5.84,3.22a1.65,1.65,0,0,0,.89.29,1.16,1.16,0,0,0,1-1,4,4,0,0,0-.2-1.53c-.46-1.81.46-7.14-1.42-7.89C195.76,130.67,193,135,191.83,136.25Z" transform="translate(-7.32 -12.84)" fill="#fff" style="isolation:isolate"/><polygon points="343.62 228.22 277.81 228.22 304.66 150.38 370.48 150.38 343.62 228.22" fill="#643518"/><polygon points="343.7 228.22 277.89 228.22 304.74 150.38 370.55 150.38 343.7 228.22" fill="url(#linear-gradient-28)"/></svg>