<svg id="Layer_1" data-name="Layer 1" xmlns="http://www.w3.org/2000/svg" xmlns:xlink="http://www.w3.org/1999/xlink" viewBox="0 0 378.75 429.9"><defs><linearGradient id="linear-gradient" x1="176.41" y1="175.91" x2="374.66" y2="207.88" gradientUnits="userSpaceOnUse"><stop offset="0" stop-color="#010101" stop-opacity="0"/><stop offset="0.95" stop-color="#010101"/></linearGradient><linearGradient id="linear-gradient-2" x1="149.77" y1="256.32" x2="195.03" y2="256.32" xlink:href="#linear-gradient"/><linearGradient id="linear-gradient-3" x1="273.82" y1="211.37" x2="21.46" y2="242.86" xlink:href="#linear-gradient"/><linearGradient id="linear-gradient-4" x1="245.47" y1="310.73" x2="243.88" y2="324.82" xlink:href="#linear-gradient"/><linearGradient id="linear-gradient-5" x1="254.6" y1="262.91" x2="247.48" y2="270.94" xlink:href="#linear-gradient"/><linearGradient id="linear-gradient-6" x1="191.13" y1="99.78" x2="230.24" y2="113.31" xlink:href="#linear-gradient"/><linearGradient id="linear-gradient-7" x1="255.6" y1="229.35" x2="227.31" y2="233.78" xlink:href="#linear-gradient"/><linearGradient id="linear-gradient-8" x1="232.1" y1="234.62" x2="196.21" y2="293.24" xlink:href="#linear-gradient"/><linearGradient id="linear-gradient-9" x1="222.94" y1="180.24" x2="350.35" y2="156.63" xlink:href="#linear-gradient"/><linearGradient id="linear-gradient-10" x1="213.34" y1="129.83" x2="191.69" y2="180.99" xlink:href="#linear-gradient"/><linearGradient id="linear-gradient-11" x1="215.06" y1="114.36" x2="221.79" y2="113.75" xlink:href="#linear-gradient"/></defs><title>Career 2</title><path d="M150.17,59.11c-16.3,7-32,16.79-42.09,31.39-8,11.57-11.91,25.39-15.58,39-7.14,26.44-13.83,54.19-7.91,80.93,4.33,19.56,15.31,38,14.55,58-1.09,28.87-26.46,54.2-22.12,82.75,4.14,27.26,32.71,42.78,58.16,53.38,26.54,11.06,53.74,21.47,82.29,24.85s58.92-.89,82.62-17.16c22.94-15.75,37.56-41.16,47-67.34s14.39-53.74,22.52-80.35c3.75-12.28,8.26-24.5,15.59-35,7.65-11,18-19.69,27.33-29.31a186.67,186.67,0,0,0,33.18-47.24c5.74-11.67,10.32-24.41,9.46-37.39C453.33,88,428.24,68,403.59,55.55,322.4,14.49,232.05,23.9,150.17,59.11Z" transform="translate(-76.52 -0.55)" fill="#4299e1" opacity="0.24" style="isolation:isolate"/><path d="M169,143a21.53,21.53,0,0,0-10.76,11.81l9.38,2.62a5,5,0,0,0,1.9.27,5.33,5.33,0,0,0,2.55-1.49c6.85-5.79,15.84-8.2,24.47-10.64,10-2.84,10.75-10-.54-7.33C187.17,140.29,177.28,139,169,143Z" transform="translate(-76.52 -0.55)" fill="#4299e1"/><path d="M197.65,132.28c-8.57,11.19-15,23.82-21.42,36.38a94.5,94.5,0,0,0-5.77,12.88c-3.69,11.12-4.05,25-3.39,36.67.11,1.87,1.31,2.16,2.79,3.3,1.91,1.49,4.89.36,6.27-1.63s1.63-4.52,2-6.92a54.8,54.8,0,0,1,8.11-21.32c1.26-1.94,2.67-3.87,3.21-6.12.49-2,4.31-13.61,4.11-15.68-1.3-13.78-3.82-18.35.47-31.51" transform="translate(-76.52 -0.55)" fill="#fff"/><path d="M197.65,132.28c-8.57,11.19-15,23.82-21.42,36.38a94.5,94.5,0,0,0-5.77,12.88c-3.69,11.12-4.05,25-3.39,36.67.11,1.87,1.31,2.16,2.79,3.3,1.91,1.49,4.89.36,6.27-1.63s1.63-4.52,2-6.92a54.8,54.8,0,0,1,8.11-21.32c1.26-1.94,2.67-3.87,3.21-6.12.49-2,4.31-13.61,4.11-15.68-1.3-13.78-3.82-18.35.47-31.51" transform="translate(-76.52 -0.55)" fill="url(#linear-gradient)"/><path d="M153.15,236.42a19.8,19.8,0,0,0-6.81,4.63c-2.52,2.93-3.33,6.92-3.86,10.74a121.42,121.42,0,0,0-1.16,13.86c-.09,3.55.06,7.39,2.26,10.17,2,2.52,5.33,3.67,8.54,3.73a32.61,32.61,0,0,0,9.44-1.68l25-7c2.75-.77,5.75-1.72,7.26-4.14,1.16-1.86,1.19-4.18,1.17-6.36-.07-7.83.13-13.59-.7-21.37-.5-4.7-3.7-9.86-8.61-10.83C175.5,226.14,162,232.24,153.15,236.42Z" transform="translate(-76.52 -0.55)" fill="#606161"/><path d="M159.74,242.38a16.63,16.63,0,0,0-5.73,3.81c-2.12,2.41-2.8,5.7-3.25,8.85a99,99,0,0,0-1,11.41c-.08,2.92.05,6.08,1.91,8.37a9.37,9.37,0,0,0,7.18,3.07,28.19,28.19,0,0,0,8-1.38l21.06-5.8c2.31-.63,4.83-1.42,6.11-3.41,1-1.53,1-3.44,1-5.24-.06-6.44.32-13.17-.38-19.57-.42-3.87-1.77-6.65-5.91-7.44C180.12,233.41,167.2,238.94,159.74,242.38Z" transform="translate(-76.52 -0.55)" fill="#606161"/><path d="M159.74,242.38a16.63,16.63,0,0,0-5.73,3.81c-2.12,2.41-2.8,5.7-3.25,8.85a99,99,0,0,0-1,11.41c-.08,2.92.05,6.08,1.91,8.37a9.37,9.37,0,0,0,7.18,3.07,28.19,28.19,0,0,0,8-1.38l21.06-5.8c2.31-.63,4.83-1.42,6.11-3.41,1-1.53,1-3.44,1-5.24-.06-6.44.32-13.17-.38-19.57-.42-3.87-1.77-6.65-5.91-7.44C180.12,233.41,167.2,238.94,159.74,242.38Z" transform="translate(-76.52 -0.55)" fill="url(#linear-gradient-2)"/><path d="M278.09.55V22.72H244.23V.55H239V430.24h5.24V411.52h33.86v10.19h5.24V.55Zm0,27.42V45.29H244.23V28ZM244.23,361.16V343.84h33.86v17.32Zm33.86,5.24v17.32H244.23V366.4Zm-33.86-27.81V321.27h33.86v17.32Zm0-22.56V298.71h33.86V316Zm0-22.56V276.15h33.86v17.32Zm0-22.56V253.59h33.86v17.32Zm0-22.56V231h33.86v17.33Zm0-22.57V208.46h33.86v17.32Zm0-22.56V185.9h33.86v17.32Zm0-22.56V163.34h33.86v17.32Zm0-22.56V140.78h33.86V158.1Zm0-22.56V118.21h33.86v17.33Zm0-22.57V95.65h33.86V113Zm0-22.56V73.09h33.86V90.41Zm0-22.56V50.53h33.86V67.85Zm0,338.43V389h33.86v17.32Z" transform="translate(-76.52 -0.55)" fill="#4299e1"/><path d="M278.09.55V22.72H244.23V.55H239V430.24h5.24V411.52h33.86v10.19h5.24V.55Zm0,27.42V45.29H244.23V28ZM244.23,361.16V343.84h33.86v17.32Zm33.86,5.24v17.32H244.23V366.4Zm-33.86-27.81V321.27h33.86v17.32Zm0-22.56V298.71h33.86V316Zm0-22.56V276.15h33.86v17.32Zm0-22.56V253.59h33.86v17.32Zm0-22.56V231h33.86v17.33Zm0-22.57V208.46h33.86v17.32Zm0-22.56V185.9h33.86v17.32Zm0-22.56V163.34h33.86v17.32Zm0-22.56V140.78h33.86V158.1Zm0-22.56V118.21h33.86v17.33Zm0-22.57V95.65h33.86V113Zm0-22.56V73.09h33.86V90.41Zm0-22.56V50.53h33.86V67.85Zm0,338.43V389h33.86v17.32Z" transform="translate(-76.52 -0.55)" fill="url(#linear-gradient-3)"/><path d="M233.11,323.66a2.79,2.79,0,0,0,1.21.25,35.58,35.58,0,0,0,21-5.52c1.71-1.1,3.53-2.91,2.93-4.85a16.78,16.78,0,0,0-13-.87,1.63,1.63,0,0,1-1.12.11,1.22,1.22,0,0,1-.54-.6c-1.31-2.72.25-5.53-3.68-5.68a8.88,8.88,0,0,0-5.84,2.36C231.72,311.24,229.87,321.91,233.11,323.66Z" transform="translate(-76.52 -0.55)" fill="#606161"/><path d="M233.11,323.66a2.79,2.79,0,0,0,1.21.25,35.58,35.58,0,0,0,21-5.52c1.71-1.1,3.53-2.91,2.93-4.85a16.78,16.78,0,0,0-13-.87,1.63,1.63,0,0,1-1.12.11,1.22,1.22,0,0,1-.54-.6c-1.31-2.72.25-5.53-3.68-5.68a8.88,8.88,0,0,0-5.84,2.36C231.72,311.24,229.87,321.91,233.11,323.66Z" transform="translate(-76.52 -0.55)" fill="url(#linear-gradient-4)"/><path d="M240.2,276.63a2.35,2.35,0,0,1-2.15-.65,2.29,2.29,0,0,1-.22-1.49,52.66,52.66,0,0,1,1.66-9.57,2.9,2.9,0,0,1,.66-1.39,3,3,0,0,1,1.21-.62l6.25-2.1c.12,1.06.26,2.12.45,3.17a1.94,1.94,0,0,0,.43,1.1,2.08,2.08,0,0,0,1.14.47q2.72.54,5.39,1.3a11.74,11.74,0,0,1,3.83,1.68c5.29,4-1,4.21-3.71,5.09A60,60,0,0,1,240.2,276.63Z" transform="translate(-76.52 -0.55)" fill="#606161"/><path d="M240.2,276.63a2.35,2.35,0,0,1-2.15-.65,2.29,2.29,0,0,1-.22-1.49,52.66,52.66,0,0,1,1.66-9.57,2.9,2.9,0,0,1,.66-1.39,3,3,0,0,1,1.21-.62l6.25-2.1c.12,1.06.26,2.12.45,3.17a1.94,1.94,0,0,0,.43,1.1,2.08,2.08,0,0,0,1.14.47q2.72.54,5.39,1.3a11.74,11.74,0,0,1,3.83,1.68c5.29,4-1,4.21-3.71,5.09A60,60,0,0,1,240.2,276.63Z" transform="translate(-76.52 -0.55)" fill="url(#linear-gradient-5)"/><path d="M229.71,107.92c.15,1.34-.69,2.56-1.24,3.79-1.06,2.34-1.13,5-1.65,7.49s-1.74,5.14-4.1,6.15c-1.93.82-4.7.71-5.43,2.68-.46,1.27.31,2.74-.17,4-.59,1.57-2.66,1.88-4.34,1.77-2.34-.15-4.82-.72-6.46-2.39a11.14,11.14,0,0,1-2.41-4.86,75.4,75.4,0,0,1-3-20.13c-.05-3.29.17-6.75,1.92-9.55,3.79-6.06,12.74-6.36,18.72-3.69a6.9,6.9,0,0,1,4.12,5.06c.46,1.71.4,3.52,1.2,5.14S229.49,106.07,229.71,107.92Z" transform="translate(-76.52 -0.55)" fill="#f4a982"/><path d="M224.16,98c-1.2,2.09-2.76,4-3.93,6a19.6,19.6,0,0,0-2.48,9c-.33.35-1,.11-1.24-.29s-.39-.9-.68-1.28c-1-1.34-3.41,0-3.47,1.72s1.19,3.08,2.37,4.28c-2.67,2-1.29,6.62-3.4,9.22s-6.29,1.73-9.48.58a5.55,5.55,0,0,1-2.61-1.52,5.67,5.67,0,0,1-.91-2.26l-3-12.47c-1.05-4.36-2.09-9-.66-13.25s5.2-7.43,8.77-10.28a13,13,0,0,1,5.27-3c2.83-.6,5.49.69,8.18,1.34,1.7.41,3.8.29,5.41.94C226.94,88.65,226.22,94.44,224.16,98Z" transform="translate(-76.52 -0.55)" fill="#606161"/><path d="M224.16,98c-1.2,2.09-2.76,4-3.93,6a19.6,19.6,0,0,0-2.48,9c-.33.35-1,.11-1.24-.29s-.39-.9-.68-1.28c-1-1.34-3.41,0-3.47,1.72s1.19,3.08,2.37,4.28c-2.67,2-1.29,6.62-3.4,9.22s-6.29,1.73-9.48.58a5.55,5.55,0,0,1-2.61-1.52,5.67,5.67,0,0,1-.91-2.26l-3-12.47c-1.05-4.36-2.09-9-.66-13.25s5.2-7.43,8.77-10.28a13,13,0,0,1,5.27-3c2.83-.6,5.49.69,8.18,1.34,1.7.41,3.8.29,5.41.94C226.94,88.65,226.22,94.44,224.16,98Z" transform="translate(-76.52 -0.55)" fill="url(#linear-gradient-6)"/><path d="M255.33,142c-.1-2-.43-4.07.52-5.78,1.38-2.46,4.92-2.93,7.47-1.75a5.62,5.62,0,0,1,3.34,3.88,6.23,6.23,0,0,1-1,4.09c-.72,1.24-1.64,2.36-2.33,3.61-1.18,2.15-3.57,8.85-7.34,6.27C253.29,150.48,255.46,144.62,255.33,142Z" transform="translate(-76.52 -0.55)" fill="#f4a982"/><path d="M257.92,221.53a15.65,15.65,0,0,1,.91,7.78c-.77,9.64-4.4,18.79-8,27.78a13.58,13.58,0,0,1-1.66,3.24c-2.54,3.25-7.33,3.36-11.45,3.17l-.29-18.36a14.1,14.1,0,0,0-.91-5.78,10.57,10.57,0,0,0-4.41-4.4c-4.22-2.48-9.25-3.42-13.28-6.2-5.07-3.5-7.69-10-7.1-16.07.86-8.8,6.56-10.55,14.65-10.1,5.6.31,9,2.92,13.49,5.93C245.51,212.29,254.91,215,257.92,221.53Z" transform="translate(-76.52 -0.55)" fill="#606161"/><path d="M257.92,221.53a15.65,15.65,0,0,1,.91,7.78c-.77,9.64-4.4,18.79-8,27.78a13.58,13.58,0,0,1-1.66,3.24c-2.54,3.25-7.33,3.36-11.45,3.17l-.29-18.36a14.1,14.1,0,0,0-.91-5.78,10.57,10.57,0,0,0-4.41-4.4c-4.22-2.48-9.25-3.42-13.28-6.2-5.07-3.5-7.69-10-7.1-16.07.86-8.8,6.56-10.55,14.65-10.1,5.6.31,9,2.92,13.49,5.93C245.51,212.29,254.91,215,257.92,221.53Z" transform="translate(-76.52 -0.55)" fill="url(#linear-gradient-7)"/><path d="M198.93,230.52c6,11,17.23,20.94,25.61,30.31a16.74,16.74,0,0,1,2.79,3.77c1.07,2.22,1.75,12.34,1.77,14.81l.23,28.12a6.63,6.63,0,0,0,.29,2.35,4.62,4.62,0,0,0,3.17,2.6c3.68,1,7.66-1.16,9.83-4.31s2.88-7,3.43-10.82a209.18,209.18,0,0,0,1-47.91,39.59,39.59,0,0,0-2.08-11,42.44,42.44,0,0,0-5.9-9.71l-13.41-18.22a36.49,36.49,0,0,0-7.06-7.86c-5.71-4.3-19.89-5.76-23.71,2C190.45,213.7,194.64,222.68,198.93,230.52Z" transform="translate(-76.52 -0.55)" fill="#606161"/><path d="M198.93,230.52c6,11,17.23,20.94,25.61,30.31a16.74,16.74,0,0,1,2.79,3.77c1.07,2.22,1.75,12.34,1.77,14.81l.23,28.12a6.63,6.63,0,0,0,.29,2.35,4.62,4.62,0,0,0,3.17,2.6c3.68,1,7.66-1.16,9.83-4.31s2.88-7,3.43-10.82a209.18,209.18,0,0,0,1-47.91,39.59,39.59,0,0,0-2.08-11,42.44,42.44,0,0,0-5.9-9.71l-13.41-18.22a36.49,36.49,0,0,0-7.06-7.86c-5.71-4.3-19.89-5.76-23.71,2C190.45,213.7,194.64,222.68,198.93,230.52Z" transform="translate(-76.52 -0.55)" fill="url(#linear-gradient-8)"/><path d="M163.71,228.31a6.68,6.68,0,0,0,1.11,3.83c1.43,1.94,4.11,2.43,6.53,2.55a10.61,10.61,0,0,0,5.75-.9c1.72-.95,3-3,2.34-4.91s-2.77-2.86-3.52-4.69a7.79,7.79,0,0,1-.2-3.6C176.65,210.3,163.54,221.49,163.71,228.31Z" transform="translate(-76.52 -0.55)" fill="#f4a982"/><path d="M211.69,130.72c-5.14-1.06-11.1-.88-14.87,2.78-2.91,2.83-3.85,7.09-4.51,11.1a268.69,268.69,0,0,0-3,32.79c-.2,5.18-.32,10.41.8,15.47s3.58,10,7.71,13.11c5,3.8,11.66,4.45,17.94,4.89,4.44.31,9.51.36,12.6-2.85A12.63,12.63,0,0,0,231,203.1c1.58-4.91,1.94-10.12,2.21-15.26q.6-11.9.56-23.82c0-7.26-.31-15-3.63-21.61C226.6,135.35,219.16,132.26,211.69,130.72Z" transform="translate(-76.52 -0.55)" fill="#fff"/><path d="M217.53,180.88a56.74,56.74,0,0,1-.4,12.76c-.44,3-1.11,6-.69,8.93s2.24,6,5.14,6.75,6.17-1.1,7.84-3.7,2.13-5.78,2.49-8.86a126.42,126.42,0,0,0,.73-25.35,28.37,28.37,0,0,0-1.62-8.08c-1.43-3.59-10.72-15.66-15.38-10.16-2.25,2.66-.66,9.7-.25,12.81C216.05,171,217.12,175.88,217.53,180.88Z" transform="translate(-76.52 -0.55)" fill="url(#linear-gradient-9)"/><path d="M220.13,137.94a10.17,10.17,0,0,0-2,6.54c0,6.74,3.54,12.9,6.05,19.16,1.65,4.11,2.93,8.48,5.67,12a17.33,17.33,0,0,0,9.48,6.09,9.21,9.21,0,0,0,4,.2c2.4-.5,4.28-2.33,5.93-4.15,6-6.64,11.06-14.65,11.79-23.57a4.94,4.94,0,0,0-.16-2.06,5.34,5.34,0,0,0-2-2.23c-2-1.5-4.43-3.08-6.81-2.33a8,8,0,0,0-3.26,2.56l-6.8,7.61a80,80,0,0,0-9.14-17.49C230.11,136.13,224,133.26,220.13,137.94Z" transform="translate(-76.52 -0.55)" fill="#fff"/><path d="M203.56,130.74a1,1,0,0,0,0,.71,1.1,1.1,0,0,0,.48.37,40,40,0,0,0,16.44,3.94,18.39,18.39,0,0,1-1.15-3.4c-.17-.74-.07-3-.53-3.5-.72-.78-4.32-.61-5.47-.75l-5.56-.69C204.69,127,204.28,127.66,203.56,130.74Z" transform="translate(-76.52 -0.55)" fill="#fff"/><path d="M203.56,130.74a1,1,0,0,0,0,.71,1.1,1.1,0,0,0,.48.37,40,40,0,0,0,16.44,3.94,18.39,18.39,0,0,1-1.15-3.4c-.17-.74-.07-3-.53-3.5-.72-.78-4.32-.61-5.47-.75l-5.56-.69C204.69,127,204.28,127.66,203.56,130.74Z" transform="translate(-76.52 -0.55)" fill="url(#linear-gradient-10)"/><path d="M215.52,113a.51.51,0,0,0-.1-.3.45.45,0,0,0-.28-.12.75.75,0,0,0-.7.44,1.86,1.86,0,0,0-.15.87,2.48,2.48,0,0,0,.06.61,3.5,3.5,0,0,0,.59,1.11.9.9,0,0,0,.52.44c.58.11,1.25-.71.85-1.2-.21-.25-.51-.39-.66-.69A3.48,3.48,0,0,1,215.52,113Z" transform="translate(-76.52 -0.55)" fill="url(#linear-gradient-11)"/><path d="M190.74,351.28a35.2,35.2,0,0,1-3,14.23,36.23,36.23,0,1,1-34.24-50.25h.9A36.17,36.17,0,0,1,190.74,351.28Z" transform="translate(-76.52 -0.55)" fill="#4299e1" opacity="0.24" style="isolation:isolate"/><path d="M190.74,351.28a35.2,35.2,0,0,1-3,14.23l-34.24-14.23v-36h.9A36.17,36.17,0,0,1,190.74,351.28Z" transform="translate(-76.52 -0.55)" fill="#4299e1" opacity="0.4" style="isolation:isolate"/><path d="M386.56,146.66H325.83V97.85a1.15,1.15,0,0,1,2.29,0v46.52h58.44a1.15,1.15,0,1,1,0,2.29Z" transform="translate(-76.52 -0.55)" fill="#4299e1"/><path d="M326.76,139.79a1.14,1.14,0,0,1-.91-.45,1.16,1.16,0,0,1,.22-1.61l20.49-15.47H361L379.6,110a1.14,1.14,0,0,1,1.26,1.91l-19.19,12.65H347.33l-19.88,15A1.12,1.12,0,0,1,326.76,139.79Z" transform="translate(-76.52 -0.55)" fill="#4299e1"/><polygon points="299.81 108.16 306.32 107.94 304.58 114.53 299.81 108.16" fill="#4299e1"/><path d="M168.05,218.17A2.32,2.32,0,0,0,166.9,220a.92.92,0,0,0,.16.59c.32.4.94.26,1.42.11a9,9,0,0,1,7,.46,1,1,0,0,0,.54.2c.45,0,.63-.6.64-1.06a8.77,8.77,0,0,0-.18-1.91,2.88,2.88,0,0,0-1.12-1.92,3.48,3.48,0,0,0-2.95.14A22.4,22.4,0,0,0,168.05,218.17Z" transform="translate(-76.52 -0.55)" fill="#fff"/></svg>