<svg id="Layer_1" data-name="Layer 1" xmlns="http://www.w3.org/2000/svg" xmlns:xlink="http://www.w3.org/1999/xlink" viewBox="0 0 557.59 402.4"><defs><linearGradient id="linear-gradient" x1="134.99" y1="350.47" x2="172.29" y2="624.01" gradientUnits="userSpaceOnUse"><stop offset="0" stop-color="#010101" stop-opacity="0"/><stop offset="0.95" stop-color="#010101"/></linearGradient><linearGradient id="linear-gradient-2" x1="416.58" y1="111.75" x2="417.02" y2="227.97" xlink:href="#linear-gradient"/><linearGradient id="linear-gradient-3" x1="402.56" y1="180.28" x2="405.95" y2="311.4" xlink:href="#linear-gradient"/><linearGradient id="linear-gradient-4" x1="415.45" y1="179.94" x2="418.84" y2="311.06" xlink:href="#linear-gradient"/><linearGradient id="linear-gradient-5" x1="427.57" y1="179.63" x2="430.96" y2="310.75" xlink:href="#linear-gradient"/><linearGradient id="linear-gradient-6" x1="441.41" y1="179.27" x2="444.8" y2="310.39" xlink:href="#linear-gradient"/><linearGradient id="linear-gradient-7" x1="228.39" y1="184.78" x2="231.78" y2="315.9" xlink:href="#linear-gradient"/><linearGradient id="linear-gradient-8" x1="240.64" y1="184.46" x2="244.04" y2="315.59" xlink:href="#linear-gradient"/><linearGradient id="linear-gradient-9" x1="254.49" y1="184.11" x2="257.88" y2="315.23" xlink:href="#linear-gradient"/><linearGradient id="linear-gradient-10" x1="190.12" y1="145.64" x2="194.05" y2="329.52" xlink:href="#linear-gradient"/><linearGradient id="linear-gradient-11" x1="244.61" y1="141.11" x2="242.07" y2="264.04" xlink:href="#linear-gradient"/><linearGradient id="linear-gradient-12" x1="155.07" y1="366.52" x2="112.68" y2="206.01" xlink:href="#linear-gradient"/><linearGradient id="linear-gradient-13" x1="105.16" y1="327.34" x2="215.93" y2="318.86" xlink:href="#linear-gradient"/><linearGradient id="linear-gradient-14" x1="126.88" y1="269.05" x2="127.31" y2="243.4" xlink:href="#linear-gradient"/><linearGradient id="linear-gradient-15" x1="147.43" y1="212.52" x2="187.27" y2="212.38" xlink:href="#linear-gradient"/><linearGradient id="linear-gradient-16" x1="106" y1="173.85" x2="76.54" y2="172.15" xlink:href="#linear-gradient"/><linearGradient id="linear-gradient-17" x1="106.41" y1="256.86" x2="106.41" y2="216.79" xlink:href="#linear-gradient"/><linearGradient id="linear-gradient-18" x1="148.79" y1="187.62" x2="159.6" y2="249.72" xlink:href="#linear-gradient"/><linearGradient id="linear-gradient-19" x1="118.69" y1="371.2" x2="117.42" y2="456.83" xlink:href="#linear-gradient"/><linearGradient id="linear-gradient-20" x1="146.8" y1="358.97" x2="145.53" y2="444.59" xlink:href="#linear-gradient"/></defs><title>Complete task 2</title><path d="M554.42,347.92c-7.44,20.68-22.16,37-40.92,49.41-29.78,19.63-69.73,29.29-106.95,30.44-60.73,1.86-121.82-11.74-181.89-3.25-36.31,5.14-71.45,18.27-108.16,18.45-33.54.15-70.78-15.23-82.14-43.42a47.42,47.42,0,0,1-2.52-8.34c-2.44-12-.12-24.44-.4-36.73C30.69,319.82,9.58,288.33,4.1,254c-9.51-59.37,31.35-119,87.56-148.8C150.5,74.1,222.25,75.57,286.77,60.43c65.22-15.36,151-33.72,214-4,12.7,6,24.66,14.43,31.13,26.2,5.21,9.45,6.47,20.29,7.68,30.86q8.94,79.26,17.88,158.47C560.38,297.36,563.15,323.68,554.42,347.92Z" transform="translate(-2.73 -40.57)" fill="#643518" opacity="0.24" style="isolation:isolate"/><path d="M513.5,397.33c-29.78,19.63-69.73,29.29-106.95,30.44-60.73,1.86-121.82-11.74-181.89-3.25-36.31,5.14-71.45,18.27-108.16,18.45-33.54.15-70.78-15.23-82.14-43.42,29.81-27.36,105.27-31.73,138.87-24.72,15.33,3.2,30.23,8.16,45.62,11.06,19.42,3.64,39.35,3.94,59.1,2.92,28.88-1.48,57.57-5.7,85.91-11.48,42.54-8.67,88.67-20.44,127.63-1.32,7.44,3.64,14.51,8.52,19.06,15.42A28.3,28.3,0,0,1,513.5,397.33Z" transform="translate(-2.73 -40.57)" fill="#643518" opacity="0.24" style="isolation:isolate"/><path d="M92,397.06c-6.27,3-13.16,9-10.89,15.6,1.65,4.8,7.29,6.72,12.21,7.94,14.38,3.56,29.39,6.57,43.91,3.62,9.59-1.94,18.45-6.39,27.64-9.77a128,128,0,0,1,31.61-7.24c3.09-.3,6.88-1,7.79-4,1.1-3.53-2.92-6.4-6.36-7.73-16.95-6.59-35.5-6.09-53.29-7.82A99.77,99.77,0,0,0,92,397.06Z" transform="translate(-2.73 -40.57)" fill="url(#linear-gradient)"/><path d="M432.6,177.86A10.6,10.6,0,0,1,422,188.43H156.16a10.59,10.59,0,0,1-10.57-10.57,10.58,10.58,0,0,1,10.57-10.57H422A10.57,10.57,0,0,1,432.6,177.86Z" transform="translate(-2.73 -40.57)" fill="#643518"/><circle cx="241.14" cy="137.17" r="13.21" fill="#643518"/><circle cx="416.67" cy="137.17" r="13.21" fill="#643518"/><circle cx="416.67" cy="137.17" r="13.21" fill="url(#linear-gradient-2)"/><rect x="356.8" y="22.52" width="113.58" height="80.42" rx="8.64" fill="#643518"/><polygon points="400.82 98.98 414.47 117.47 422.84 98.54 400.82 98.98" fill="#643518"/><path d="M417,112.51a19.43,19.43,0,1,1,19.43-19.43A19.45,19.45,0,0,1,417,112.51Zm0-36.71A17.28,17.28,0,1,0,434.3,93.08,17.3,17.3,0,0,0,417,75.8Z" transform="translate(-2.73 -40.57)" fill="#fff"/><polygon points="411.68 60.14 404.83 54.31 406.78 52.02 411.38 55.93 423.11 42.63 425.37 44.62 411.68 60.14" fill="#fff"/><path d="M389,132.11a6.36,6.36,0,0,1-2.6.46,4.6,4.6,0,0,1-4.86-5,4.9,4.9,0,0,1,5.14-5.17,5.22,5.22,0,0,1,2.34.44l-.31,1a4.69,4.69,0,0,0-2-.41c-2.3,0-3.84,1.48-3.84,4.07,0,2.41,1.39,4,3.79,4a5.22,5.22,0,0,0,2.07-.41Z" transform="translate(-2.73 -40.57)" fill="#fff"/><path d="M398.69,127.4c0,3.39-2.06,5.19-4.57,5.19s-4.43-2-4.43-5c0-3.13,1.95-5.17,4.58-5.17S398.69,124.48,398.69,127.4Zm-7.64.16c0,2.11,1.14,4,3.14,4s3.16-1.86,3.16-4.09c0-2-1-4-3.14-4S391.05,125.4,391.05,127.56Z" transform="translate(-2.73 -40.57)" fill="#fff"/><path d="M408.63,128.1c-.07-1.37-.16-3-.14-4.25h-.05c-.33,1.15-.74,2.38-1.24,3.74l-1.74,4.78h-1l-1.6-4.69c-.46-1.39-.86-2.66-1.13-3.83h0c0,1.23-.11,2.88-.19,4.35l-.27,4.23h-1.21l.69-9.85h1.62l1.68,4.76c.41,1.21.74,2.3,1,3.32h.05c.25-1,.59-2.08,1-3.32l1.76-4.76h1.62l.61,9.85h-1.24Z" transform="translate(-2.73 -40.57)" fill="#fff"/><path d="M412.07,122.7a13.84,13.84,0,0,1,2.44-.19,4.09,4.09,0,0,1,2.76.81,2.66,2.66,0,0,1,.86,2.06,2.88,2.88,0,0,1-.76,2.11,4.1,4.1,0,0,1-3,1.08,4.5,4.5,0,0,1-1-.09v4h-1.27Zm1.27,4.75a4.45,4.45,0,0,0,1.05.1c1.53,0,2.47-.75,2.47-2.11s-.92-1.93-2.32-1.93a5.12,5.12,0,0,0-1.2.11Z" transform="translate(-2.73 -40.57)" fill="#fff"/><path d="M419.83,122.58h1.27v8.78h4.21v1.07h-5.48Z" transform="translate(-2.73 -40.57)" fill="#fff"/><path d="M431.82,127.81H428v3.55h4.27v1.07h-5.54v-9.85H432v1.07H428v3.11h3.83Z" transform="translate(-2.73 -40.57)" fill="#fff"/><path d="M436,123.66h-3v-1.08h7.29v1.08h-3v8.77H436Z" transform="translate(-2.73 -40.57)" fill="#fff"/><path d="M446.48,127.81h-3.83v3.55h4.27v1.07h-5.54v-9.85h5.32v1.07h-4.05v3.11h3.83Z" transform="translate(-2.73 -40.57)" fill="#fff"/><path d="M448.56,122.71a18,18,0,0,1,2.71-.2,5.68,5.68,0,0,1,4,1.22,4.58,4.58,0,0,1,1.38,3.54,5.21,5.21,0,0,1-1.41,3.83,6.07,6.07,0,0,1-4.36,1.41,21.67,21.67,0,0,1-2.31-.11Zm1.27,8.71a8,8,0,0,0,1.29.07c2.72,0,4.19-1.52,4.19-4.18,0-2.32-1.3-3.8-4-3.8a6.74,6.74,0,0,0-1.49.14Z" transform="translate(-2.73 -40.57)" fill="#fff"/><path d="M400.35,205.69a10.54,10.54,0,0,0,1.88.11h2a16.23,16.23,0,0,0,1.94-.06,23.73,23.73,0,0,0-.11,2.52v8.21a16.94,16.94,0,0,0,.13,2.36h-3.42a18.52,18.52,0,0,0,.13-2.36v-8h-.63a16.21,16.21,0,0,0-1.91.11Z" transform="translate(-2.73 -40.57)" fill="#643518"/><path d="M412.49,217.66a4.82,4.82,0,0,1-1.14-1.74,10.34,10.34,0,0,1-.62-3.59,9.25,9.25,0,0,1,1-4.34,5.12,5.12,0,0,1,4.56-2.47,5.34,5.34,0,0,1,3.81,1.45,5,5,0,0,1,1.14,1.74,10.37,10.37,0,0,1,.61,3.61,9.3,9.3,0,0,1-1,4.35,5.13,5.13,0,0,1-4.58,2.45A5.2,5.2,0,0,1,412.49,217.66Zm1.46-5.45c0,2.8.8,4.24,2.35,4.24s2.32-1.41,2.32-4.2-.82-4.08-2.34-4.08S414,209.65,414,212.21Z" transform="translate(-2.73 -40.57)" fill="#643518"/><path d="M424.61,217.66a5.09,5.09,0,0,1-1.14-1.74,10.57,10.57,0,0,1-.61-3.59,9.13,9.13,0,0,1,1-4.34,5.1,5.1,0,0,1,4.56-2.47,5.3,5.3,0,0,1,3.8,1.45,5.07,5.07,0,0,1,1.15,1.74,10.37,10.37,0,0,1,.61,3.61,9.17,9.17,0,0,1-1,4.35,5.12,5.12,0,0,1-4.57,2.45A5.2,5.2,0,0,1,424.61,217.66Zm1.46-5.45c0,2.8.8,4.24,2.35,4.24s2.32-1.41,2.32-4.2-.81-4.08-2.33-4.08S426.07,209.65,426.07,212.21Z" transform="translate(-2.73 -40.57)" fill="#643518"/><path d="M435.94,212a3.76,3.76,0,0,1-.94-2.75,3.81,3.81,0,0,1,1-2.78,3.41,3.41,0,0,1,2.43-.89,3.36,3.36,0,0,1,2.43.89,3.81,3.81,0,0,1,.94,2.76,3.77,3.77,0,0,1-1,2.79,3.36,3.36,0,0,1-2.41.89A3.4,3.4,0,0,1,435.94,212Zm11-6.58.83.63-10.21,13.25-.82-.63Zm-9.76,3.81c0,1.31.41,2,1.21,2s1.19-.67,1.19-2-.41-2-1.19-2S437.18,207.91,437.18,209.2Zm6.52,9a4.5,4.5,0,0,1,0-5.53,3.4,3.4,0,0,1,2.44-.89c2.13,0,3.37,1.34,3.37,3.65a3.8,3.8,0,0,1-1,2.79,3.74,3.74,0,0,1-4.87,0Zm1.24-2.8c0,1.34.4,2,1.2,2s1.21-.67,1.21-2-.41-1.93-1.19-1.93S444.94,214.12,444.94,215.39Z" transform="translate(-2.73 -40.57)" fill="#643518"/><path d="M227.05,214.85a1.73,1.73,0,0,0,.44,1,2.44,2.44,0,0,0,1.8.67c1.23,0,2-.61,2-1.57a1.35,1.35,0,0,0-.84-1.34,4.39,4.39,0,0,0-1.46-.21,18,18,0,0,0-1.93.1v-2.7a14.38,14.38,0,0,0,1.66.1c1.49,0,2.23-.5,2.23-1.51,0-.84-.6-1.33-1.63-1.33a1.68,1.68,0,0,0-1.91,1.44L224,209a4.5,4.5,0,0,1,1.05-2,5.59,5.59,0,0,1,4.31-1.57,5.7,5.7,0,0,1,4,1.33,3,3,0,0,1,.88,2.23c0,1.66-.89,2.69-2.69,3.11a3.61,3.61,0,0,1,2,.83,3.12,3.12,0,0,1,1,2.32,3.5,3.5,0,0,1-.63,2.09,3.81,3.81,0,0,1-1.47,1.17,8.35,8.35,0,0,1-3.26.61,7.18,7.18,0,0,1-3.65-.87,4.24,4.24,0,0,1-1.61-2,4.73,4.73,0,0,1-.27-.83Z" transform="translate(-2.73 -40.57)" fill="#643518"/><path d="M237.57,217.66a5,5,0,0,1-1.15-1.74,10.57,10.57,0,0,1-.61-3.59,9.13,9.13,0,0,1,1-4.34,5.1,5.1,0,0,1,4.56-2.47,5.3,5.3,0,0,1,3.8,1.45,5.07,5.07,0,0,1,1.15,1.74,10.37,10.37,0,0,1,.61,3.61,9.17,9.17,0,0,1-1,4.35,5.56,5.56,0,0,1-8.36,1Zm1.45-5.45c0,2.8.8,4.24,2.35,4.24s2.32-1.41,2.32-4.2-.81-4.08-2.33-4.08S239,209.65,239,212.21Z" transform="translate(-2.73 -40.57)" fill="#643518"/><path d="M248.89,212a3.76,3.76,0,0,1-.94-2.75,3.81,3.81,0,0,1,1-2.78,3.76,3.76,0,0,1,4.86,0,3.81,3.81,0,0,1,.94,2.76,3.77,3.77,0,0,1-1,2.79,3.73,3.73,0,0,1-4.86,0Zm11-6.58.83.63-10.21,13.25-.82-.63Zm-9.76,3.81c0,1.31.41,2,1.21,2s1.19-.67,1.19-2-.41-2-1.19-2S250.13,207.91,250.13,209.2Zm6.52,9a4.52,4.52,0,0,1,0-5.53,3.44,3.44,0,0,1,2.45-.89c2.13,0,3.37,1.34,3.37,3.65a3.8,3.8,0,0,1-1,2.79,3.74,3.74,0,0,1-4.87,0Zm1.24-2.8c0,1.34.4,2,1.2,2s1.21-.67,1.21-2-.41-1.93-1.19-1.93S257.89,214.12,257.89,215.39Z" transform="translate(-2.73 -40.57)" fill="#643518"/><path d="M400.35,205.69a10.54,10.54,0,0,0,1.88.11h2a16.23,16.23,0,0,0,1.94-.06,23.73,23.73,0,0,0-.11,2.52v8.21a16.94,16.94,0,0,0,.13,2.36h-3.42a18.52,18.52,0,0,0,.13-2.36v-8h-.63a16.21,16.21,0,0,0-1.91.11Z" transform="translate(-2.73 -40.57)" fill="url(#linear-gradient-3)"/><path d="M412.49,217.66a4.82,4.82,0,0,1-1.14-1.74,10.34,10.34,0,0,1-.62-3.59,9.25,9.25,0,0,1,1-4.34,5.12,5.12,0,0,1,4.56-2.47,5.34,5.34,0,0,1,3.81,1.45,5,5,0,0,1,1.14,1.74,10.37,10.37,0,0,1,.61,3.61,9.3,9.3,0,0,1-1,4.35,5.13,5.13,0,0,1-4.58,2.45A5.2,5.2,0,0,1,412.49,217.66Zm1.46-5.45c0,2.8.8,4.24,2.35,4.24s2.32-1.41,2.32-4.2-.82-4.08-2.34-4.08S414,209.65,414,212.21Z" transform="translate(-2.73 -40.57)" fill="url(#linear-gradient-4)"/><path d="M424.61,217.66a5.09,5.09,0,0,1-1.14-1.74,10.57,10.57,0,0,1-.61-3.59,9.13,9.13,0,0,1,1-4.34,5.1,5.1,0,0,1,4.56-2.47,5.3,5.3,0,0,1,3.8,1.45,5.07,5.07,0,0,1,1.15,1.74,10.37,10.37,0,0,1,.61,3.61,9.17,9.17,0,0,1-1,4.35,5.12,5.12,0,0,1-4.57,2.45A5.2,5.2,0,0,1,424.61,217.66Zm1.46-5.45c0,2.8.8,4.24,2.35,4.24s2.32-1.41,2.32-4.2-.81-4.08-2.33-4.08S426.07,209.65,426.07,212.21Z" transform="translate(-2.73 -40.57)" fill="url(#linear-gradient-5)"/><path d="M435.94,212a3.76,3.76,0,0,1-.94-2.75,3.81,3.81,0,0,1,1-2.78,3.41,3.41,0,0,1,2.43-.89,3.36,3.36,0,0,1,2.43.89,3.81,3.81,0,0,1,.94,2.76,3.77,3.77,0,0,1-1,2.79,3.36,3.36,0,0,1-2.41.89A3.4,3.4,0,0,1,435.94,212Zm11-6.58.83.63-10.21,13.25-.82-.63Zm-9.76,3.81c0,1.31.41,2,1.21,2s1.19-.67,1.19-2-.41-2-1.19-2S437.18,207.91,437.18,209.2Zm6.52,9a4.5,4.5,0,0,1,0-5.53,3.4,3.4,0,0,1,2.44-.89c2.13,0,3.37,1.34,3.37,3.65a3.8,3.8,0,0,1-1,2.79,3.74,3.74,0,0,1-4.87,0Zm1.24-2.8c0,1.34.4,2,1.2,2s1.21-.67,1.21-2-.41-1.93-1.19-1.93S444.94,214.12,444.94,215.39Z" transform="translate(-2.73 -40.57)" fill="url(#linear-gradient-6)"/><path d="M227.05,214.85a1.73,1.73,0,0,0,.44,1,2.44,2.44,0,0,0,1.8.67c1.23,0,2-.61,2-1.57a1.35,1.35,0,0,0-.84-1.34,4.39,4.39,0,0,0-1.46-.21,18,18,0,0,0-1.93.1v-2.7a14.38,14.38,0,0,0,1.66.1c1.49,0,2.23-.5,2.23-1.51,0-.84-.6-1.33-1.63-1.33a1.68,1.68,0,0,0-1.91,1.44L224,209a4.5,4.5,0,0,1,1.05-2,5.59,5.59,0,0,1,4.31-1.57,5.7,5.7,0,0,1,4,1.33,3,3,0,0,1,.88,2.23c0,1.66-.89,2.69-2.69,3.11a3.61,3.61,0,0,1,2,.83,3.12,3.12,0,0,1,1,2.32,3.5,3.5,0,0,1-.63,2.09,3.81,3.81,0,0,1-1.47,1.17,8.35,8.35,0,0,1-3.26.61,7.18,7.18,0,0,1-3.65-.87,4.24,4.24,0,0,1-1.61-2,4.73,4.73,0,0,1-.27-.83Z" transform="translate(-2.73 -40.57)" fill="url(#linear-gradient-7)"/><path d="M237.57,217.66a5,5,0,0,1-1.15-1.74,10.57,10.57,0,0,1-.61-3.59,9.13,9.13,0,0,1,1-4.34,5.1,5.1,0,0,1,4.56-2.47,5.3,5.3,0,0,1,3.8,1.45,5.07,5.07,0,0,1,1.15,1.74,10.37,10.37,0,0,1,.61,3.61,9.17,9.17,0,0,1-1,4.35,5.56,5.56,0,0,1-8.36,1Zm1.45-5.45c0,2.8.8,4.24,2.35,4.24s2.32-1.41,2.32-4.2-.81-4.08-2.33-4.08S239,209.65,239,212.21Z" transform="translate(-2.73 -40.57)" fill="url(#linear-gradient-8)"/><path d="M248.89,212a3.76,3.76,0,0,1-.94-2.75,3.81,3.81,0,0,1,1-2.78,3.76,3.76,0,0,1,4.86,0,3.81,3.81,0,0,1,.94,2.76,3.77,3.77,0,0,1-1,2.79,3.73,3.73,0,0,1-4.86,0Zm11-6.58.83.63-10.21,13.25-.82-.63Zm-9.76,3.81c0,1.31.41,2,1.21,2s1.19-.67,1.19-2-.41-2-1.19-2S250.13,207.91,250.13,209.2Zm6.52,9a4.52,4.52,0,0,1,0-5.53,3.44,3.44,0,0,1,2.45-.89c2.13,0,3.37,1.34,3.37,3.65a3.8,3.8,0,0,1-1,2.79,3.74,3.74,0,0,1-4.87,0Zm1.24-2.8c0,1.34.4,2,1.2,2s1.21-.67,1.21-2-.41-1.93-1.19-1.93S257.89,214.12,257.89,215.39Z" transform="translate(-2.73 -40.57)" fill="url(#linear-gradient-9)"/><path d="M236.13,188.43h-80a10.59,10.59,0,0,1-10.57-10.57,10.58,10.58,0,0,1,10.57-10.57H235.8a13.17,13.17,0,0,0,.33,21.14Z" transform="translate(-2.73 -40.57)" fill="url(#linear-gradient-10)"/><path d="M257.06,177.74A13.21,13.21,0,0,1,243.87,191a13.05,13.05,0,0,1-7.74-2.52,13.17,13.17,0,0,1-.33-21.14,13,13,0,0,1,8.07-2.77A13.21,13.21,0,0,1,257.06,177.74Z" transform="translate(-2.73 -40.57)" fill="url(#linear-gradient-11)"/><path d="M146.88,385.45l.33,7.3a9.74,9.74,0,0,1-6.51,6,9.43,9.43,0,0,1-8.19-1.69l.52-12.22" transform="translate(-2.73 -40.57)" fill="#c8a59c"/><path d="M118.48,392.11l.33,7.3a9.73,9.73,0,0,1-6.51,6,9.41,9.41,0,0,1-8.19-1.68l.51-12.23" transform="translate(-2.73 -40.57)" fill="#c8a59c"/><path d="M153.14,265.09l-5.33,122a11.43,11.43,0,0,1-6.41,2.22c-4.47.26-5.28.58-8.5-2.35L118.8,259.78l34.62-3.9Z" transform="translate(-2.73 -40.57)" fill="#606161"/><path d="M153.14,265.09l-5.33,122a11.43,11.43,0,0,1-6.41,2.22c-4.47.26-5.28.58-8.5-2.35L118.8,259.78l34.62-3.9Z" transform="translate(-2.73 -40.57)" fill="url(#linear-gradient-12)"/><path d="M133.48,276.71l-14,118s-2,2.07-7.48,2.14c-6.24.08-6.8-.77-8.2-3.92L101.1,257.59l32.05,5.46Z" transform="translate(-2.73 -40.57)" fill="#606161"/><path d="M133.48,276.71l-14,118s-2,2.07-7.48,2.14c-6.24.08-6.8-.77-8.2-3.92L101.1,257.59l32.05,5.46Z" transform="translate(-2.73 -40.57)" fill="url(#linear-gradient-13)"/><path d="M137.88,264.92a73.33,73.33,0,0,1-13.46,3.15c-6,.62-12.41-2.31-17.19-2.55-6.35-.33-6.52-.53-6.52-4.67,0-2.08,52.74-7.07,52.74-7.07s-.24,3.81-.23,7.33c0,2.65-1.13,2.5-5.93,2.77S141.61,262.7,137.88,264.92Z" transform="translate(-2.73 -40.57)" fill="url(#linear-gradient-14)"/><path d="M117.07,171.78s-8.85,2.29-15.16,6.89c-3.9,2.84-1.2,82.18-1.2,82.18.38-.06,17.33,6.81,33.72,4,14-2.4,19-8.95,19-8.95s1.26-76.13-1.45-79.26c-1.22-1.4-14.49-6.3-14.49-6.3S131.68,179,117.07,171.78Z" transform="translate(-2.73 -40.57)" fill="#643518"/><rect x="109.77" y="169.32" width="32.76" height="43.89" rx="5.67" fill="#f2fbff"/><path d="M114.41,250.85v-38a2.93,2.93,0,0,1,2.93-2.93h-1.91a2.93,2.93,0,0,0-2.93,2.93v38a2.93,2.93,0,0,0,2.93,2.93h1.91A2.93,2.93,0,0,1,114.41,250.85Z" transform="translate(-2.73 -40.57)" fill="#d2e8ec"/><path d="M145,137a21.07,21.07,0,0,0-1.52-6.74h0s5-2.56,4,6.64.11,10-3.63,15l-.81-2C144,145.18,145.39,142.88,145,137Z" transform="translate(-2.73 -40.57)" fill="#606161"/><path d="M120,154.15l-2.89,17.63s6.48,9.49,14.67,8.08,6.16-5.25,6.16-5.25l-1.06-14.89S129.44,161,120,154.15Z" transform="translate(-2.73 -40.57)" fill="#c8a59c"/><path d="M118.94,160.34l1-6.19c9.48,6.88,14.38,3.95,14.38,3.95l2.29,8a7.67,7.67,0,0,1-4.87,2.33C127.22,168.77,122.63,165.22,118.94,160.34Z" transform="translate(-2.73 -40.57)" fill="#b58b81"/><path d="M117.41,169.66l-8.57,4s13.53,14.29,17.65,14c0,0,3.89-7.23,7.55-8.37Z" transform="translate(-2.73 -40.57)" fill="#f2fbff"/><path d="M151,176.13s7.29.81,11.41,28.1c3.82,25.27,7.88,35.06.09,39-10.77,5.41-15.26,3.91-15.26,3.91s-3.69-7.53-1.57-12.66c0,0,2.69-1,7.9-3.39l-.16-19.3S141,172.25,151,176.13Z" transform="translate(-2.73 -40.57)" fill="#643518"/><path d="M137.32,172.11a25.53,25.53,0,0,1-3.28,7.22c.8.31,6.05,4,6.14,6.45,0,0,5.21-11.8,3.06-13.66a54.91,54.91,0,0,0-5.55-2.46Z" transform="translate(-2.73 -40.57)" fill="#f2fbff"/><path d="M105.4,176.58s-13.28,4.29-14.79,25.49c-1.36,19.27-4.82,33.35-2,39.07,3.66,7.46,29.26,8.7,29.26,8.7a27.35,27.35,0,0,0-.46-11.17l-14-5.59S105.63,179.89,105.4,176.58Z" transform="translate(-2.73 -40.57)" fill="#643518"/><path d="M153.38,190.75l2.71,38.13c.24,3.34-5.71,5.37-5.71,5.37s1.17-18.61,1-19.5S152.9,193.48,153.38,190.75Z" transform="translate(-2.73 -40.57)" fill="url(#linear-gradient-15)"/><path d="M112.54,141.31c.7,9.79,10.73,27.07,20.51,26.37S145.66,146.75,145,137s-6.19-15.32-16-14.63A17.76,17.76,0,0,0,112.54,141.31Z" transform="translate(-2.73 -40.57)" fill="#c8a59c"/><path d="M120.74,122.93s3-5.19,12.15-4.18,11.31,7.49,13.73,6.49,6.84,2.83,3.83,7.19-7.9,5.54-13.91,2.65-13.5-3.19-15-1.42,2,19.78,2,19.78,0,.83-1.66.12-.61-11.59-4-12.18-3.69,6.93-1,9.2c2.08,1.76,2.5,7.78,2.5,7.78s-10.75-7.19-10-19.69S114.84,121.69,120.74,122.93Z" transform="translate(-2.73 -40.57)" fill="#606161"/><path d="M144.63,237.12a6.85,6.85,0,0,0-4.75-2c-2.86.05-5.27,1.05-9.4,1.34s-1.37,4.11-1.18,6.72-.41,5.84.47,6.61,15.68-1.12,17.22-2.89C147.71,246.08,147.22,238.6,144.63,237.12Z" transform="translate(-2.73 -40.57)" fill="#c8a59c"/><path d="M148.64,235.18s.56,10.74,1.65,11.5l-5.31,1.2a13.8,13.8,0,0,1-1.33-11.57Z" transform="translate(-2.73 -40.57)" fill="#f2fbff"/><circle cx="143.53" cy="197.55" r="1.01" fill="#d2e8ec"/><path d="M135.57,248.3c-.24-1.86.64-3.65.9-6.84s-1.8-4-4.82-4.33c-.82-.09-1.47-.2-2-.28-2.81.68-.57,4.09-.41,6.48s-.38,5.72.44,6.47c.34.31,2.92.17,5.92-.22A5,5,0,0,0,135.57,248.3Z" transform="translate(-2.73 -40.57)" fill="#b58b81"/><path d="M148.64,235.18s.56,10.74,1.65,11.5l-5.31,1.2a13.8,13.8,0,0,1-1.33-11.57Z" transform="translate(-2.73 -40.57)" fill="#f2fbff"/><circle cx="143.53" cy="197.55" r="1.01" fill="#d2e8ec"/><polygon points="102.67 153.94 98.6 191.2 103.38 193.41 102.67 153.94" fill="url(#linear-gradient-16)"/><path d="M112.45,249.35l-12.08-2,.34,13.46s1.33-11.93,5.9-10S112.45,249.35,112.45,249.35Z" transform="translate(-2.73 -40.57)" fill="url(#linear-gradient-17)"/><polygon points="153.47 189.75 145.66 194.37 150.97 192.51 153.47 189.75" fill="url(#linear-gradient-18)"/><path d="M137.43,157.58s-.27-.24-2.33-.1a30.28,30.28,0,0,1-7.25-.51c-1.58-.4-2.34-.16-2.19,2s1.84,4,6,4.22c4.65.25,6.6-1.5,7-3.59C138.87,158,138,157.54,137.43,157.58Z" transform="translate(-2.73 -40.57)" fill="#c8a59c"/><path d="M119.53,239a41.72,41.72,0,0,0,5.14-1.44c2.21-.83,2.9-.35,6.15,0s5.46,1.17,5.18,4.42-1.22,5.08-1,7-.35,3.53-3.18,3.6-12.33-2.83-12.33-2.83" transform="translate(-2.73 -40.57)" fill="#c8a59c"/><path d="M116.44,238.12h4.93s2.12,7.11-.64,12l-5.49-.2S117.13,243.05,116.44,238.12Z" transform="translate(-2.73 -40.57)" fill="#f2fbff"/><ellipse cx="116.2" cy="199.89" rx="1.08" ry="1.14" fill="#d2e8ec"/><polygon points="148.13 157.93 139.9 159.52 139.5 156.99 147.74 155.39 148.13 157.93" fill="#f2fbff"/><path d="M123.52,403.06a23.28,23.28,0,0,1,7.64,5.94c1.22,1.45,2.31,3.29,1.89,5.13a4.43,4.43,0,0,1-2.67,3,8,8,0,0,1-4.07.44,27.31,27.31,0,0,1-7-2.08c-4.34-1.72-8.71-3.53-12.47-6.29-1.78-1.31-3.52-3.05-3.67-5.26,0-.85.31-1.89,1.15-2a2.26,2.26,0,0,1,1.06.14,22.42,22.42,0,0,0,7.64.87,5.44,5.44,0,0,0,2.73-.78c.78-.49,1.31-1.53,2.3-1.62C119.51,400.33,122.2,402.42,123.52,403.06Z" transform="translate(-2.73 -40.57)" fill="#643518"/><path d="M131.68,395.81c0-.5.06-1.15.55-1.26a1,1,0,0,1,.68.14c1.87.94,3.35,2.62,5.35,3.25,3.07,1,6.5-1,8-3.87a1.18,1.18,0,0,1,.53-.61,1.1,1.1,0,0,1,.81.09,70.82,70.82,0,0,1,9.74,4.24c1.74,1,3.58,2.44,3.59,4.43a4.1,4.1,0,0,1-2.36,3.44,10.3,10.3,0,0,1-4.26.89A41.5,41.5,0,0,1,139,404.27c-2.11-.74-5.32-1.64-7-3.22C130.79,399.84,131.73,397.45,131.68,395.81Z" transform="translate(-2.73 -40.57)" fill="#643518"/><path d="M123.52,403.06a23.28,23.28,0,0,1,7.64,5.94c1.22,1.45,2.31,3.29,1.89,5.13a4.43,4.43,0,0,1-2.67,3,8,8,0,0,1-4.07.44,27.31,27.31,0,0,1-7-2.08c-4.34-1.72-8.71-3.53-12.47-6.29-1.78-1.31-3.52-3.05-3.67-5.26,0-.85.31-1.89,1.15-2a2.26,2.26,0,0,1,1.06.14,22.42,22.42,0,0,0,7.64.87,5.44,5.44,0,0,0,2.73-.78c.78-.49,1.31-1.53,2.3-1.62C119.51,400.33,122.2,402.42,123.52,403.06Z" transform="translate(-2.73 -40.57)" fill="url(#linear-gradient-19)"/><path d="M131.68,395.81c0-.5.06-1.15.55-1.26a1,1,0,0,1,.68.14c1.87.94,3.35,2.62,5.35,3.25,3.07,1,6.5-1,8-3.87a1.18,1.18,0,0,1,.53-.61,1.1,1.1,0,0,1,.81.09,70.82,70.82,0,0,1,9.74,4.24c1.74,1,3.58,2.44,3.59,4.43a4.1,4.1,0,0,1-2.36,3.44,10.3,10.3,0,0,1-4.26.89A41.5,41.5,0,0,1,139,404.27c-2.11-.74-5.32-1.64-7-3.22C130.79,399.84,131.73,397.45,131.68,395.81Z" transform="translate(-2.73 -40.57)" fill="url(#linear-gradient-20)"/></svg>