<svg id="Layer_1" data-name="Layer 1" xmlns="http://www.w3.org/2000/svg" xmlns:xlink="http://www.w3.org/1999/xlink" viewBox="0 0 513.51 354.11"><defs><linearGradient id="linear-gradient" x1="328.52" y1="275.07" x2="335.18" y2="557.93" gradientUnits="userSpaceOnUse"><stop offset="0" stop-color="#010101" stop-opacity="0"/><stop offset="0.95" stop-color="#010101"/></linearGradient><linearGradient id="linear-gradient-2" x1="101.25" y1="393.61" x2="106.24" y2="238.04" xlink:href="#linear-gradient"/><linearGradient id="linear-gradient-3" x1="455.28" y1="276.23" x2="464.57" y2="276.23" gradientUnits="userSpaceOnUse"><stop offset="0" stop-color="#e4c5d5"/><stop offset="0.42" stop-color="#e9d3cf"/><stop offset="1" stop-color="#efe8ca"/></linearGradient><linearGradient id="linear-gradient-4" x1="477.28" y1="222.77" x2="399.49" y2="269.77" xlink:href="#linear-gradient"/><linearGradient id="linear-gradient-5" x1="404.9" y1="203.55" x2="352.68" y2="421.21" xlink:href="#linear-gradient"/><linearGradient id="linear-gradient-6" x1="126.24" y1="330.59" x2="105.86" y2="268.2" xlink:href="#linear-gradient"/><linearGradient id="linear-gradient-7" x1="92.21" y1="300.67" x2="68.5" y2="284.04" xlink:href="#linear-gradient"/><linearGradient id="linear-gradient-8" x1="100.87" y1="144.68" x2="108.15" y2="166.72" gradientTransform="translate(6.36 -4.15) rotate(2.38)" xlink:href="#linear-gradient"/><linearGradient id="linear-gradient-9" x1="94.26" y1="158.04" x2="96.93" y2="158.04" xlink:href="#linear-gradient-3"/><linearGradient id="linear-gradient-10" x1="109.99" y1="157.58" x2="112.45" y2="157.58" xlink:href="#linear-gradient-3"/><linearGradient id="linear-gradient-11" x1="167.93" y1="305.97" x2="174.5" y2="305.97" gradientTransform="translate(79.27 100.95) rotate(-19.14)" xlink:href="#linear-gradient-3"/><linearGradient id="linear-gradient-12" x1="317.06" y1="332.01" x2="323.62" y2="332.01" gradientTransform="translate(-20.05 -38.61) rotate(6.89)" xlink:href="#linear-gradient-3"/><linearGradient id="linear-gradient-13" x1="253.36" y1="280.86" x2="321.58" y2="263.11" xlink:href="#linear-gradient"/><linearGradient id="linear-gradient-14" x1="301.01" y1="165.7" x2="311.53" y2="165.7" xlink:href="#linear-gradient-3"/><linearGradient id="linear-gradient-15" x1="308.92" y1="170.05" x2="288.95" y2="154.55" xlink:href="#linear-gradient"/><linearGradient id="linear-gradient-16" x1="289.48" y1="156.54" x2="310.83" y2="156.54" xlink:href="#linear-gradient-3"/><linearGradient id="linear-gradient-17" x1="282.23" y1="149.05" x2="312.79" y2="149.05" xlink:href="#linear-gradient"/><linearGradient id="linear-gradient-18" x1="289.71" y1="222.01" x2="338.18" y2="222.01" xlink:href="#linear-gradient-3"/><linearGradient id="linear-gradient-19" x1="255.46" y1="150.74" x2="274.88" y2="150.74" xlink:href="#linear-gradient-3"/><linearGradient id="linear-gradient-20" x1="370.2" y1="208.44" x2="425.8" y2="208.44" xlink:href="#linear-gradient-3"/><linearGradient id="linear-gradient-21" x1="423.01" y1="194.25" x2="464.1" y2="194.25" xlink:href="#linear-gradient-3"/><linearGradient id="linear-gradient-22" x1="386.86" y1="340.55" x2="395.04" y2="340.55" xlink:href="#linear-gradient-3"/><linearGradient id="linear-gradient-23" x1="186.79" y1="173.33" x2="189.08" y2="118.59" xlink:href="#linear-gradient"/><linearGradient id="linear-gradient-24" x1="220.2" y1="137.58" x2="206.34" y2="151.72" xlink:href="#linear-gradient"/><linearGradient id="linear-gradient-25" x1="192.02" y1="156.96" x2="198.05" y2="123.68" xlink:href="#linear-gradient"/><linearGradient id="linear-gradient-26" x1="211.89" y1="113.35" x2="208.98" y2="183.24" xlink:href="#linear-gradient"/><linearGradient id="linear-gradient-27" x1="-193.35" y1="-48.78" x2="-196.26" y2="21.1" gradientTransform="translate(213.31 -55.12) rotate(-90)" xlink:href="#linear-gradient"/><linearGradient id="linear-gradient-28" x1="367.45" y1="-293.55" x2="364.53" y2="-223.67" gradientTransform="translate(-55.12 -205.61) rotate(90)" xlink:href="#linear-gradient"/><linearGradient id="linear-gradient-29" x1="194.86" y1="171.79" x2="208.8" y2="120.42" xlink:href="#linear-gradient"/><linearGradient id="linear-gradient-30" x1="307.62" y1="153.69" x2="309.02" y2="153.69" xlink:href="#linear-gradient-3"/><linearGradient id="linear-gradient-31" x1="385.56" y1="162.64" x2="403.79" y2="162.64" xlink:href="#linear-gradient-3"/><linearGradient id="linear-gradient-32" x1="299.19" y1="147.17" x2="318.46" y2="147.17" gradientTransform="translate(61.18 70.21) rotate(-12.29)" xlink:href="#linear-gradient-3"/></defs><title>Partying 1</title><path d="M15.72,171.8c5.78-51.15,55.7-89,106.76-95.41,39-4.92,78.47,4.69,117.76,3.1,36-1.47,71.17-12.32,107.19-14s76,8.37,96,38.36c5.23,7.85,8.92,16.81,15.42,23.65,9,9.46,22.12,13.6,33,20.87,22.94,15.35,34.2,44.54,32.59,72.1s-14.56,53.44-31.59,75.16c-11.21,14.29-24.49,27.54-31,44.5-4,10.49-5.25,22-10.31,32.06-8,15.84-24.25,25.74-40.65,32.49A192.37,192.37,0,0,1,301,415.38c-18.2-3.61-35.79-9.86-53.94-13.72-36-7.65-73.19-5.75-109.87-3.2-21.07,1.47-42.49,3.11-63.09-1.49s-40.69-16.52-49.79-35.58c-12.35-25.86-12.72-67.35-12.78-96C11.43,235,12.33,201.85,15.72,171.8Z" transform="translate(-11.49 -64.89)" fill="#4299e1" opacity="0.24" style="isolation:isolate"/><path d="M16.14,171.38c5.77-51.15,55.69-89,106.76-95.4,39-4.92,78.47,4.69,117.76,3.09,36-1.46,71.17-12.32,107.19-14s76,8.37,96,38.37c5.24,7.84,8.93,16.8,15.43,23.64,9,9.46,22.11,13.61,33,20.87,22.94,15.36,34.21,44.54,32.6,72.1s-14.56,53.45-31.6,75.17c-11.2,14.28-24.49,27.54-31,44.49-4,10.5-5.26,22-10.31,32.06-8,15.84-24.25,25.74-40.65,32.49A192.38,192.38,0,0,1,301.38,415c-18.2-3.62-35.79-9.87-53.94-13.73-36-7.64-73.2-5.74-109.88-3.19-21.06,1.46-42.48,3.1-63.09-1.5S33.79,380,24.69,361C12.33,335.12,12,293.63,11.9,265,11.84,234.62,12.74,201.43,16.14,171.38Z" transform="translate(-11.49 -64.89)" fill="#4299e1" opacity="0.24" style="isolation:isolate"/><path d="M349.27,340.47l-54-1.29c-2.65-.06-5.4-.15-7.77-1.35-1.38-.7-2.56-1.74-4-2.37a15,15,0,0,0-5.66-.92l-52.29-1.65c-7.14-.22-15.82.4-19.1,6.75A446.57,446.57,0,0,0,273.92,348c2.95.14,6,.27,8.67,1.56s4.84,4.08,4.44,7a6.5,6.5,0,0,0-.21,2.47c.37,1.47,2.16,2,3.66,2.26,21.23,3.44,43-.87,64.42,1.47,5.14.56,10.26,1.51,15.43,1.38a74.88,74.88,0,0,0,13.13-1.89l46.94-9.63c7.89-1.62,15.81-3.24,23.42-5.9a50.25,50.25,0,0,0-11.19-1.94,970.76,970.76,0,0,0-102.74-4.2" transform="translate(-11.49 -64.89)" opacity="0.37" fill="url(#linear-gradient)"/><path d="M47.89,346.23c-3.94-.1-8.06-.15-11.59,1.6s-6.2,5.93-4.87,9.65l45.86,14.88c7.72,2.5,15.58,5,23.69,5.12,11.11.13,21.7-4.29,31.92-8.64L174,351.37c-1.79.76-10.9-3.15-13.58-3.47a98.71,98.71,0,0,0-16.13-.21c-8.79.37-17.42.46-26.23.24Z" transform="translate(-11.49 -64.89)" opacity="0.37" fill="url(#linear-gradient-2)"/><rect x="188.02" y="13.6" width="2.22" height="52.69" fill="#4299e1"/><path d="M457.27,283.92a1.28,1.28,0,0,0,.26.62,1.26,1.26,0,0,0,.82.29,10.34,10.34,0,0,0,3.19,0,3.5,3.5,0,0,0,2.53-1.78,5.34,5.34,0,0,0,.34-2.18l.16-13c-1-.8-2.5-.17-3.63.47-1.55.89-2.12,1.92-3.3,3.12-.71.73-1.89.72-2.24,1.68-.45,1.23.56,4.12.79,5.41Q456.67,281.25,457.27,283.92Z" transform="translate(-11.49 -64.89)" fill="url(#linear-gradient-3)"/><path d="M413.39,246.76c6.91.59,13.79-1.2,20.5-3L448.14,240a124.94,124.94,0,0,0,6,35.92l9.54-4.19a2.3,2.3,0,0,0,1.82-2.53L467,234.44c.14-3.28.16-6.92-2-9.42-2.44-2.84-6.67-3.08-10.42-3.11l-26.32-.18c-6.4,0-12.95-.07-19,2-4.5,1.51-14.27,7.16-12.81,13.05C398,243,408,246.29,413.39,246.76Z" transform="translate(-11.49 -64.89)" fill="#4299e1"/><path d="M413.39,246.76c6.91.59,13.79-1.2,20.5-3L448.14,240a124.94,124.94,0,0,0,6,35.92l9.54-4.19a2.3,2.3,0,0,0,1.82-2.53L467,234.44c.14-3.28.16-6.92-2-9.42-2.44-2.84-6.67-3.08-10.42-3.11l-26.32-.18c-6.4,0-12.95-.07-19,2-4.5,1.51-14.27,7.16-12.81,13.05C398,243,408,246.29,413.39,246.76Z" transform="translate(-11.49 -64.89)" opacity="0.37" fill="url(#linear-gradient-4)"/><path d="M375.94,250c-.26,29.65-.39,60.06,9.9,87.87a4.15,4.15,0,0,0,1.09,1.84,2.82,2.82,0,0,0,2.1.52,5.93,5.93,0,0,0,4.53-3.75,17.58,17.58,0,0,0,1.07-6c.94-16.66,1.72-33.37.69-50a31.19,31.19,0,0,1,0-6.11c.47-3.41,2.12-6.53,3.68-9.61,4.11-8.07,7.81-16.54,8.78-25.54.24-2.18,8.16-16.54,7.14-18.48-1.11-2.12-11.23,8.58-13.55,8a25.93,25.93,0,0,0-7.15-.4c-6.09.23-10.78.05-15.58,4.16C374.45,236,376,245,375.94,250Z" transform="translate(-11.49 -64.89)" fill="#4299e1"/><path d="M375.94,250c-.26,29.65-.39,60.06,9.9,87.87a4.15,4.15,0,0,0,1.09,1.84,2.82,2.82,0,0,0,2.1.52,5.93,5.93,0,0,0,4.53-3.75,17.58,17.58,0,0,0,1.07-6c.94-16.66,1.72-33.37.69-50a31.19,31.19,0,0,1,0-6.11c.47-3.41,2.12-6.53,3.68-9.61,4.11-8.07,7.81-16.54,8.78-25.54.24-2.18,8.78-17.58,7.77-19.52-1.12-2.12-12.66,2.87-15,2.29s-4,6.26-6.35,6.35c-6.09.23-10.78.05-15.58,4.16C374.45,236,376,245,375.94,250Z" transform="translate(-11.49 -64.89)" opacity="0.37" fill="url(#linear-gradient-5)"/><path d="M107.42,350.8a5.24,5.24,0,0,0,.18,2.93,1.45,1.45,0,0,0,1.19,1.27l3.07,1.07.67-1.13c1.49,1.84,4,2.4,6.38,2.57a24,24,0,0,0,8.65-.88c.72-.22,1.55-.6,1.69-1.35a1.56,1.56,0,0,0-.65-1.43,5.41,5.41,0,0,0-1.49-.72,40.84,40.84,0,0,1-5.77-3.14,17.81,17.81,0,0,0-6-2.49C112.92,347.12,108.24,348,107.42,350.8Z" transform="translate(-11.49 -64.89)" fill="#606161"/><path d="M109.12,349.37a1.92,1.92,0,0,0,.61,1.36A2,2,0,0,0,111,351a3.81,3.81,0,0,0,3-1,3.76,3.76,0,0,0,.72-2.17,11,11,0,0,1,.25-2.3,24.51,24.51,0,0,1-2.86.23,4.29,4.29,0,0,0-2.69,1C108.81,347.36,109,348.63,109.12,349.37Z" transform="translate(-11.49 -64.89)" fill="#ba816c"/><path d="M63.75,344.23a3,3,0,0,0,.38,1.4,4.39,4.39,0,0,0,1.69,1.78,2.92,2.92,0,0,0,1.86.43A3.25,3.25,0,0,0,69.89,346,13.07,13.07,0,0,0,71,340.7a.36.36,0,0,0,0-.23.28.28,0,0,0-.15-.06C68.23,339.87,63.74,340.93,63.75,344.23Z" transform="translate(-11.49 -64.89)" fill="#ba816c"/><path d="M123.11,249.82s2.08,31.61-.83,55.74a406.11,406.11,0,0,1-6.87,40.76s-6.44,1.46-7.07.63-5.82-32.45-5.82-38.69.41-19.13-.42-22.46-5.41-20.59-5.41-20.59l10.82-16.43Z" transform="translate(-11.49 -64.89)" fill="#606161"/><path d="M123.11,249.82s2.08,31.61-.83,55.74a406.11,406.11,0,0,1-6.87,40.76s-6.44,1.46-7.07.63-5.82-32.45-5.82-38.69.41-19.13-.42-22.46-5.41-20.59-5.41-20.59l10.82-16.43Z" transform="translate(-11.49 -64.89)" opacity="0.37" fill="url(#linear-gradient-6)"/><path d="M79.43,245.45s-9.15,40.77-11.85,62.19S64.46,342,64.46,342l6,1s20.17-44.09,24.12-58.24,10.2-30.16,10.2-30.16l.62-5.4Z" transform="translate(-11.49 -64.89)" fill="#606161"/><path d="M79.43,245.45s-9.15,40.77-11.85,62.19S64.46,342,64.46,342l6,1s20.17-44.09,24.12-58.24,10.2-30.16,10.2-30.16l.62-5.4Z" transform="translate(-11.49 -64.89)" opacity="0.37" fill="url(#linear-gradient-7)"/><path d="M110.91,145.08v7H95v-7a4.33,4.33,0,0,1,.18-1.24,5.18,5.18,0,0,1,5.05-4h5.5a5.17,5.17,0,0,1,4.87,3.4A4.59,4.59,0,0,1,110.91,145.08Z" transform="translate(-11.49 -64.89)" fill="#4299e1"/><path d="M110.91,145.08v7H95v-7a4.33,4.33,0,0,1,.18-1.24,35.89,35.89,0,0,1,7.53-1.09,35.07,35.07,0,0,1,7.89.53A4.59,4.59,0,0,1,110.91,145.08Z" transform="translate(-11.49 -64.89)" fill="#606161"/><ellipse cx="102.94" cy="150.96" rx="15.91" ry="6.45" transform="translate(-17.67 -60.49) rotate(-2.38)" fill="#4299e1"/><ellipse cx="102.94" cy="150.96" rx="15.91" ry="6.45" transform="translate(-17.67 -60.49) rotate(-2.38)" opacity="0.37" fill="url(#linear-gradient-8)"/><path d="M95.29,156.2a1.19,1.19,0,0,0-1,1.11,3.27,3.27,0,0,0,.39,1.58,2.82,2.82,0,0,0,.37.63.94.94,0,0,0,.63.35c.45,0,.82-.39,1-.81a2,2,0,0,0,.11-1.76A2.09,2.09,0,0,0,95.29,156.2Z" transform="translate(-11.49 -64.89)" fill="url(#linear-gradient-9)"/><path d="M111.87,155.74a1.28,1.28,0,0,1,.58,1.11,4,4,0,0,1-.16,1.2,2.59,2.59,0,0,1-.45,1,1.2,1.2,0,0,1-.93.49.79.79,0,0,1-.31-.08c-.37-.23-.41-.91-.5-1.29a2,2,0,0,1-.07-1C110.2,156.47,111,155.23,111.87,155.74Z" transform="translate(-11.49 -64.89)" fill="url(#linear-gradient-10)"/><path d="M339,337.15a2.43,2.43,0,0,0,3.17,1.94,3.85,3.85,0,0,0,2-.5,2.94,2.94,0,0,0,1.12-2.54,8.55,8.55,0,0,0-.74-2.79l-1.35-3.48a2.16,2.16,0,0,0-.5-.87,2,2,0,0,0-1.54-.42c-1.84.09-3.29.43-3.34,2.35A22.39,22.39,0,0,0,339,337.15Z" transform="translate(-11.49 -64.89)" fill="url(#linear-gradient-11)"/><path d="M341.74,337.79c-.66.19-1.37.14-2,.32a6.13,6.13,0,0,0-2.35,1.5,29.18,29.18,0,0,0-6.2,6.79c-.45.77-.76,1.92,0,2.44a1.93,1.93,0,0,0,1.55.07,65.88,65.88,0,0,0,7.95-2.71,8.4,8.4,0,0,0,3.88-2.38c.41-.55.82-1.26,1.5-1.27.3,0,.59.14.89.16,2.64.14.59-4.23-.17-5.18C345.24,335.66,343.49,337.29,341.74,337.79Z" transform="translate(-11.49 -64.89)" fill="#606161"/><path d="M254.64,331.36a2.41,2.41,0,0,0,2,3.13,3.92,3.92,0,0,0,2,.42,2.89,2.89,0,0,0,2.12-1.78,8.79,8.79,0,0,0,.56-2.83l.31-3.73a2.25,2.25,0,0,0-.06-1,2.1,2.1,0,0,0-1.21-1.05c-1.69-.72-3.14-1.06-4,.65A22.66,22.66,0,0,0,254.64,331.36Z" transform="translate(-11.49 -64.89)" fill="url(#linear-gradient-12)"/><path d="M278.57,241.86q-3.88,10.27-7.26,20.72c-3.8,11.71-7.16,23.56-10.51,35.4A200.72,200.72,0,0,0,255,322.09c-.42,2.75-.33,6.26,2.2,7.41a4.56,4.56,0,0,0,4.84-1.17,13.68,13.68,0,0,0,2.71-4.51c8.62-19.68,18.56-39.29,33.85-54.37,3.3-3.25,6.83-6.28,9.77-9.85a40.64,40.64,0,0,0,7.94-35.12,3.32,3.32,0,0,0-.75-1.62,3.47,3.47,0,0,0-2.35-.67l-13.08-.45c-3.41-.12-8.81-1.39-12.05-.38-2.76.86-3.74,6-4.77,8.43Q280.88,235.79,278.57,241.86Z" transform="translate(-11.49 -64.89)" fill="#606161"/><path d="M278.57,241.86q-3.88,10.27-7.26,20.72c-3.8,11.71-7.16,23.56-10.51,35.4A200.72,200.72,0,0,0,255,322.09c-.42,2.75-.33,6.26,2.2,7.41a4.56,4.56,0,0,0,4.84-1.17,13.68,13.68,0,0,0,2.71-4.51c8.62-19.68,18.56-39.29,33.85-54.37,3.3-3.25,6.83-6.28,9.77-9.85a40.64,40.64,0,0,0,7.94-35.12,3.32,3.32,0,0,0-.75-1.62,3.47,3.47,0,0,0-2.35-.67l-13.08-.45c-3.41-.12-8.81-1.39-12.05-.38-2.76.86-3.74,6-4.77,8.43Q280.88,235.79,278.57,241.86Z" transform="translate(-11.49 -64.89)" opacity="0.37" fill="url(#linear-gradient-13)"/><path d="M306.85,282.15c7.5,16.81,15.33,33.74,27,48a12.26,12.26,0,0,0,4.26,3.73c1.75.76,4.06.58,5.24-.92.93-1.19.94-2.84.86-4.34a82,82,0,0,0-3.86-21.17c-4.26-13.24-11.91-25.54-13.49-39.36a92.44,92.44,0,0,1-.15-14.22l.65-16.08c.12-3,.23-6-.76-8.83-1.47-4.2-5.25-7.27-9.38-8.92s-8.63-2.07-13.07-2.43c-2.73-.23-5.65-.39-8,1-3.94,2.28-2.11,7.46-2.21,11.14-.16,6.14-.2,11.94.93,18C297.06,259.75,301.91,271.07,306.85,282.15Z" transform="translate(-11.49 -64.89)" fill="#606161"/><path d="M321.52,173.32c2,3.8,2.52,8.22,2.9,12.51.91,10.46,1.44,20.94,2,31.42a5.6,5.6,0,0,1-.36,2.88,4.86,4.86,0,0,1-2.67,2,31.33,31.33,0,0,1-10.42,1.77,127.78,127.78,0,0,1-22.71-1.12,6.37,6.37,0,0,1-2.87-.9c-1.33-.95-2.89-3-2-4.34,13.45-21.2-1.32-29.29,5.89-41.65,1.73-3,3.89-5.83,6.89-7.53C305.39,164.27,317.33,165.53,321.52,173.32Z" transform="translate(-11.49 -64.89)" fill="#4299e1"/><path d="M311.53,166.92a4.26,4.26,0,0,1-.83,2.33,9.91,9.91,0,0,1-4.25,4.23,3,3,0,0,1-2.72,0h0a1.57,1.57,0,0,1-.35-.33,3.14,3.14,0,0,1-.59-1.45c-.48-2-.95-4.07-1.42-6.14a9.07,9.07,0,0,1-.27-1.3,5.67,5.67,0,0,1-.06-.71c0-2.33,1.86-4.37,3.75-5.56,2.22-1.38,3.34,1.48,4.29,3.14a30.07,30.07,0,0,1,2.13,4.43A4.73,4.73,0,0,1,311.53,166.92Z" transform="translate(-11.49 -64.89)" fill="url(#linear-gradient-14)"/><path d="M308.78,163.17a27.09,27.09,0,0,1-1,4.63,10.47,10.47,0,0,1-2.45,4.64,4,4,0,0,1-1.6,1h0a1.57,1.57,0,0,1-.35-.33,3.14,3.14,0,0,1-.59-1.45c-.48-2-.95-4.07-1.42-6.14a9.07,9.07,0,0,1-.27-1.3,1.57,1.57,0,0,1,.3-.33,7.79,7.79,0,0,1,2.42-1.38,8.63,8.63,0,0,1,2.48-.68C307.31,161.75,308.9,161.84,308.78,163.17Z" transform="translate(-11.49 -64.89)" opacity="0.37" fill="url(#linear-gradient-15)"/><path d="M291.16,158.34c1.32,3.14,2.8,6.38,5.48,8.49a6.33,6.33,0,0,0,7.89.24,18.53,18.53,0,0,0,4.34-4.14,8.69,8.69,0,0,0,1.67-2.67,8.38,8.38,0,0,0,.28-2.87c-.06-3.15-.37-6.54-2.43-8.92a12,12,0,0,0-2.77-2.23,9.46,9.46,0,0,0-2.41-1.18,10.74,10.74,0,0,0-2.72-.27,17.53,17.53,0,0,0-6.73.89,6.35,6.35,0,0,0-4.25,5.53,14.78,14.78,0,0,0,.1,3A21.67,21.67,0,0,0,291.16,158.34Z" transform="translate(-11.49 -64.89)" fill="url(#linear-gradient-16)"/><path d="M293.78,138.91c-1.76.56-3.38,1.48-5.13,2.06s-3.59.84-4.92,2a5.22,5.22,0,0,0-.85,6.22,7.36,7.36,0,0,0,5.47,3.55,12.77,12.77,0,0,0,6.61-1.05,9.7,9.7,0,0,1,1.81-.63,10,10,0,0,1,3.85.51,4.35,4.35,0,0,0,3.74-.49l2.1,3.82a7.52,7.52,0,0,0,.35-3.49,2,2,0,0,1,2.27,1.43,3.72,3.72,0,0,1-.4,2.85,15.45,15.45,0,0,1,2.08,3.8,8,8,0,0,0,1.15-9c-.71-1.33-1.82-2.49-2.15-4-.16-.73-.11-1.49-.25-2.23a6.18,6.18,0,0,0-4-4.39c-2.05-.78-4.11-.29-6.15-.76S295.94,138.23,293.78,138.91Z" transform="translate(-11.49 -64.89)" fill="#606161"/><path d="M293.78,138.91c-1.76.56-3.38,1.48-5.13,2.06s-3.59.84-4.92,2a5.22,5.22,0,0,0-.85,6.22,7.36,7.36,0,0,0,5.47,3.55,12.77,12.77,0,0,0,6.61-1.05,9.7,9.7,0,0,1,1.81-.63,10,10,0,0,1,3.85.51,4.35,4.35,0,0,0,3.74-.49l2.1,3.82a7.52,7.52,0,0,0,.35-3.49,2,2,0,0,1,2.27,1.43,3.72,3.72,0,0,1-.4,2.85,15.45,15.45,0,0,1,2.08,3.8,8,8,0,0,0,1.15-9c-.71-1.33-1.82-2.49-2.15-4-.16-.73-.11-1.49-.25-2.23a6.18,6.18,0,0,0-4-4.39c-2.05-.78-4.11-.29-6.15-.76S295.94,138.23,293.78,138.91Z" transform="translate(-11.49 -64.89)" opacity="0.37" fill="url(#linear-gradient-17)"/><path d="M339,193.5c.78,1.45,3.39,7,3.54,8.67s-5,6.81-6.33,7.84a2,2,0,0,1-1.4.51,2.71,2.71,0,0,1-1-.44c-4.2-2.63-5.6-12.69-9.3-16a29.61,29.61,0,0,1-8.54-12c-1-2.88-5.67-12.32-2.61-14.35s13.89,7.12,15.8,9C334.44,182,335.44,186.91,339,193.5Z" transform="translate(-11.49 -64.89)" fill="#4299e1"/><path d="M297.61,231.48a3.39,3.39,0,0,1-1.53.83c-1.56.24-3.47-1.5-4.47-.28-.84,1,.54,2.41,1.73,3a50,50,0,0,0-3.14,6c-.47,1.08-.84,2.51.05,3.29a2.54,2.54,0,0,0,1.81.45,9.48,9.48,0,0,0,7.48-4.4,21.65,21.65,0,0,1,2-3.23,10.17,10.17,0,0,1,2.34-1.72,239.57,239.57,0,0,0,21.3-14.41,48.81,48.81,0,0,0,8.43-7.61,19,19,0,0,0,4.59-10.23c.21-2.29-7.64-4.79-8.73-3.84-1.52,1.33-3,2.72-4.44,4.13-6,5.86-11.3,12.31-17.07,18.34A106.75,106.75,0,0,1,297.61,231.48Z" transform="translate(-11.49 -64.89)" fill="url(#linear-gradient-18)"/><path d="M274.28,170.11c-1.86-.33-4-.62-5.4.7a4,4,0,0,0-.94,1.65,7.71,7.71,0,0,0,1.34,6.68,14.89,14.89,0,0,0,5.48,4.35c4.09,2.07,14,3.07,18.48,2.32,3.46-.57,1.71-2.27,3.43-5.32a7.94,7.94,0,0,0,.57-6.41c-.91-2.55,4-6.1,1.53-6.06C292.6,168.13,280.36,171.19,274.28,170.11Z" transform="translate(-11.49 -64.89)" fill="#4299e1"/><path d="M262.45,128.19a11.64,11.64,0,0,0-.76-3.42,3.83,3.83,0,0,0-2.51-2.27l.63,5.67a1.63,1.63,0,0,1,0,.73c-.23.63-1.08.69-1.73.86a3.93,3.93,0,0,0-2.57,4.1,7.79,7.79,0,0,0,2.31,4.59,3.07,3.07,0,0,1,.74,1,3,3,0,0,1,.12,1,121.44,121.44,0,0,0,.72,18.49c.88,6.11,2.8,12.18,6.43,17.18a7.89,7.89,0,0,0,2.09,2.14,4.69,4.69,0,0,0,5.48-.51c2-1.81,1.82-4.86.69-7a91.93,91.93,0,0,1-4.45-9.35,107.74,107.74,0,0,1-5.44-20.93C263.48,136.41,262.94,132.3,262.45,128.19Z" transform="translate(-11.49 -64.89)" fill="url(#linear-gradient-19)"/><path d="M257.24,332.8c-.69-.08-1.32-.4-2-.5a6.12,6.12,0,0,0-2.75.49,28.69,28.69,0,0,0-8.34,3.86c-.71.54-1.44,1.48-1,2.24a1.89,1.89,0,0,0,1.4.66,65.18,65.18,0,0,0,8.38.58,8.56,8.56,0,0,0,4.5-.7c.59-.34,1.24-.84,1.87-.59a8.9,8.9,0,0,1,.76.49c2.39,1.16,2.19-3.67,1.86-4.84C261.29,332.19,259,333,257.24,332.8Z" transform="translate(-11.49 -64.89)" fill="#606161"/><path d="M83,183.82c-4.58,5.27-3.72,13.15-2.93,20.08,1.28,11.18,1.68,22.53,0,33.66-.6,3.94-1.38,8.28.71,11.68,1.9,3.08,5.64,4.44,9.16,5.26a87.85,87.85,0,0,0,18.81,1.91c4.83.06,10.16-.27,13.65-3.62s4-8.71,3.92-13.55c-.31-11.79-3.34-23.56-1.9-35.27.59-4.81,1.93-9.64,1.15-14.42-1-6.36-5.88-11.74-11.78-14.33-4.74-2.09-13.72-3.81-18.6-1.18-2,1.09-3.73,3.5-5.72,4.85C87.26,180.41,84.85,181.74,83,183.82Z" transform="translate(-11.49 -64.89)" fill="#4299e1"/><path d="M99.06,175.06a3.47,3.47,0,0,0,.69,1.95c.55.65.17,2.84,1,3s2.32,1.75,3,1.61,1.73-3.94,2.08-4.57a4,4,0,0,0,.18-2.57l-.7-4.66a2.89,2.89,0,0,0-.64-1.7c-1-1-3.94-1.3-4.6.21a16.53,16.53,0,0,0-.64,3A12.51,12.51,0,0,0,99.06,175.06Z" transform="translate(-11.49 -64.89)" fill="#ba816c"/><path d="M95.89,162.15a14.19,14.19,0,0,0,.65,4.82,10.22,10.22,0,0,0,3.18,4.11,5.69,5.69,0,0,0,3.29,1.58,5,5,0,0,0,3.38-1.39,12.82,12.82,0,0,0,3.9-6.73,29.94,29.94,0,0,0,.62-7.85c-.07-2.66-.47-5.7-2.67-7.18a6.94,6.94,0,0,0-2.73-1c-2.82-.51-7.38-.24-9,2.62-.71,1.21-.57,3-.61,4.3C95.8,157.68,95.85,159.91,95.89,162.15Z" transform="translate(-11.49 -64.89)" fill="#ba816c"/><path d="M66.42,199.4c-3.86,3.56-7.94,7.53-8.76,12.71a15.85,15.85,0,0,0,1.92,9.65,46.56,46.56,0,0,0,5.8,8.12l5.19,6.28a5.33,5.33,0,0,0,3,2.23c1.94.29,3.59-1.74,3.71-3.71s-.8-3.81-1.58-5.62a97.18,97.18,0,0,1-4.6-14.61,2.06,2.06,0,0,1-.08-1.07,2.09,2.09,0,0,1,1.15-1.09A43,43,0,0,0,81.76,206c2.79-2.64,4.92-6.18,5.09-10,.14-3.33,1.54-15.22-2.84-13.23-2.27,1-8.9,8.65-10.73,10.34Z" transform="translate(-11.49 -64.89)" fill="#4299e1"/><path d="M146.82,136.26c3,2.59,4.07,4.35,2.89,8.14s-3.73,7-6.13,10.15c-8.24,10.85-12.87,30.16-18.8,42.42-.71,1.46-4.34-4.47-6-4.64a3.72,3.72,0,0,1-1.74-.84c-2.46-1.85-13.29-18.5-10.21-18.54,9.37-.1,13.79-4.14,18.1-9.88C131.77,154,138.93,144.36,146.82,136.26Z" transform="translate(-11.49 -64.89)" fill="#4299e1"/><path d="M152.43,127.23c.91-1.7,1.92-3.51,3.67-4.32,0,2.25-1.26,4.29-2.49,6.18a3.52,3.52,0,0,1,3.68,5.65,15,15,0,0,1-2.35,1.82c-.95.74-1.68,1.72-2.55,2.55a4.69,4.69,0,0,1-3.19,1.51c-3.7-.09-1.89-3.75-1-5.49Z" transform="translate(-11.49 -64.89)" fill="#ba816c"/><path d="M77.23,235.47a16.24,16.24,0,0,1,2.65,2.85,5.44,5.44,0,0,1,1,3.68c-.29,2.17-2.22,3.69-4,5a2.26,2.26,0,0,1-1.5.61,2.34,2.34,0,0,1-1.37-1l-1.4-1.69A1.87,1.87,0,0,1,72,243.3c.23-.82,1.36-.91,2.2-.76a.85.85,0,0,0,.5,0,.66.66,0,0,0,.32-.79,2.48,2.48,0,0,0-.48-.81,5.78,5.78,0,0,1-.88-4.89c.16-.62.54-1.95,1.24-2.16S76.69,235,77.23,235.47Z" transform="translate(-11.49 -64.89)" fill="#ba816c"/><path d="M60.63,343.79a59.92,59.92,0,0,1-6.7-.1,10.75,10.75,0,0,0-2.89.05,3.15,3.15,0,0,0-2.26,1.65c-.18.4-.27.89-.65,1.13a4.07,4.07,0,0,0-.55.28.75.75,0,0,0-.1.94,2.11,2.11,0,0,0,.74.68,23.72,23.72,0,0,0,12.69,4.24c.58,0,1.34-.18,1.37-.76a1.43,1.43,0,0,0,.9,1.17,4.38,4.38,0,0,0,1.53.24l3.15.11a1.82,1.82,0,0,0,2.27-2.08l.31-3a4.47,4.47,0,0,0,0-1.71,1.49,1.49,0,0,0-1.18-1.12,3.13,3.13,0,0,0-1.11.22,3.89,3.89,0,0,1-3.71-1.17C63.32,343.53,62.07,343.73,60.63,343.79Z" transform="translate(-11.49 -64.89)" fill="#606161"/><path d="M389,166.15c-4.15,1-8.77,2.58-10.5,6.48-1.39,3.12-.46,6.7.24,10,3.24,15.36-1.83,31.35-3.56,47-.29,2.6-.84,6.44,2.7,6.65,3.91.23,47.37-9.31,44.3-15-2.7-5-3.44-6.85-3.33-11.61l.27-11c.11-4.72.22-9.5-.85-14.1A28.34,28.34,0,0,0,408.11,169c-2.33-1.83-5.5-4-8.48-4.55C396.31,163.82,392.28,165.37,389,166.15Z" transform="translate(-11.49 -64.89)" fill="#f4f4f6"/><path d="M424.15,181.45c2.52,5.8,2.22,12.58,5.09,18.22a8.39,8.39,0,0,1,1.13,2.91c.22,2.58-2.38,4.34-4.08,6.28a10.72,10.72,0,0,0-2.37,9.09c-3.42,1.08-6.85-1.79-8.69-4.87-5.44-9.13-3.78-20.65-5.87-31.06a43.42,43.42,0,0,0-4.24-11.79c-.47-.87-2.41-3.24-1.05-4.16.79-.54,3.75,1.13,4.51,1.47C415.05,170.38,421.26,174.78,424.15,181.45Z" transform="translate(-11.49 -64.89)" fill="#f4f4f6"/><path d="M373.26,175c-2.36,2.6-3.32,6.15-3.95,9.6a69.67,69.67,0,0,0-.23,23.45c2-.15,3.67-1.57,5.49-2.44a10.36,10.36,0,0,1,7.06-.63,122.21,122.21,0,0,1,2.64-22.87,18,18,0,0,0,.61-4.88C384.44,170.65,376.76,171.14,373.26,175Z" transform="translate(-11.49 -64.89)" fill="#f4f4f6"/><path d="M374.27,216.7c2.47,1.65,5.58,2,8.54,2,7.91-.15,15.5-2.93,22.82-5.93,2.82-1.15,5.81-2.37,8.83-1.91a3.75,3.75,0,0,0,2,0,4.57,4.57,0,0,0,1-.84c1.33-1.24,3.18-1.72,4.77-2.6a6.91,6.91,0,0,0,3.27-3.58,4.18,4.18,0,0,0-1.08-4.53,5.1,5.1,0,0,0-2.71-1c-3.49-.4-6.94,1-10,2.75a16.71,16.71,0,0,1-2.61,1.38,14,14,0,0,1-2.65.64c-5.8,1-11.64,2-17.52,1.82-3.14-.09-6.27-.52-9.41-.51a21.91,21.91,0,0,0-5.76.71c-1.92.53-3.43.91-3.61,3A9.53,9.53,0,0,0,374.27,216.7Z" transform="translate(-11.49 -64.89)" fill="url(#linear-gradient-20)"/><path d="M427.82,220.61a10.6,10.6,0,0,0,6-2.41c7-5.08,11.16-13.06,14.73-20.91,1.85-4.06,3.63-8.21,6.31-11.78s6.56-6.77,8.5-11c1-2.13,1.15-5.19-.92-6.29-1.77-.94-3.9.27-5.46,1.55s-3.33,2.77-5.31,2.39a2.05,2.05,0,0,0-1.12-.07c-.7.28-.63,1.26-.51,2,.73,4.44-1.35,8.93-4.3,12.32s-6.73,5.93-10.23,8.75a39.42,39.42,0,0,0-9.13,9.81C424.07,208.81,419.45,220.57,427.82,220.61Z" transform="translate(-11.49 -64.89)" fill="url(#linear-gradient-21)"/><path d="M461.43,281.83a12.16,12.16,0,0,0-2.7.05,2,2,0,0,0-1.67,1.84,2.64,2.64,0,0,0,.61,1.27,3.16,3.16,0,0,0,.58.68,3,3,0,0,0,2.06.48,18.58,18.58,0,0,0,2.56-.37,2.27,2.27,0,0,0,1-.4,2.12,2.12,0,0,0,.57-1.05c.19-.61.77-2.54.07-3-.31-.22-1,.21-1.35.29A6.55,6.55,0,0,1,461.43,281.83Z" transform="translate(-11.49 -64.89)" fill="#f4f4f6"/><path d="M472.05,287c-1.55-.71-3-1.64-4.55-2.33a8.2,8.2,0,0,0-5-.76c-1.2.26-2.29.92-3.5,1.09a4,4,0,0,0-1.33.29c-.79.44-.92,1.5-.95,2.4-.07,1.83-.06,3.87,1.21,5.18a6,6,0,0,0,2.53,1.38c2.33.74,5,1.06,7.11-.22.48,1,1.93,1.1,3.08,1l4-.37a6.72,6.72,0,0,0,2.13-.42,3.51,3.51,0,0,0,2-2.46C479.7,287.72,474.59,288.19,472.05,287Z" transform="translate(-11.49 -64.89)" fill="#606161"/><path d="M387.31,344.89a1,1,0,0,0,.15.56.92.92,0,0,0,.44.25,12.66,12.66,0,0,0,4.41.66,2.12,2.12,0,0,0,2.34-2.05,22.1,22.1,0,0,0,.27-6.6c-.06-1-.22-2.21-1.1-2.73a2.67,2.67,0,0,0-2.08-.09c-1.52.41-3.86,1.5-4.54,3.05C386.43,339.72,387.2,343,387.31,344.89Z" transform="translate(-11.49 -64.89)" fill="url(#linear-gradient-22)"/><path d="M387.33,343.91a1,1,0,0,0-.59.23,1,1,0,0,0-.19.42,5.28,5.28,0,0,0,.84,4.24.77.77,0,0,0,.33.29.86.86,0,0,0,.32,0,72.45,72.45,0,0,0,7.18-1.14,3.49,3.49,0,0,0,2-.91,2.4,2.4,0,0,0,.22-2.48c-1-2.25-2.09-1.88-4.18-1.56Z" transform="translate(-11.49 -64.89)" fill="#f4f4f6"/><path d="M396.62,345.91a9.81,9.81,0,0,0-4.94-.41l-4.72.43a4.53,4.53,0,0,0-1.51.32,4.68,4.68,0,0,0-1.43,1.27,32.86,32.86,0,0,1-6.14,5.46,6.22,6.22,0,0,0-1.68,1.42,2,2,0,0,0-.23,2.08,2.68,2.68,0,0,0,2.34.92,22.49,22.49,0,0,0,14.27-4.67,1.42,1.42,0,0,1,.94-.42,1.81,1.81,0,0,1,.8.39,2.94,2.94,0,0,0,3.09,0C399.85,351.14,399.05,347,396.62,345.91Z" transform="translate(-11.49 -64.89)" fill="#606161"/><path d="M181.91,150.31c0,14.69,8.21,26.68,18.49,27.42a27.44,27.44,0,0,1,0-54.84C190.12,123.63,181.91,135.63,181.91,150.31Z" transform="translate(-11.49 -64.89)" fill="#4299e1"/><path d="M228.92,150.31a27.43,27.43,0,0,1-26.51,27.42c10.31-.74,18.53-12.73,18.53-27.42s-8.22-26.68-18.53-27.42A27.43,27.43,0,0,1,228.92,150.31Z" transform="translate(-11.49 -64.89)" fill="#4299e1"/><path d="M192.78,150.31c0,14.57,3.28,26.51,7.42,27.39-10.2-.88-18.29-12.79-18.29-27.39s8.09-26.5,18.29-27.39C196.06,123.81,192.78,135.75,192.78,150.31Z" transform="translate(-11.49 -64.89)" fill="#4299e1"/><path d="M220.94,150.31c0,14.69-8.22,26.68-18.53,27.42-.32,0-.68,0-1,0a3.08,3.08,0,0,1-.53,0,.23.23,0,0,0,.2,0c4.2-.74,7.51-12.73,7.51-27.42s-3.31-26.68-7.51-27.42a.23.23,0,0,0-.2,0,3.08,3.08,0,0,1,.53,0c.32,0,.68,0,1,0C212.72,123.63,220.94,135.63,220.94,150.31Z" transform="translate(-11.49 -64.89)" fill="#4299e1"/><path d="M208.59,150.31c0,14.69-3.31,26.68-7.51,27.42a.23.23,0,0,1-.2,0,2.57,2.57,0,0,1-.48,0s-.08,0-.11,0a.11.11,0,0,1-.09,0c-4.14-.88-7.42-12.82-7.42-27.39s3.28-26.5,7.42-27.39a.11.11,0,0,1,.09,0s.08,0,.11,0a2.57,2.57,0,0,1,.48,0,.23.23,0,0,1,.2,0C205.28,123.63,208.59,135.63,208.59,150.31Z" transform="translate(-11.49 -64.89)" fill="#4299e1"/><path d="M181.91,150.31c0,14.69,8.21,26.68,18.49,27.42a27.44,27.44,0,0,1,0-54.84C190.12,123.63,181.91,135.63,181.91,150.31Z" transform="translate(-11.49 -64.89)" opacity="0.37" fill="url(#linear-gradient-23)"/><path d="M228.92,150.31a27.43,27.43,0,0,1-26.51,27.42c10.31-.74,18.53-12.73,18.53-27.42s-8.22-26.68-18.53-27.42A27.43,27.43,0,0,1,228.92,150.31Z" transform="translate(-11.49 -64.89)" opacity="0.37" fill="url(#linear-gradient-24)"/><path d="M192.78,150.31c0,14.57,3.28,26.51,7.42,27.39-10.2-.88-18.29-12.79-18.29-27.39s8.09-26.5,18.29-27.39C196.06,123.81,192.78,135.75,192.78,150.31Z" transform="translate(-11.49 -64.89)" opacity="0.37" fill="url(#linear-gradient-25)"/><path d="M220.94,150.31c0,14.69-8.22,26.68-18.53,27.42-.32,0-.68,0-1,0a3.08,3.08,0,0,1-.53,0,.23.23,0,0,0,.2,0c4.2-.74,7.51-12.73,7.51-27.42s-3.31-26.68-7.51-27.42a.23.23,0,0,0-.2,0,3.08,3.08,0,0,1,.53,0c.32,0,.68,0,1,0C212.72,123.63,220.94,135.63,220.94,150.31Z" transform="translate(-11.49 -64.89)" opacity="0.37" fill="url(#linear-gradient-26)"/><path d="M201.48,129.19c14.68,0,26.68,8.21,27.42,18.52,0,.33,0,.68,0,1a3.14,3.14,0,0,1,0,.53.25.25,0,0,0,0-.21c-.74-4.19-12.74-7.5-27.42-7.5s-26.68,3.31-27.42,7.5a.25.25,0,0,0,0,.21,3.14,3.14,0,0,1,0-.53c0-.33,0-.68,0-1C174.8,137.4,186.79,129.19,201.48,129.19Z" transform="translate(-11.49 -64.89)" opacity="0.37" fill="url(#linear-gradient-27)"/><path d="M201.48,170.88c-14.69,0-26.68-8.21-27.42-18.53,0-.32,0-.67,0-1a3.14,3.14,0,0,1,0-.53.25.25,0,0,0,0,.21c.74,4.19,12.73,7.5,27.42,7.5s26.68-3.31,27.42-7.5a.25.25,0,0,0,0-.21,3.14,3.14,0,0,1,0,.53c0,.33,0,.68,0,1C228.16,162.67,216.16,170.88,201.48,170.88Z" transform="translate(-11.49 -64.89)" opacity="0.37" fill="url(#linear-gradient-28)"/><path d="M208.59,150.31c0,14.69-3.31,26.68-7.51,27.42a.23.23,0,0,1-.2,0,2.57,2.57,0,0,1-.48,0s-.08,0-.11,0a.11.11,0,0,1-.09,0c-4.14-.88-7.42-12.82-7.42-27.39s3.28-26.5,7.42-27.39a.11.11,0,0,1,.09,0s.08,0,.11,0a2.57,2.57,0,0,1,.48,0,.23.23,0,0,1,.2,0C205.28,123.63,208.59,135.63,208.59,150.31Z" transform="translate(-11.49 -64.89)" opacity="0.37" fill="url(#linear-gradient-29)"/><path d="M200.88,122.89a2.57,2.57,0,0,0-.48,0,.83.83,0,0,1,.27,0A.51.51,0,0,1,200.88,122.89Z" transform="translate(-11.49 -64.89)" fill="#4299e1"/><path d="M200.4,177.73a2.57,2.57,0,0,0,.48,0,.51.51,0,0,1-.21,0A.83.83,0,0,1,200.4,177.73Z" transform="translate(-11.49 -64.89)" fill="#4299e1"/><path d="M97.58,151.23c-.2.54-.55,1-.8,1.54a9.35,9.35,0,0,0-.72,4.3,3.44,3.44,0,0,1-.21,1.5L95.7,157a1.36,1.36,0,0,0-.18-.66.48.48,0,0,0-.59-.21,7.65,7.65,0,0,1-.42-2.85,3.71,3.71,0,0,1,.15-1,4.23,4.23,0,0,1,.79-1.38,5.39,5.39,0,0,1,1.22-1.21c.26-.18,1.46-.87,1.5-.21,0,.22-.26.62-.33.83S97.69,150.94,97.58,151.23Z" transform="translate(-11.49 -64.89)" fill="#606161"/><path d="M108,150.9a1.79,1.79,0,0,1,.63.28,1.51,1.51,0,0,1,.4.59,17.08,17.08,0,0,1,1.54,7.07,2.65,2.65,0,0,0,.43-2.27c0-.39.07-.92.45-.92a6.91,6.91,0,0,0-1.38-5.06,6.73,6.73,0,0,0-5.11-2.66c-1.23,0-.17,1,.31,1.39A8.78,8.78,0,0,0,108,150.9Z" transform="translate(-11.49 -64.89)" fill="#606161"/><path d="M96.23,173.91a16.94,16.94,0,0,0-2.31,6.71.69.69,0,0,0,0,.38c.14.23.47.2.73.14l2.56-.6a7,7,0,0,1,2-.27c1.57.11,2.93,1.26,4.5,1.36a4,4,0,0,0-1.48-1.87,10,10,0,0,1-3-5.24c-.17-.76,0-2-1-2.23S96.62,173.22,96.23,173.91Z" transform="translate(-11.49 -64.89)" fill="#fff"/><path d="M105.53,175.71a11.76,11.76,0,0,1-1.68,5.57c1.54-.34,2.63-1.66,3.71-2.83a.45.45,0,0,1,.21-.15.47.47,0,0,1,.26,0l2.6,1.06a2.6,2.6,0,0,0-.51-1.45c-.92-1.54-1.91-3.8-3.24-5C105.13,171.36,105.57,174.65,105.53,175.71Z" transform="translate(-11.49 -64.89)" fill="#fff"/><path d="M307.59,153.61c-.06-.05-.14-.08-.17-.16a.26.26,0,0,1,0-.15,3.55,3.55,0,0,1,.26-.84.48.48,0,0,1,.09-.11c.1-.08.24,0,.34.05a1.7,1.7,0,0,1,.68,1.1,1.64,1.64,0,0,1-.32,1.25c-.19.25-.85.56-.82,0S308.09,154,307.59,153.61Z" transform="translate(-11.49 -64.89)" fill="url(#linear-gradient-30)"/><path d="M402.26,164.14a2.83,2.83,0,0,1,.73,4.57,10.1,10.1,0,0,1-3.24,3.76c-2.12,1.28-4.79,1.07-7.25.81a13,13,0,0,1-4.24-.93,4.46,4.46,0,0,1-2.67-3.21c-.24-1.7.85-3.26,1.63-4.79a15.18,15.18,0,0,0,1.52-4.63,15.35,15.35,0,0,1,.75-3.72,10.32,10.32,0,0,1,2.93-3.42,2.75,2.75,0,0,1,1.23-.74,2.89,2.89,0,0,1,1.13.06c1.13.23,3,.57,3.47,1.84.32.94-.31,2.18-.41,3.12C397.5,160.27,399.75,162.28,402.26,164.14Z" transform="translate(-11.49 -64.89)" fill="url(#linear-gradient-31)"/><path d="M402.06,143.4a16.51,16.51,0,0,1,2.46,9.62,7.59,7.59,0,0,1-1.65,4.53,6.18,6.18,0,0,1-4,1.95,9.87,9.87,0,0,1-4.43-.65,17.28,17.28,0,0,1-8.35-7.18,14.14,14.14,0,0,1-2.22-5.83,7.85,7.85,0,0,1,1.64-5.89,10.2,10.2,0,0,1,4.76-2.77c1.37-.44,3.34-1.32,4.79-.92,1.24.34,2.41,1.75,3.3,2.6A22,22,0,0,1,402.06,143.4Z" transform="translate(-11.49 -64.89)" fill="url(#linear-gradient-32)"/><path d="M394.86,131.57a5.19,5.19,0,0,0-3.73-1.61,3.39,3.39,0,0,0-3.15,2.31,4.55,4.55,0,0,1-.47,1.57c-.59.8-1.79.62-2.78.65a5.27,5.27,0,0,0-4.9,4.35c-.19,1.24.09,2.52-.06,3.76-.21,1.66-1.14,3.12-1.71,4.68s-.72,3.51.44,4.71c1.56,1.61,4.6,1,6,2.72.43.54.72,1.3,1.38,1.48.85.22,1.62-.66,2.49-.65a3.34,3.34,0,0,1,1.75.93c.54.39,1.35.66,1.84.19a1.32,1.32,0,0,0,.33-.68,2.48,2.48,0,0,0-.86-2.34c-.92-.74-2.22-.71-3.38-.94s-2.44-1.08-2.29-2.26,1.66-1.68,2.81-1.37c1.14-2-2.82-4.42-1.63-6.45.81-1.39,3.12-.8,4.31-1.89.75-.69.81-1.82,1.46-2.58s1.73-1,2.51-1.61C396.93,135.09,396.51,133.19,394.86,131.57Z" transform="translate(-11.49 -64.89)" fill="#606161"/></svg>