<svg id="Layer_1" data-name="Layer 1" xmlns="http://www.w3.org/2000/svg" xmlns:xlink="http://www.w3.org/1999/xlink" viewBox="0 0 563.68 424.76"><defs><linearGradient id="linear-gradient" x1="345.39" y1="361" x2="321.99" y2="721.76" gradientUnits="userSpaceOnUse"><stop offset="0" stop-color="#010101" stop-opacity="0"/><stop offset="0.95" stop-color="#010101"/></linearGradient><linearGradient id="linear-gradient-2" x1="207.44" y1="241.14" x2="209.78" y2="376.97" xlink:href="#linear-gradient"/><linearGradient id="linear-gradient-3" x1="138.41" y1="325.42" x2="127.45" y2="426.41" xlink:href="#linear-gradient"/><linearGradient id="linear-gradient-4" x1="201.18" y1="152.65" x2="209.4" y2="509.64" xlink:href="#linear-gradient"/><linearGradient id="linear-gradient-5" x1="105.72" y1="143.49" x2="295.95" y2="143.49" xlink:href="#linear-gradient"/><linearGradient id="linear-gradient-6" x1="204.3" y1="144.85" x2="206.65" y2="280.68" xlink:href="#linear-gradient"/><linearGradient id="linear-gradient-7" x1="204.3" y1="169.12" x2="206.65" y2="304.95" xlink:href="#linear-gradient"/><linearGradient id="linear-gradient-8" x1="204.3" y1="193.39" x2="206.65" y2="329.22" xlink:href="#linear-gradient"/><linearGradient id="linear-gradient-9" x1="204.3" y1="217.66" x2="206.65" y2="353.49" xlink:href="#linear-gradient"/><linearGradient id="linear-gradient-10" x1="169.74" y1="187.44" x2="182.09" y2="187.44" xlink:href="#linear-gradient"/><linearGradient id="linear-gradient-11" x1="223.74" y1="187.44" x2="236.08" y2="187.44" xlink:href="#linear-gradient"/><linearGradient id="linear-gradient-12" x1="205.51" y1="104" x2="197.45" y2="298.95" xlink:href="#linear-gradient"/><linearGradient id="linear-gradient-13" x1="230.39" y1="105" x2="222.32" y2="300.2" xlink:href="#linear-gradient"/><linearGradient id="linear-gradient-14" x1="231.35" y1="106.62" x2="223.63" y2="293.24" xlink:href="#linear-gradient"/><linearGradient id="linear-gradient-15" x1="178.19" y1="102.86" x2="170.12" y2="297.96" xlink:href="#linear-gradient"/><linearGradient id="linear-gradient-16" x1="178.83" y1="105.33" x2="171.76" y2="276.44" xlink:href="#linear-gradient"/><linearGradient id="linear-gradient-17" x1="204.78" y1="103.97" x2="196.72" y2="298.92" xlink:href="#linear-gradient"/><linearGradient id="linear-gradient-18" x1="239.81" y1="75.35" x2="231.4" y2="241.55" xlink:href="#linear-gradient"/><linearGradient id="linear-gradient-19" x1="244.66" y1="75.6" x2="236.24" y2="241.8" xlink:href="#linear-gradient"/><linearGradient id="linear-gradient-20" x1="249.38" y1="75.84" x2="240.96" y2="242.04" xlink:href="#linear-gradient"/><linearGradient id="linear-gradient-21" x1="381.77" y1="387.55" x2="470.43" y2="255.79" xlink:href="#linear-gradient"/><linearGradient id="linear-gradient-22" x1="416.37" y1="161.95" x2="434.61" y2="150.64" xlink:href="#linear-gradient"/><linearGradient id="linear-gradient-23" x1="378.38" y1="167.96" x2="439.04" y2="177.45" xlink:href="#linear-gradient"/><linearGradient id="linear-gradient-24" x1="344.31" y1="380.4" x2="371.4" y2="549.08" xlink:href="#linear-gradient"/><linearGradient id="linear-gradient-25" x1="422.52" y1="367.84" x2="449.61" y2="536.52" xlink:href="#linear-gradient"/><linearGradient id="linear-gradient-26" x1="383.04" y1="230.81" x2="666.08" y2="245.13" xlink:href="#linear-gradient"/><linearGradient id="linear-gradient-27" x1="301.63" y1="225.51" x2="621.38" y2="241.68" xlink:href="#linear-gradient"/></defs><title>Reminders Note 2</title><path d="M74.41,161.25c-19.75,21.67-43.83,40-58.41,65.45C-9.81,271.72.71,331.34,31.84,372.87c19.42,25.92,45.57,45.86,71.36,65.46,13.19,10,26.55,20.14,41.73,26.77,14.7,6.41,30.67,9.36,46.61,11.14,16.17,1.82,32.65,2.48,48.61-.73,23.93-4.81,45.3-18,68.52-25.57,54.61-17.78,113.71-3.16,171.11-1.05,11.65.43,23.56.29,34.63-3.38,28.83-9.56,45.16-41,49-71.11s-1.87-60.6-1.89-91c0-29.27,5.21-58.5,3.17-87.7S551.6,135.78,527,119.87c-10.87-7-23.54-10.65-36-14.16C423.11,86.53,354.73,67.29,284.47,58.87c-53.54-6.41-98.85-15.56-142.11,21.95C115.67,104,98.05,135.32,74.41,161.25Z" transform="translate(-1.45 -53)" fill="#4299e1" opacity="0.24" style="isolation:isolate"/><path d="M383.46,410.61c-9.83-2.74-19.41-6.64-29.54-7.95-9.14-1.18-18.41-.21-27.57.76L207.45,416c-3.17.34-7.21,1.53-7.38,4.72a6.21,6.21,0,0,0,1.16,3.41c6.84,11.26,20.22,17.15,33.32,18.53s26.25-1.08,39.29-2.91a421.88,421.88,0,0,1,86.49-3.17c41.71,2.77,87.35,10.86,122.37-12C449.65,420.32,415.88,419.62,383.46,410.61Z" transform="translate(-1.45 -53)" fill="url(#linear-gradient)"/><path d="M170.34,152.05s2.63-19.28,22.09-26.82,38.39,8.59,42.25,23.49S170.34,152.05,170.34,152.05Z" transform="translate(-1.45 -53)" fill="#4299e1"/><circle cx="202.83" cy="108.02" r="24.63" fill="#fff"/><rect x="135.27" y="292.04" width="146.2" height="6.46" rx="3.23" opacity="0.26" fill="url(#linear-gradient-2)"/><path d="M306,394.36l-127.75,1.38a46.77,46.77,0,0,1-13.8-1.92,47.89,47.89,0,0,1-18.15-10c-7.13-6.34-15.51-14-21.14-20-8-8.51-16.73-27.15-19.27-47.55a83.56,83.56,0,0,1,1.25-29.15c7-29.78,0-86.13,0-86.13l190.23-.79-.79,19.56C294.27,252.68,306,394.36,306,394.36Z" transform="translate(-1.45 -53)" fill="#4299e1"/><path d="M164.48,393.82a47.89,47.89,0,0,1-18.15-10c-7.13-6.34-15.51-14-21.14-20-8-8.51-16.73-27.15-19.27-47.55,5.13,4,8.55,10.05,13.89,13.93,5,3.67,11.22,5.09,17.31,6.13a197.41,197.41,0,0,0,26.36,2.84l-2.88,35.41c-.42,5.21-.5,10,1.62,14.89C162.81,390.86,163.73,392.32,164.48,393.82Z" transform="translate(-1.45 -53)" fill="url(#linear-gradient-3)"/><path d="M110.3,221s108.62,3.52,135,2.35a389.64,389.64,0,0,1,49.91,1.17l2.15-24.27L107.17,201Z" transform="translate(-1.45 -53)" fill="url(#linear-gradient-4)"/><polygon points="105.72 148 112.37 139.38 288.13 138.99 295.95 147.21 105.72 148" fill="#4299e1"/><polygon points="105.72 148 112.37 139.38 288.13 138.99 295.95 147.21 105.72 148" opacity="0.26" fill="url(#linear-gradient-5)"/><rect x="132.14" y="195.75" width="146.2" height="6.46" rx="3.23" opacity="0.26" fill="url(#linear-gradient-6)"/><rect x="132.14" y="220.02" width="146.2" height="6.46" rx="3.23" opacity="0.26" fill="url(#linear-gradient-7)"/><rect x="132.14" y="244.29" width="146.2" height="6.46" rx="3.23" opacity="0.26" fill="url(#linear-gradient-8)"/><rect x="132.14" y="268.56" width="146.2" height="6.46" rx="3.23" opacity="0.26" fill="url(#linear-gradient-9)"/><polygon points="105.72 148 112.37 139.38 288.13 138.99 295.95 147.21 105.72 148" fill="#4299e1"/><path d="M177.35,179.57l-7.54,14s-.87,2.28,3.51,1.58l8.77-10.7Z" transform="translate(-1.45 -53)" fill="#4299e1"/><path d="M228.47,179.57l7.54,14s.88,2.28-3.51,1.58l-8.76-10.7Z" transform="translate(-1.45 -53)" fill="#4299e1"/><path d="M177.35,179.57l-7.54,14s-.87,2.28,3.51,1.58l8.77-10.7Z" transform="translate(-1.45 -53)" fill="url(#linear-gradient-10)"/><path d="M228.47,179.57l7.54,14s.88,2.28-3.51,1.58l-8.76-10.7Z" transform="translate(-1.45 -53)" fill="url(#linear-gradient-11)"/><path d="M203.12,127.15A33.81,33.81,0,0,1,205,194.73a33.82,33.82,0,1,1-1.84-67.58Zm23.56,33.68A23.58,23.58,0,0,0,203,137.55a23.38,23.38,0,0,0,.19,46.76A23.58,23.58,0,0,0,226.68,160.83Z" transform="translate(-1.45 -53)" fill="#4299e1"/><path d="M219.63,127.43c1.38-3.09,6.07-5.3,10-4.8a10.41,10.41,0,0,1,9.29,8.65c.68,3.81-1.15,8.65-3.88,10A38.47,38.47,0,0,0,219.63,127.43Z" transform="translate(-1.45 -53)" fill="#4299e1"/><path d="M171.27,141.16a10.22,10.22,0,0,1-3.46-10.92,10.49,10.49,0,0,1,8.19-7.41,10.68,10.68,0,0,1,10.7,4.45A38.76,38.76,0,0,0,171.27,141.16Z" transform="translate(-1.45 -53)" fill="#4299e1"/><path d="M216.2,146c1.79,1.75,1.79,1.75.13,3.4-3,3-6,6-9,9a1.68,1.68,0,0,0-.56,1.83,3.55,3.55,0,0,1-2.4,4.36,3.71,3.71,0,0,1-4.61-2,3,3,0,0,0-1.73-1.69c-3.06-1.34-6.09-2.75-9.15-4.09-.82-.35-1-.73-.67-1.59,1.49-3.33,1-2.85,3.92-1.59,2.66,1.15,5.27,2.41,7.94,3.55a5.67,5.67,0,0,0,2,.19c.36,0,.75-.19,1.08-.1,1.31.35,2.1-.34,2.94-1.2,3-3.07,6.07-6.09,9.12-9.13C215.52,146.58,215.84,146.29,216.2,146Z" transform="translate(-1.45 -53)" fill="#4299e1"/><path d="M203.12,127.15A33.81,33.81,0,0,1,205,194.73a33.82,33.82,0,1,1-1.84-67.58Zm23.56,33.68A23.58,23.58,0,0,0,203,137.55a23.38,23.38,0,0,0,.19,46.76A23.58,23.58,0,0,0,226.68,160.83Z" transform="translate(-1.45 -53)" fill="url(#linear-gradient-12)"/><path d="M235.05,141.29c-.12-.15-.19-.26-.27-.37-.48-.75-1-1.46-1.53-2.17a37.6,37.6,0,0,0-13.63-11.32c1.38-3.1,6.09-5.31,10-4.82a10.81,10.81,0,0,1,4,1.31,10.13,10.13,0,0,1,5.27,7.36C239.6,135.09,237.77,139.94,235.05,141.29Z" transform="translate(-1.45 -53)" fill="url(#linear-gradient-13)"/><path d="M235.05,141.29c-.12-.15-.19-.26-.27-.37-.52-.75-1-1.46-1.53-2.17-3.14-4.26-6.76-8-11.62-10.42,1.39-3.11,6.09-5.31,10-4.82a10.52,10.52,0,0,1,2,.41,10.13,10.13,0,0,1,5.27,7.36C239.6,135.09,237.77,139.94,235.05,141.29Z" transform="translate(-1.45 -53)" fill="url(#linear-gradient-14)"/><path d="M186.7,127.28l-.67.34q-1.74.94-3.36,2c-.19.12-.38.23-.53.34a38.29,38.29,0,0,0-9.19,8.82s-.07.11-.11.15a24.18,24.18,0,0,0-1.57,2.24,10.32,10.32,0,0,1-3.47-11,9.57,9.57,0,0,1,2.43-4.22,10.13,10.13,0,0,1,5.75-3.18A10.66,10.66,0,0,1,186.7,127.28Z" transform="translate(-1.45 -53)" fill="url(#linear-gradient-15)"/><path d="M186.7,127.28l-.67.34c-1.16.67-2.28,1.3-3.36,2-.19.12-.38.23-.53.34a30.53,30.53,0,0,0-9.19,8.82s-.07.11-.11.15A10.17,10.17,0,0,1,169.41,128a7.4,7.4,0,0,1,.82-2,10.13,10.13,0,0,1,5.75-3.18A10.66,10.66,0,0,1,186.7,127.28Z" transform="translate(-1.45 -53)" fill="url(#linear-gradient-16)"/><path d="M216.2,146c1.79,1.75,1.79,1.75.13,3.4-3,3-6,6-9,9a1.68,1.68,0,0,0-.56,1.83,3.55,3.55,0,0,1-2.4,4.36,3.71,3.71,0,0,1-4.61-2,3,3,0,0,0-1.73-1.69c-3.06-1.34-6.09-2.75-9.15-4.09-.82-.35-1-.73-.67-1.59,1.49-3.33,1-2.85,3.92-1.59,2.66,1.15,5.27,2.41,7.94,3.55a5.67,5.67,0,0,0,2,.19c.36,0,.75-.19,1.08-.1,1.31.35,2.1-.34,2.94-1.2,3-3.07,6.07-6.09,9.12-9.13C215.52,146.58,215.84,146.29,216.2,146Z" transform="translate(-1.45 -53)" fill="url(#linear-gradient-17)"/><path d="M247.21,133.14a1.86,1.86,0,0,1-1.83-1.54c-1-5.43-3.27-9.44-6.88-11.92-6.12-4.2-14-2.71-14.07-2.7a1.87,1.87,0,0,1-.72-3.67c.39-.08,9.51-1.79,16.91,3.29,4.46,3.07,7.3,7.9,8.43,14.35a1.86,1.86,0,0,1-1.51,2.16Z" transform="translate(-1.45 -53)" fill="#4299e1"/><path d="M256.89,130.17a2.58,2.58,0,0,1-2.54-2.15c-1.32-7.53-4.53-13.08-9.54-16.52-8.49-5.83-19.4-3.77-19.51-3.76a2.59,2.59,0,1,1-1-5.08c.55-.11,13.19-2.48,23.46,4.57,6.19,4.25,10.13,10.94,11.7,19.9a2.59,2.59,0,0,1-2.11,3A2.22,2.22,0,0,1,256.89,130.17Z" transform="translate(-1.45 -53)" fill="#4299e1"/><path d="M266.89,126.56a3.37,3.37,0,0,1-3.32-2.8c-1.72-9.81-5.9-17.06-12.43-21.53-11.06-7.6-25.29-4.91-25.43-4.9a3.37,3.37,0,1,1-1.31-6.62c.71-.15,17.18-3.24,30.57,6,8.07,5.54,13.2,14.27,15.25,25.94a3.39,3.39,0,0,1-2.75,3.91A2.84,2.84,0,0,1,266.89,126.56Z" transform="translate(-1.45 -53)" fill="#4299e1"/><path d="M249,133a1.86,1.86,0,0,1-1.83-1.55c-.95-5.43-3.27-9.43-6.88-11.91-6.11-4.2-14-2.72-14.06-2.71a1.87,1.87,0,1,1-.73-3.66c.39-.08,9.51-1.79,16.91,3.29,4.47,3.06,7.3,7.89,8.44,14.35a1.87,1.87,0,0,1-1.52,2.16A1.84,1.84,0,0,1,249,133Z" transform="translate(-1.45 -53)" fill="url(#linear-gradient-18)"/><path d="M258.64,130a2.58,2.58,0,0,1-2.54-2.14c-1.32-7.53-4.53-13.09-9.54-16.53-8.48-5.83-19.4-3.76-19.51-3.75a2.59,2.59,0,0,1-1-5.08c.54-.11,13.18-2.49,23.45,4.56,6.19,4.25,10.13,11,11.7,19.91a2.58,2.58,0,0,1-2.1,3A2.32,2.32,0,0,1,258.64,130Z" transform="translate(-1.45 -53)" fill="url(#linear-gradient-19)"/><path d="M268.64,126.38a3.37,3.37,0,0,1-3.32-2.79c-1.72-9.82-5.9-17.06-12.42-21.54-11.07-7.6-25.29-4.91-25.44-4.89a3.38,3.38,0,0,1-1.3-6.63c.7-.14,17.18-3.23,30.56,6,8.07,5.54,13.21,14.27,15.25,26a3.37,3.37,0,0,1-2.74,3.9A2.88,2.88,0,0,1,268.64,126.38Z" transform="translate(-1.45 -53)" fill="url(#linear-gradient-20)"/><path d="M455.16,132.94a17.39,17.39,0,0,0,.07-9.07,21.5,21.5,0,0,0-4.69-8.29s-3.59-1.25-6.53-.1,1.22,6.43.83,8.94-2.79-4.49-4.21-3.87,2.21,10.25,4.92,11.45" transform="translate(-1.45 -53)" fill="#c48067"/><path d="M346.24,216.53s-7.7-5.51-9.06-7.44,3.44-7.8,2-9.08-6.63-3.95-6.12-6.5,9.2,3.31,13.14,6.25,7.52,10.71,7.52,10.71S352.76,218,346.24,216.53Z" transform="translate(-1.45 -53)" fill="#c48067"/><path d="M441.25,190.35c-.46,4.43-1.11,9.91-1.87,15.94a0,0,0,0,0,0,0c-3.51,28.64-9.28,70.06-9.74,72.72-.3,1.77-4.63,2.49-10.2,2.56-7.28.06-16.73-1.05-22-2.56a105.57,105.57,0,0,1-18.17-7.38S390,185.5,392.06,184.15s16.62-2.49,16.62-2.49l16.9.59s5.14-1.54,9.67-2.52c3.25-.69,6.17-1.12,6.79-.5C442.3,179.5,442,183.76,441.25,190.35Z" transform="translate(-1.45 -53)" fill="#4299e1"/><path d="M394.08,183.28s-4,1.35-6.05,4-18.15,35-16.13,41.67,9,11.63,11,10.29,5.8-13.65,6.47-16.34,2-11.54,2-11.54Z" transform="translate(-1.45 -53)" fill="#4299e1"/><path d="M460.24,163.85c.53,6.63-16.92,35.16-20.2,41.36-.2.36-.43.72-.66,1.08a0,0,0,0,0,0,0c-3.8,5.42-12.66,7.71-12.66,7.71a1.41,1.41,0,0,1-.16-.42c-2.53-6,3.24-23.85,3.24-23.85l5.48-10,9.35-17.19L445,133s.79-2.82,5.65-3.45c2.75-.36,4.06.17,4.72.66a1.7,1.7,0,0,1,.56.79S459.65,156.18,460.24,163.85Z" transform="translate(-1.45 -53)" fill="#4299e1"/><path d="M371.5,410.81s-2.84,10.73-4.17,11.51-6-1.69-8.67-3.64-1.74-6.12-1.74-6.12l1.17-3.26Z" transform="translate(-1.45 -53)" fill="#c48067"/><path d="M442.91,405.64s5.18,14.59,4.66,16-6.85-.67-10.17-.45-4.6-4.93-4.6-4.93L431.62,413Z" transform="translate(-1.45 -53)" fill="#c48067"/><path d="M426.93,174.19s-2,8.74-1.35,12.1-4.7,12.77-11.42,12.77-6.72-11.43-6.72-12.77,2-2,1.34-5.38S426.26,170.16,426.93,174.19Z" transform="translate(-1.45 -53)" fill="#c48067"/><path d="M408.78,180.91c.52,2.6-.56,3.59-1.08,4.53a8.42,8.42,0,0,0,5.53,2.44c4,0,10.09-3.36,12.77-9.41.05-.1.1-.22.15-.33.38-2.22.78-3.95.78-3.95C426.26,170.16,408.11,177.55,408.78,180.91Z" transform="translate(-1.45 -53)" fill="#b5765e"/><path d="M425.46,185s-5.42,12.69-10,14c0,0-1.26.67,2.1,2.69s12.77-8.07,11.43-15.46A5.55,5.55,0,0,0,425.6,182Z" transform="translate(-1.45 -53)" fill="#fff"/><path d="M408.78,182.25s-1.49,9.33,2.28,15.76c0,0-1.61,2.39-2.95,2.39s-4.71-8.06-3.36-14.11C405.53,182.75,408.11,181.29,408.78,182.25Z" transform="translate(-1.45 -53)" fill="#fff"/><path d="M429.62,279.05l-7.35,58.46,22.86,75.61s-4.2,2.33-12.94,1.66l-31-74.76-.44-47.53-10.08,41-19.32,79.93s-9.84,2.16-15.63-2l12.77-77.93,10.75-61.84Z" transform="translate(-1.45 -53)" fill="#606161"/><path d="M445.12,413.12s-4.2,2.32-12.92,1.67L401.14,340l-.43-47.52-10.06,41-19.36,80s-9.8,2.17-15.61-2l12.76-78,10.76-61.82,40.6,5.93,9.81,1.45-7.35,58.48Z" transform="translate(-1.45 -53)" fill="url(#linear-gradient-21)"/><path d="M404.75,154.7s-1.35,17.47,0,22.18,5.37,8.74,9.41,8.74,10.08-3.37,12.77-9.41,4-20.84,3.36-22.86S425.56,145,414.83,146C407.44,146.63,404.75,152,404.75,154.7Z" transform="translate(-1.45 -53)" fill="#c48067"/><path d="M429.47,163.31c-.61,1.37-2.75,1.44-3.83.39a4.94,4.94,0,0,1-1.1-4.22c.19-1.49.7-2.94.79-4.45a1.24,1.24,0,0,0-.24-1,1.26,1.26,0,0,0-1-.28c-2,.06-4.41.86-5.83-.58-.85-.86-1.1-2.36-2.23-2.77-.95-.34-1.93.29-2.82.75a9.35,9.35,0,0,1-6.85.66,1.94,1.94,0,0,1-1.2-.77,1.84,1.84,0,0,1-.12-1.11,8.44,8.44,0,0,1,3.67-6,14.78,14.78,0,0,1,5.62-1.92,55.16,55.16,0,0,1,6.91-.8,7.24,7.24,0,0,1,3.64.46,13.24,13.24,0,0,1,2.87,2.53c1.32,1.23,3,2.09,4,3.58.81,1.22,2.59,1.18,3.21,4.14.53,2.59.89,5.21,1.33,7.81s-.64,5.29-1.19,7.88c-1.12,5.31-1.12,5.31-3,7.12a16.07,16.07,0,0,1-3.84,2.45,2.12,2.12,0,0,1-1.65.34c-.55-.19-.76-1.1-.22-1.31" transform="translate(-1.45 -53)" fill="#606161"/><path d="M429.47,163.31c-.61,1.37-2.75,1.44-3.83.39a4.94,4.94,0,0,1-1.1-4.22c.19-1.49.7-2.94.79-4.45a1.24,1.24,0,0,0-.24-1,1.26,1.26,0,0,0-1-.28c-2,.06-4.41.86-5.83-.58-.85-.86-1.1-2.36-2.23-2.77-.95-.34-1.93.29-2.82.75a9.35,9.35,0,0,1-6.85.66,1.94,1.94,0,0,1-1.2-.77,1.84,1.84,0,0,1-.12-1.11,8.44,8.44,0,0,1,3.67-6,14.78,14.78,0,0,1,5.62-1.92,55.16,55.16,0,0,1,6.91-.8,7.24,7.24,0,0,1,3.64.46,13.24,13.24,0,0,1,2.87,2.53c1.32,1.23,3,2.09,4,3.58.81,1.22,2.59,1.18,3.21,4.14.53,2.59.89,5.21,1.33,7.81s-.64,5.29-1.19,7.88c-1.12,5.31-1.12,5.31-3,7.12a16.07,16.07,0,0,1-3.84,2.45,2.12,2.12,0,0,1-1.65.34c-.55-.19-.76-1.1-.22-1.31" transform="translate(-1.45 -53)" fill="url(#linear-gradient-22)"/><path d="M427.22,166s.67-4,3.36-2.69-.67,8.74-2,9.41a3.83,3.83,0,0,1-2,.57" transform="translate(-1.45 -53)" fill="#c48067"/><path d="M383.46,239.61c-1.8,3.68-5.21,7.29-9.12,4.89C359,235.06,344,216.26,344,216.26a12.44,12.44,0,0,1,1-4.52,9.32,9.32,0,0,1,7-5.42l29.12,24.6,3,2.59.43.37C385.23,234.47,384.74,237.06,383.46,239.61Z" transform="translate(-1.45 -53)" fill="#4299e1"/><polygon points="382.01 186.61 386.57 147.12 379.57 190.27 382.01 186.61" fill="url(#linear-gradient-23)"/><path d="M345,418.18c-3.84,1.3-7.78,2.65-10.93,5.21a2.81,2.81,0,0,0-1.13,1.56c-.17,1,.71,1.9,1.57,2.48,5.84,4,13.43,4.08,20.51,4,3.71,0,7.78-.23,10.49-2.75,2.28-2.13,3-5.38,3.62-8.43a2.27,2.27,0,0,0,.06-.93c-.24-1.13-1.77-1.23-2.92-1.2-4,.12-6.32-2.38-9.83-3.11C353.09,414.3,348.16,417.12,345,418.18Z" transform="translate(-1.45 -53)" fill="#4299e1"/><path d="M424.85,424.34c-3.25,2.44-6.56,5-8.75,8.39a2.76,2.76,0,0,0-.58,1.83c.16,1,1.27,1.57,2.27,1.86,6.8,2,14-.35,20.73-2.66,3.5-1.2,7.31-2.66,9.09-5.91,1.49-2.73,1.16-6.05.79-9.14a2.31,2.31,0,0,0-.24-.9c-.58-1-2.07-.61-3.15-.21-3.79,1.37-6.75-.28-10.31.13C431.31,418.11,427.51,422.34,424.85,424.34Z" transform="translate(-1.45 -53)" fill="#4299e1"/><path d="M345,418.18c-3.84,1.3-7.78,2.65-10.93,5.21a2.81,2.81,0,0,0-1.13,1.56c-.17,1,.71,1.9,1.57,2.48,5.84,4,13.43,4.08,20.51,4,3.71,0,7.78-.23,10.49-2.75,2.28-2.13,3-5.38,3.62-8.43a2.27,2.27,0,0,0,.06-.93c-.24-1.13-1.77-1.23-2.92-1.2-4,.12-6.32-2.38-9.83-3.11C353.09,414.3,348.16,417.12,345,418.18Z" transform="translate(-1.45 -53)" fill="url(#linear-gradient-24)"/><path d="M424.85,424.34c-3.25,2.44-6.56,5-8.75,8.39a2.76,2.76,0,0,0-.58,1.83c.16,1,1.27,1.57,2.27,1.86,6.8,2,14-.35,20.73-2.66,3.5-1.2,7.31-2.66,9.09-5.91,1.49-2.73,1.16-6.05.79-9.14a2.31,2.31,0,0,0-.24-.9c-.58-1-2.07-.61-3.15-.21-3.79,1.37-6.75-.28-10.31.13C431.31,418.11,427.51,422.34,424.85,424.34Z" transform="translate(-1.45 -53)" fill="url(#linear-gradient-25)"/><path d="M460.24,163.85c.53,6.63-16.92,35.16-20.2,41.36-.2.36-.43.72-.66,1.08a0,0,0,0,0,0,0c-3.51,28.64-9.28,70.06-9.74,72.72l-7.35,58.48-6.39-22.27,3.54-33.65.39-4s4.85-48.08,13.85-73.85c1.45-4.16,3-6.86,7.6-13.39C449.06,179.23,457,166.51,456,162c-1.83-8.79-5.37-32.44-5.37-32.44l4.72.66a1.7,1.7,0,0,1,.56.79S459.65,156.18,460.24,163.85Z" transform="translate(-1.45 -53)" fill="url(#linear-gradient-26)"/><path d="M385.1,224.59l-1,8.92-.69,6.1c-1.8,3.68-5.21,7.29-9.12,4.89C359,235.06,344,216.26,344,216.26a12.44,12.44,0,0,1,1-4.52c2.69,2.46,27.91,25.78,29.95,26.07,1.11.16,3.83-3.41,6.16-6.89C383.27,227.71,385.1,224.59,385.1,224.59Z" transform="translate(-1.45 -53)" fill="url(#linear-gradient-27)"/></svg>