<svg id="Layer_1" data-name="Layer 1" xmlns="http://www.w3.org/2000/svg" xmlns:xlink="http://www.w3.org/1999/xlink" viewBox="0 0 374.8 343.81"><defs><linearGradient id="linear-gradient" x1="241.2" y1="84.53" x2="250.46" y2="84.53" gradientUnits="userSpaceOnUse"><stop offset="0" stop-color="#e5c5d5"/><stop offset="0.42" stop-color="#ead4d1"/><stop offset="1" stop-color="#f0e9cb"/></linearGradient><linearGradient id="linear-gradient-2" x1="322.96" y1="96.25" x2="306.54" y2="87.07" gradientUnits="userSpaceOnUse"><stop offset="0" stop-opacity="0"/><stop offset="0.99"/></linearGradient><linearGradient id="linear-gradient-3" x1="154.69" y1="84.05" x2="146.45" y2="292.93" xlink:href="#linear-gradient-2"/><linearGradient id="linear-gradient-4" x1="259.23" y1="124.33" x2="289.95" y2="124.33" xlink:href="#linear-gradient"/><linearGradient id="linear-gradient-5" x1="272.9" y1="137.81" x2="278.54" y2="71.87" xlink:href="#linear-gradient-2"/><linearGradient id="linear-gradient-6" x1="272.55" y1="199.95" x2="386.91" y2="278" xlink:href="#linear-gradient-2"/><linearGradient id="linear-gradient-7" x1="241.36" y1="219.42" x2="300.34" y2="219.42" xlink:href="#linear-gradient"/><linearGradient id="linear-gradient-8" x1="124.4" y1="67.47" x2="122.11" y2="125.69" gradientTransform="translate(-3.78 5.46) rotate(-2.5)" xlink:href="#linear-gradient-2"/><linearGradient id="linear-gradient-9" x1="79.86" y1="205.36" x2="171.68" y2="95.6" gradientUnits="userSpaceOnUse"><stop offset="0" stop-opacity="0"/><stop offset="0.83" stop-opacity="0.69"/><stop offset="0.99"/></linearGradient><linearGradient id="linear-gradient-10" x1="190" y1="139.08" x2="104.44" y2="202.1" xlink:href="#linear-gradient-2"/><linearGradient id="linear-gradient-12" x1="70.54" y1="208.45" x2="70.75" y2="228.27" gradientTransform="translate(-9.54 3.29) rotate(-2.5)" xlink:href="#linear-gradient-9"/><linearGradient id="linear-gradient-13" x1="45.93" y1="155.8" x2="59.16" y2="155.8" xlink:href="#linear-gradient"/><linearGradient id="linear-gradient-14" x1="277.61" y1="59.65" x2="292.91" y2="30.99" xlink:href="#linear-gradient-2"/><linearGradient id="linear-gradient-15" x1="243.39" y1="80.56" x2="297.67" y2="80.56" xlink:href="#linear-gradient"/><linearGradient id="linear-gradient-16" x1="304.65" y1="81.6" x2="298.05" y2="82.77" xlink:href="#linear-gradient"/><linearGradient id="linear-gradient-17" x1="69.95" y1="218.22" x2="70.15" y2="238.04" gradientTransform="translate(-9.97 3.27) rotate(-2.5)" xlink:href="#linear-gradient-9"/><linearGradient id="linear-gradient-19" x1="69.63" y1="227.82" x2="69.84" y2="247.64" gradientTransform="translate(-10.39 3.27) rotate(-2.5)" xlink:href="#linear-gradient-9"/><linearGradient id="linear-gradient-22" x1="290.83" y1="80.54" x2="313.43" y2="87.45" xlink:href="#linear-gradient"/></defs><title>Report presentation</title><path d="M109,358.25H353.79s59.47,6.26,53.84-59.47-20-56.76-3.34-105.17S430.17,111,401,91.78,318.32-15.9,217.32,25.84,99.63,53.38,87.94,60.06,19.5,67.57,58.73,176.92,17.41,342.6,109,358.25Z" transform="translate(-45.1 -14.78)" fill="#4299e1" opacity="0.18" style="isolation:isolate"/><path d="M244.88,77.79a2.75,2.75,0,0,0-2.54.51,3.79,3.79,0,0,0-.76,1.53,11.29,11.29,0,0,0,1.16,8.56c1.48,2.37,3.88,3.49,5.88,2.74a2.5,2.5,0,0,0,1.32-1,4.9,4.9,0,0,0,.44-3.2,16.42,16.42,0,0,0-1-3.27C248,79.73,248,78.18,244.88,77.79Z" transform="translate(-45.1 -14.78)" fill="url(#linear-gradient)"/><path d="M229.54,115.59s10.93-.36,37.16,1.1,43.35,4.91,55.38,8.56,22.58,4.73,28.41,17.85,12.39,95.81-6.92,114.76-26.23,8.38-26.23,8.38l-5.83,64.11s-111.48-1.09-129-23c0,0,36.65-63.71,27.88-83.11-11.25-24.93,2.72-54,2.72-54s-51.37,78.14-61.75,75.41S74.34,185,74.34,185L89.1,164.23l53,27.87S205.13,108.85,229.54,115.59Z" transform="translate(-45.1 -14.78)" fill="#4299e1"/><path d="M323.58,72.62c2,3,2.42,6.85,2,10.45a45.34,45.34,0,0,1-3.76,12.61c-1.35,3.22-2.82,6.46-3.21,9.93s.5,7.3,3.16,9.57a8.63,8.63,0,0,1-11.23-3.8,5.8,5.8,0,0,1,.11,3,17.82,17.82,0,0,1-6.11-5.85l-1.66,1.56c-5-6.28-8.79-13.93-8.59-21.94.17-6.66,3.69-13.7,9.71-16.9C309.68,68.26,319.5,66.44,323.58,72.62Z" transform="translate(-45.1 -14.78)" fill="#3e3e54"/><path d="M323.58,72.62c2,3,2.42,6.85,2,10.45a45.34,45.34,0,0,1-3.76,12.61c-1.35,3.22-2.82,6.46-3.21,9.93s.5,7.3,3.16,9.57a8.63,8.63,0,0,1-11.23-3.8,5.8,5.8,0,0,1,.11,3,17.82,17.82,0,0,1-6.11-5.85l-1.66,1.56c-5-6.28-8.79-13.93-8.59-21.94.17-6.66,3.69-13.7,9.71-16.9C309.68,68.26,319.5,66.44,323.58,72.62Z" transform="translate(-45.1 -14.78)" fill="url(#linear-gradient-2)"/><polygon points="137.58 129.58 145.09 122.91 144.68 172.99 168.05 155.46 133.82 203.04 137.58 129.58" fill="url(#linear-gradient-3)"/><path d="M262.63,113.76s-10.78,20.59,6,29.77c22.54,12.31,21.29-40.27,21.29-40.27Z" transform="translate(-45.1 -14.78)" fill="url(#linear-gradient-4)"/><path d="M264.36,125.69a9.89,9.89,0,0,0,4.39,1.31c6.22.52,12.45-2.79,16.13-7.83a25.57,25.57,0,0,0,4.31-17.8c0-.27-.13-.6-.4-.62a.58.58,0,0,0-.33.12A67.6,67.6,0,0,1,278.22,106c-2.77,1.1-5.61,2-8.37,3.17-2.26.94-5.73,2.16-7.3,4.14C259.74,116.83,260.51,123.28,264.36,125.69Z" transform="translate(-45.1 -14.78)" fill="url(#linear-gradient-5)"/><path d="M316.85,264.91A217,217,0,0,0,281.3,235.2c.66-3.73,3.83-6.39,6.43-9.14a39.06,39.06,0,0,0,7.85-12.25q13.65,9.1,27.66,17.69-.84-18.33-.25-36.67c-7,3.74-14.27,7.28-21.31,11a72.29,72.29,0,0,0-11.41,7,44.74,44.74,0,0,0-13,18.2c-.95,2.34-1.77,4.9-1.21,7.36s2.24,4.24,4,5.84a36.86,36.86,0,0,0,8.73,5.8c2.63,1.25,5.43,2.19,7.86,3.79,3.23,2.14,5.63,5.32,8.63,7.77S313.27,266.39,316.85,264.91Z" transform="translate(-45.1 -14.78)" fill="url(#linear-gradient-6)"/><path d="M282.2,208.38a33,33,0,0,0-10.4-2c-.69,1.53,1.41,3.61.23,4.81a2.43,2.43,0,0,1-1.42.54A139.38,139.38,0,0,1,246,213.12a7.38,7.38,0,0,0-3,.31,2.44,2.44,0,0,0-1.66,2.29,3.28,3.28,0,0,0,.89,1.73c3.78,4.53,9.4,7.24,15.15,8.53s11.71,1.3,17.61,1.24c5.38-.05,11.05-.08,15.74,2.56a29.49,29.49,0,0,0,4.14,2.31,4.34,4.34,0,0,0,4.46-.59,4.07,4.07,0,0,0,.67-4.27c-1.3-3.49-4.88-7.36-7.21-10.24C289.94,213.41,286.51,210.14,282.2,208.38Z" transform="translate(-45.1 -14.78)" fill="url(#linear-gradient-7)"/><path d="M62.7,89.64H171A11.06,11.06,0,0,1,182,100.7V251.3a11.44,11.44,0,0,1-11.44,11.44H63.08A11.44,11.44,0,0,1,51.64,251.3V100.7A11.06,11.06,0,0,1,62.7,89.64Z" transform="translate(-37.32 -19.7) rotate(2.5)" fill="#4299e1"/><rect x="60.45" y="97.92" width="114.09" height="153.85" transform="translate(-37.38 -19.73) rotate(2.5)" fill="#fff"/><rect x="95.17" y="78.47" width="56.72" height="22.26" rx="6.91" transform="translate(-41.08 -20.08) rotate(2.5)" fill="#4299e1"/><rect x="95.17" y="78.47" width="56.72" height="22.26" rx="6.91" transform="translate(-41.08 -20.08) rotate(2.5)" fill="url(#linear-gradient-8)"/><path d="M143.63,196.79a32.1,32.1,0,1,1-26.48-50.39l-1.4,32Z" transform="translate(-45.1 -14.78)" fill="#4299e1"/><path d="M138.5,147.84l-19.82,26.3,1.4-32c.5,0,1,0,1.5,0A31.85,31.85,0,0,1,138.5,147.84Z" transform="translate(-45.1 -14.78)" fill="#4299e1"/><path d="M138.5,147.84l-19.82,26.3,1.4-32c.5,0,1,0,1.5,0A31.85,31.85,0,0,1,138.5,147.84Z" transform="translate(-45.1 -14.78)" fill="url(#linear-gradient-9)"/><path d="M153.08,178.87a31.69,31.69,0,0,1-5.7,16.89l-27.87-18.35,19.81-26.3A32,32,0,0,1,153.08,178.87Z" transform="translate(-45.1 -14.78)" fill="#4299e1"/><path d="M153.08,178.87a31.69,31.69,0,0,1-5.7,16.89l-27.87-18.35,19.81-26.3A32,32,0,0,1,153.08,178.87Z" transform="translate(-45.1 -14.78)" fill="url(#linear-gradient-10)"/><path d="M153.08,178.87a31.69,31.69,0,0,1-5.7,16.89l-27.87-18.35,19.81-26.3A32,32,0,0,1,153.08,178.87Z" transform="translate(-45.1 -14.78)" fill="url(#linear-gradient-10)"/><rect x="67.84" y="207.38" width="6.49" height="7.02" transform="translate(-35.85 -17.68) rotate(2.5)" fill="#4299e1"/><rect x="67.42" y="217.11" width="6.49" height="7.02" transform="translate(-35.43 -17.65) rotate(2.5)" fill="#4299e1"/><rect x="67.42" y="217.11" width="6.49" height="7.02" transform="translate(-35.43 -17.65) rotate(2.5)" fill="url(#linear-gradient-12)"/><rect x="66.99" y="226.84" width="6.49" height="7.02" transform="translate(-35 -17.62) rotate(2.5)" fill="#4299e1"/><rect x="66.57" y="236.57" width="6.49" height="7.02" transform="translate(-34.58 -17.59) rotate(2.5)" fill="#4299e1"/><path d="M58.75,149.92a21.39,21.39,0,0,1-3.42,16c-1,1.33-2.49,2.56-4.26,2.48a4.81,4.81,0,0,1-3.36-1.84c-2.44-2.93-1.87-7-1.18-10.55a38.79,38.79,0,0,1,2.53-9c.85-1.82,3-4.53,5.53-3.49C56.92,144.43,58.24,147.83,58.75,149.92Z" transform="translate(-45.1 -14.78)" fill="url(#linear-gradient-13)"/><path d="M186.2,311.81s-12.52,27.84-12.52,46.78L309,358l-1.84-28S203.68,319.82,186.2,311.81Z" transform="translate(-45.1 -14.78)" fill="#3e3e54"/><path d="M246.83,37.08c6.2-9.86,17.6-16.7,29.21-15.91,6,.41,11.68,2.72,17.23,5,7.57,3.14,15.62,6.71,19.85,13.73,2.76,4.58,3.51,10.09,3.54,15.43,0,7-1.12,14.17-4.67,20.2s-9.76,10.75-16.74,11.26c-4.5.33-8.94-1.06-13.24-2.43-10.77-3.43-29.49-5.54-37.83-13.82S241.76,45.37,246.83,37.08Z" transform="translate(-45.1 -14.78)" fill="#3e3e54"/><path d="M246.83,37.08c6.2-9.86,17.6-16.7,29.21-15.91,6,.41,11.68,2.72,17.23,5,7.57,3.14,15.62,6.71,19.85,13.73,2.76,4.58,3.51,10.09,3.54,15.43,0,7-1.12,14.17-4.67,20.2s-9.76,10.75-16.74,11.26c-4.5.33-8.94-1.06-13.24-2.43-10.77-3.43-29.49-5.54-37.83-13.82S241.76,45.37,246.83,37.08Z" transform="translate(-45.1 -14.78)" fill="url(#linear-gradient-14)"/><path d="M243.39,65.86s1.82,46.64,26.95,50.28,27.33-48.45,27.33-48.45S274.72,17.41,243.39,65.86Z" transform="translate(-45.1 -14.78)" fill="url(#linear-gradient-15)"/><path d="M303,78.66A12.5,12.5,0,0,1,296.2,90c-3.77,1.86-2.11-8.49-1.26-10.44C296.46,76.14,302.79,72.58,303,78.66Z" transform="translate(-45.1 -14.78)" fill="url(#linear-gradient-16)"/><path d="M264.5,61c1.42-.66,1.85-3,3.39-3.18.67,1.53-.24,3.63.81,4.89a3.5,3.5,0,0,0,2,1,55.74,55.74,0,0,1,13.19,5.15c1.77,1,3.61,2.07,5.6,2,1-.05,2-.38,2.9,0,1.39.66,1.59,2.64,1.58,4.26l0,9.23a39.14,39.14,0,0,0,4.23-6.22,45.4,45.4,0,0,0,5.71-14.53c.92-5.18.46-10.78-2-15.34-2.82-5.15-8-8.39-13.31-10.16-31.9-10.56-37.91-5.5-41-4-5.51,2.61-12.92,19.19-6.78,29.07,1.45,2.33,9.19-5.64,11.6-4.51a27.74,27.74,0,0,0,5.77,1.46C259.82,60.46,262.8,61.79,264.5,61Z" transform="translate(-45.1 -14.78)" fill="#3e3e54"/><rect x="66.83" y="226.88" width="6.49" height="7.02" transform="translate(-35 -17.61) rotate(2.5)" fill="url(#linear-gradient-17)"/><rect x="66.83" y="226.88" width="6.49" height="7.02" transform="translate(-35 -17.61) rotate(2.5)" fill="url(#linear-gradient-17)"/><rect x="66.51" y="236.48" width="6.49" height="7.02" transform="translate(-34.58 -17.59) rotate(2.5)" fill="url(#linear-gradient-19)"/><rect x="66.51" y="236.48" width="6.49" height="7.02" transform="translate(-34.58 -17.59) rotate(2.5)" fill="url(#linear-gradient-19)"/><rect x="66.51" y="236.48" width="6.49" height="7.02" transform="translate(-34.58 -17.59) rotate(2.5)" fill="url(#linear-gradient-19)"/><rect x="76.88" y="239.8" width="51.47" height="3.34" rx="1.55" transform="translate(-34.12 -19.16) rotate(2.58)" fill="#4299e1" opacity="0.34"/><rect x="76.88" y="230.75" width="51.47" height="3.34" rx="1.55" transform="translate(-34.53 -19.17) rotate(2.58)" fill="#4299e1" opacity="0.34"/><rect x="76.88" y="221.71" width="51.47" height="3.34" rx="1.55" transform="translate(-34.94 -19.18) rotate(2.58)" fill="#4299e1" opacity="0.34"/><rect x="76.88" y="212.67" width="51.47" height="3.34" rx="1.55" transform="translate(-35.34 -19.19) rotate(2.58)" fill="#4299e1" opacity="0.34"/><path d="M297.71,82.37c.72-1.44.74-3.38,2.08-4.27a3.76,3.76,0,0,1,.77,2.62,8.66,8.66,0,0,1-.74,3.8,5,5,0,0,1-2.77,2.62A1.89,1.89,0,0,1,295.3,87a1.42,1.42,0,0,1-.43-1.4C295.19,84.18,297.05,83.68,297.71,82.37Z" transform="translate(-45.1 -14.78)" fill="url(#linear-gradient-22)"/></svg>