<svg id="Layer_1" data-name="Layer 1" xmlns="http://www.w3.org/2000/svg" xmlns:xlink="http://www.w3.org/1999/xlink" viewBox="0 0 388.54 344.85"><defs><linearGradient id="linear-gradient" x1="343.65" y1="122.9" x2="356.43" y2="122.9" gradientUnits="userSpaceOnUse"><stop offset="0" stop-color="#e5c5d5"/><stop offset="0.42" stop-color="#ead4d1"/><stop offset="1" stop-color="#f0e9cb"/></linearGradient><linearGradient id="linear-gradient-2" x1="352.44" y1="137.42" x2="393.53" y2="137.42" gradientUnits="userSpaceOnUse"><stop offset="0" stop-opacity="0"/><stop offset="0.99"/></linearGradient><linearGradient id="linear-gradient-3" x1="111.2" y1="132.73" x2="117.21" y2="147.6" xlink:href="#linear-gradient-2"/><linearGradient id="linear-gradient-4" x1="382.84" y1="119.56" x2="401.52" y2="119.56" xlink:href="#linear-gradient"/><linearGradient id="linear-gradient-5" x1="215.14" y1="80.5" x2="264.5" y2="80.5" xlink:href="#linear-gradient-2"/><linearGradient id="linear-gradient-6" x1="301.64" y1="47.22" x2="318.54" y2="47.22" xlink:href="#linear-gradient"/><linearGradient id="linear-gradient-7" x1="89.59" y1="142.49" x2="113.2" y2="142.49" gradientUnits="userSpaceOnUse"><stop offset="0" stop-color="#867580"/><stop offset="0.57" stop-color="#9b8f8e"/></linearGradient><linearGradient id="linear-gradient-8" x1="130.33" y1="241.24" x2="54.82" y2="120.96" xlink:href="#linear-gradient-2"/><linearGradient id="linear-gradient-9" x1="134.99" y1="149.83" x2="147.46" y2="149.83" xlink:href="#linear-gradient-7"/><linearGradient id="linear-gradient-10" x1="119.17" y1="133.84" x2="137.04" y2="133.84" xlink:href="#linear-gradient-7"/><linearGradient id="linear-gradient-11" x1="272.7" y1="85.34" x2="294.71" y2="85.34" xlink:href="#linear-gradient"/><linearGradient id="linear-gradient-12" x1="231.36" y1="31.82" x2="251.91" y2="31.82" xlink:href="#linear-gradient"/><linearGradient id="linear-gradient-13" x1="320.64" y1="179.81" x2="344.81" y2="179.81" xlink:href="#linear-gradient"/></defs><title>Teamwork</title><path d="M63.28,333c11.42,13.78,30.6,18.5,48.5,18.83a135.85,135.85,0,0,0,57.28-11.57c16.89-7.48,32.25-18.41,49.78-24.24,36.51-12.13,76.17-.56,114.65-.48,27,.06,54.74-6,76.62-21.87s36.95-42.41,34.58-69.31c-1.42-16-8.7-31-18.29-43.88C401.13,146.59,361,127,332.18,96.15c-18.77-20.07-34-45.78-59.69-55.5-12.2-4.62-25.54-5-38.57-4.87-12.5.17-25.28.88-36.8,5.71-12.67,5.3-22.93,15.27-30.89,26.46-22.48,31.6-27.78,72.05-44,107.29-11.08,24.14-27.22,45.69-38.33,69.82C73.14,268.52,42.92,308.41,63.28,333Z" transform="translate(-56.39 -6.99)" fill="#4299e1" opacity="0.18" style="isolation:isolate"/><polygon points="226.72 167.78 214.22 173.62 302.55 216.95 315.06 211.12 226.72 167.78" fill="#4299e1" opacity="0.18" style="isolation:isolate"/><path d="M352.94,118.18a2,2,0,0,0-1-.41.86.86,0,0,0-.86.49c-.1.29,0,.64-.18.88a.89.89,0,0,1-.73.23,11,11,0,0,1-3.41-.58,6.2,6.2,0,0,0-1.56-.41,1.51,1.51,0,0,0-1.4.62,2,2,0,0,0-.05,1.53,10.5,10.5,0,0,0,8.76,7.47c1.29.14,2.83-.11,3.45-1.25C357.4,124.1,355.11,119.66,352.94,118.18Z" transform="translate(-56.39 -6.99)" fill="url(#linear-gradient)"/><path d="M354.9,121.65c.29,2.13-1.94,3.78-2.37,5.89-.55,2.61,1.73,4.87,3.78,6.57,7.62,6.29,15.28,12.61,23.8,17.61,1.42.83,3,1.66,4.63,1.44,2.09-.28,3.56-2.15,4.61-4,1.32-2.31,5.37-10,3.84-12.69-1.2-2.1-8-2.27-10.41-3C373.1,130.55,364,126.09,354.9,121.65Z" transform="translate(-56.39 -6.99)" fill="#4299e1"/><path d="M354.9,121.65c.29,2.13-1.94,3.78-2.37,5.89-.55,2.61,1.73,4.87,3.78,6.57,7.62,6.29,15.28,12.61,23.8,17.61,1.42.83,3,1.66,4.63,1.44,2.09-.28,3.56-2.15,4.61-4,1.32-2.31,5.37-10,3.84-12.69-1.2-2.1-8-2.27-10.41-3C373.1,130.55,364,126.09,354.9,121.65Z" transform="translate(-56.39 -6.99)" fill="url(#linear-gradient-2)"/><path d="M229.93,155.57a242.78,242.78,0,0,1-1.71,54.48c-.25,1.7-.41,3.7.86,4.85a3.54,3.54,0,0,0,4.2,0,9.5,9.5,0,0,0,2.76-3.53c4.07-7.55,6.87-15.7,9.65-23.8,3.22-9.41,6.48-19.09,6.09-29-.27-6.89-2.3-13.66-2-20.55a10.75,10.75,0,0,1,2.76,3.05c3.52,5.06,7.12,10.3,8.35,16.34a43.8,43.8,0,0,1,.6,8.94q-.11,19.84-1.87,39.62c-.19,2.15-.37,4.43.65,6.33s3.75,3,5.39,1.61a5.34,5.34,0,0,0,1.26-1.93c5.85-13,8-27.31,9.65-41.45,1.05-8.93,1.9-18.07-.15-26.81a82.65,82.65,0,0,0-4.22-12.17l-7.48-18.38a8.25,8.25,0,0,0-1.41-2.55c-1.52-1.65-4.05-1.78-6.29-1.76q-9.84.07-19.64,1c-1.81.18-5.63-.17-7.12,1.15s-1.54,5.45-1.78,7.43C227,130.78,228.93,143.23,229.93,155.57Z" transform="translate(-56.39 -6.99)" fill="#3e3e54"/><path d="M85.41,268.7c5,21.65,2.25,44.23,2.92,66.44.08,2.37.45,5.18,2.56,6.26,1.78.92,3.93.13,5.73-.75a63.5,63.5,0,0,0,8.77-5.21c.94-.67,2-1.7,1.6-2.79-.3-.91-1.4-1.23-2.35-1.38a33.82,33.82,0,0,0-6.59-.38l6-45.92c.58-4.4,1.16-8.9.3-13.25-.45-2.27-1.2-4.9.27-6.69,5.23,8.37,15.24,13.4,18.84,22.6,1.67,4.27,1.74,9,1.78,13.57l.42,42.56a4.24,4.24,0,0,0,.86,3.09c1,1,2.61.75,3.94.37a31.65,31.65,0,0,0,11.14-5.72c.9-.72,1.82-2,1.1-2.87a2.33,2.33,0,0,0-1.54-.63l-7.36-1c4.25-15.58,4.49-31.93,4.71-48.07a65.43,65.43,0,0,0-.47-11.11c-.8-5.19-2.83-10.1-4.87-14.94q-4.78-11.38-9.76-22.68a3.55,3.55,0,0,0-1.37-1.85,3.47,3.47,0,0,0-1.87-.24l-19.94,1c-4.61.25-11.16-.58-15.25,2.09C76.82,246.62,83.8,261.7,85.41,268.7Z" transform="translate(-56.39 -6.99)" fill="#3e3e54"/><path d="M90.59,143.65c2.68-4,6.41-7.24,10.14-10.33,4.55-3.75,9.44-7.53,15.25-8.55,3.34-.59,7.34.11,9,3,1.89,3.27-.14,7.59-3.17,9.86s-6.82,3.19-10.22,4.84a18.26,18.26,0,0,0-7.81,6.73,37,37,0,0,0-2.55,5.84,23.87,23.87,0,0,1-4.57,7.81,11.16,11.16,0,0,1-8,3.75c-2.21,0-8,13.78-9.3,11.92-1.6-2.29,2.91-18.41,4.12-20.62C86.08,153.28,87.64,148.1,90.59,143.65Z" transform="translate(-56.39 -6.99)" fill="#4299e1"/><path d="M119.6,133.62c1,0,2.22.21,2.67,1.13.54,1.09-.38,2.33-1.29,3.12a26.77,26.77,0,0,1-6.79,4.16c-1.29.58-2.61,1.08-3.94,1.56-.84.3-3,1.5-3.88,1.26-2.13-.6-.16-4.81.5-6a7.22,7.22,0,0,1,3.37-2.92A20.21,20.21,0,0,1,119.6,133.62Z" transform="translate(-56.39 -6.99)" fill="url(#linear-gradient-3)"/><path d="M383.39,115.42a6.91,6.91,0,0,0-.53,2.78,10.63,10.63,0,0,0,1.19,2.73c.83,1.92.61,4.39,2.17,5.77,1.15,1,2.89,1,4.4.75a1.48,1.48,0,0,1,.93,0,1,1,0,0,1,.42.46c.51.94.27,2.1.42,3.16a1.29,1.29,0,0,0,.22.63,1.4,1.4,0,0,0,1.09.4,13.1,13.1,0,0,0,4.09-.73,5.41,5.41,0,0,0,2.88-1.54,4.78,4.78,0,0,0,.78-2.54,34.19,34.19,0,0,0-.76-9,22.45,22.45,0,0,0-2-6.54,8.63,8.63,0,0,0-5.05-4.39,10.52,10.52,0,0,0-2.24-.32,26.21,26.21,0,0,0-4.34.15c-.89.1-2.1.19-2.66,1s-.35,2-.38,2.92A17.8,17.8,0,0,1,383.39,115.42Z" transform="translate(-56.39 -6.99)" fill="url(#linear-gradient-4)"/><path d="M396.31,100.78a21.83,21.83,0,0,1-10.65-2.33,4.11,4.11,0,0,0-2.81-.71,2.54,2.54,0,0,0-1.66,2.42,7.17,7.17,0,0,0,.79,3,22.65,22.65,0,0,0,2.86,5.28c1.76,2.22,4.31,3.9,5.31,6.54.14.36.33.8.71.82s.66-.64.9-1.09a1.61,1.61,0,0,1,2.38-.44,2.25,2.25,0,0,1,.49,2.26,14.29,14.29,0,0,1-1,2.22,1.71,1.71,0,0,0-.21.72c0,.68.66,1.13,1.17,1.58a5.16,5.16,0,0,1,1.21,1.54,4.83,4.83,0,0,0,1,1.57,2.71,2.71,0,0,0,1.26.49,5.9,5.9,0,0,0,3.47-.44,6.67,6.67,0,0,0,3.39-4.7,16.2,16.2,0,0,0-.09-6c-.21-1.37-.46-2.74-.76-4.09-.44-2-1.06-4.12-2.63-5.44-1-.82-2.25-1.29-3-2.31C397.7,101.5,397,100.75,396.31,100.78Z" transform="translate(-56.39 -6.99)" fill="#3e3e54"/><path d="M234.49,39.68l-4.72,2.14a14.63,14.63,0,0,0-3.57,2,9.06,9.06,0,0,0-2.75,4.53,16.75,16.75,0,0,0-.44,5.33c.88,14.75-.71,28.92,0,43.69.12,2.8.26,5.69,1.39,8.26,2.18,5,7.73,7.82,13.15,8.31s10.81-1,16.06-2.4c4.16-1.13,8.63-2.47,11.26-5.89,3.91-5.08,2.14-12.31.63-18.54a138.8,138.8,0,0,1-3.85-28.26,3,3,0,0,1,.55-2.23,3,3,0,0,1,1.76-.64l40.4-5.26c2.9-3.46,2.4-7.17-.92-10.23s-39.86-5.07-52.9-2.37C245.42,39.21,239.21,37.55,234.49,39.68Z" transform="translate(-56.39 -6.99)" fill="#4299e1"/><path d="M264.17,85l.33,4.34s-26.06-2.67-30.4-7.68-1.34,30.74-1.34,30.74-7,2.67-15-9.69,5.11-52.86,5.73-54.33S264.17,85,264.17,85Z" transform="translate(-56.39 -6.99)" fill="url(#linear-gradient-5)"/><path d="M304.36,42a3.65,3.65,0,0,0-2.67,2.6,3.91,3.91,0,0,0,1.81,3.7,16.07,16.07,0,0,0,4,1.71c2.74,1,5.41,2.41,8.32,2.51,1,0,2.22-.23,2.61-1.17a2.73,2.73,0,0,0-.79-2.59,14.56,14.56,0,0,0-3.72-3.23,1.4,1.4,0,0,1-.55-.47c-.39-.69.58-1.48.44-2.26a1.22,1.22,0,0,0-1.33-.83,7.39,7.39,0,0,0-1.65.47C308.57,43.17,306.77,41.35,304.36,42Z" transform="translate(-56.39 -6.99)" fill="url(#linear-gradient-6)"/><path d="M226.91,214.76a7.11,7.11,0,0,0-.67,4.46,7.61,7.61,0,0,0,2.14,3.77,16.52,16.52,0,0,0,3.56,2.58c2.38,1.36,5,2.51,7.78,2.33a3.05,3.05,0,0,0,1.19-.28,2.54,2.54,0,0,0,1.07-2.85,7.49,7.49,0,0,0-1.66-2.82,21.69,21.69,0,0,1-3.22-4.8c-.5-1.14-.79-2.35-1.28-3.49a5.63,5.63,0,0,0-2.31-2.83C230.76,209.37,228,212.59,226.91,214.76Z" transform="translate(-56.39 -6.99)" fill="#3e3e54"/><path d="M257.8,218.53a3,3,0,0,0,.46,1.43,3.56,3.56,0,0,0,1.56,1c4.89,2.07,9.83,4.16,15.07,5,1.38.23,3.19.13,3.66-1.19a2.85,2.85,0,0,0-.57-2.4c-1.93-3-5.09-4.92-7.33-7.66a33,33,0,0,0-3.49-4.29C261.53,205.55,257.19,213.44,257.8,218.53Z" transform="translate(-56.39 -6.99)" fill="#3e3e54"/><polygon points="315.06 211.12 226.72 167.78 226.72 0 315.06 50.56 315.06 211.12" fill="#4299e1" opacity="0.18" style="isolation:isolate"/><polygon points="302.55 216.95 214.22 173.62 214.22 5.83 302.55 56.39 302.55 216.95" fill="#4299e1" opacity="0.18" style="isolation:isolate"/><path d="M111.5,135.5c.66.36,1.44.72,1.65,1.44.33,1.13-1,2-1.56,3-.68,1.19-.36,2.67-.46,4a6.58,6.58,0,0,1-3.6,5.31c-1.15.56-2.48.79-3.48,1.59-2.18,1.73-1.91,5.38-4,7.18a5.88,5.88,0,0,1-2.57,1.15,5.76,5.76,0,0,1-3.87-.25A5.91,5.91,0,0,1,91,155.78a25.64,25.64,0,0,1-1.4-8.63c-.21-6.47.28-13.42,4.23-18.55a8.41,8.41,0,0,1,2.43-2.25c2.8-1.59,7.88-.82,10.11,1.57a9.81,9.81,0,0,1,1.53,3.25A8.42,8.42,0,0,0,111.5,135.5Z" transform="translate(-56.39 -6.99)" fill="url(#linear-gradient-7)"/><path d="M104.21,133.87a6.31,6.31,0,0,1-3.52,2c-1.18.13-2.54-.26-3.48.48a2.68,2.68,0,0,0-.57,2.93c.34,1,1,1.9,1.32,2.9.83,2.39-.07,5-1,7.35a5.23,5.23,0,0,1-1.78,2.75,4.44,4.44,0,0,1-2.27.58,7.92,7.92,0,0,1-4.45-.91,8.2,8.2,0,0,1-3.12-4c-1.6-3.81-1.68-8.07-1.55-12.2a24.74,24.74,0,0,1,.5-4.86A13.47,13.47,0,0,1,94.85,121c2.81-.5,5.66-.1,8.49-.29,1.62-.11,4.55-1.36,5.73.38s-.24,5.07-.87,6.67A18.07,18.07,0,0,1,104.21,133.87Z" transform="translate(-56.39 -6.99)" fill="#3e3e54"/><path d="M84.71,160.77a20.58,20.58,0,0,0-3.91,7.63c-3.5,11.07-3.32,22.91-3.1,34.51l.54,29c.08,4.27.31,8.94,3.16,12.12s7.53,3.91,11.8,4a61.4,61.4,0,0,0,24.14-4.42c2.59-1,5.22-2.35,6.89-4.59,3-4.07,2-9.75.91-14.7q-4.41-19.26-8.83-38.51c-2-8.85-4.75-18.41-11.56-24.92C99.51,155.91,89.91,154.94,84.71,160.77Z" transform="translate(-56.39 -6.99)" fill="#4299e1"/><path d="M117.16,191.42s-7.77-9.52-13-5.76,16.54,44.1,10,58.64c0,0,7.13.8,10.08-5.24s2.7-7.29,1.7-9.8S117.16,191.42,117.16,191.42Z" transform="translate(-56.39 -6.99)" fill="url(#linear-gradient-8)"/><path d="M106.69,165.91a7.92,7.92,0,0,0-3,.38,6.92,6.92,0,0,0-3.68,4.4c-2.35,6.89,1.65,14.69,7.59,18.89s8.11,2.14,15.33,3.12a10.22,10.22,0,0,0,4.23,0c2.31-.68,3.83-2.83,5.1-4.88,3.66-5.95,13.94-22.85,13.49-25.1-.61-3.11-1.29-2.32-3.87-4.17a2.78,2.78,0,0,0-4.6.61L124.36,174.3c-.5.59-1.14,1.23-1.91,1.14a2.44,2.44,0,0,1-1.17-.65C116.67,170.9,113,165.91,106.69,165.91Z" transform="translate(-56.39 -6.99)" fill="#4299e1"/><path d="M135.3,153.34a.9.9,0,0,1-.3-.74c.06-.34.44-.5.78-.6a8.41,8.41,0,0,1,2.12-.3,2.88,2.88,0,0,0,1.4-.23,2.08,2.08,0,0,0,.84-1.26c.84-2.69.08-5.6,0-8.42,0-.59.14-1.37.72-1.43a25.29,25.29,0,0,1,2.29,6.43,6.86,6.86,0,0,0,.47,1.62,6.47,6.47,0,0,0,1.5,1.68,7.11,7.11,0,0,1,2.17,2.94c.54,1.73-.13,3.6-1,5.18a2,2,0,0,1-1,1,1.84,1.84,0,0,1-1,0,7.85,7.85,0,0,1-4.45-2.61C138.56,155.25,136.58,154.76,135.3,153.34Z" transform="translate(-56.39 -6.99)" fill="url(#linear-gradient-9)"/><path d="M126.93,139.43c.52.49,1.18,1,1.87.82.89-.22,1.13-1.41.87-2.29a20.28,20.28,0,0,1-1-2.55,1,1,0,0,1,.08-.69,1.24,1.24,0,0,1,.56-.42,17.51,17.51,0,0,1,6.4-1.4c.6,0,1.43-.34,1.29-.93s-.7-.54-1.16-.54l-3.89,0a1.14,1.14,0,0,1-.75-.18,1.34,1.34,0,0,1-.31-.73,4.55,4.55,0,0,0-3.75-3.06,12.41,12.41,0,0,0-5,.52,4.13,4.13,0,0,0-2.58,1.42c-.77,1.18-.17,2.75.54,4,.92,1.56,1.83,1.52,3.18,2.29S125.76,138.34,126.93,139.43Z" transform="translate(-56.39 -6.99)" fill="url(#linear-gradient-10)"/><path d="M274.6,80.24a1.94,1.94,0,0,1,.95.65,1.81,1.81,0,0,1,.22.89,11.36,11.36,0,0,1-.68,4.36,1.26,1.26,0,0,1-.46.7A1.37,1.37,0,0,1,274,87c-15.25.5-30-5.49-43.43-12.67-1.7-.91-3.48-1.92-4.4-3.61a9,9,0,0,1-.79-4.49,79.81,79.81,0,0,1,2-14.4c.3-1.47,1.17-3.46,3-2.48,1.31.73,2.66,2.88,3.75,4q4.24,4.18,8.86,8A127.72,127.72,0,0,0,262.4,74.4,125.17,125.17,0,0,0,274.6,80.24Z" transform="translate(-56.39 -6.99)" fill="#4299e1"/><path d="M281.84,79.85c.54-.32,1.31-.65,1.68-.15s-.13,1.13-.6,1.51-1,1-.71,1.49a1.19,1.19,0,0,0,.7.47c3.27,1.11,6.85.28,10.29.54a1.93,1.93,0,0,1,.82.19,1.68,1.68,0,0,1,.69,1.5,4.75,4.75,0,0,1-1.89,3.54,10.25,10.25,0,0,1-3.74,1.73,10.93,10.93,0,0,1-10-1.59c-1.81-1.12-3.48-2.46-5.3-3.55a2.12,2.12,0,0,1-.92-.8,1.53,1.53,0,0,1-.13-.66,2.66,2.66,0,0,1,2.93-2.7A11.62,11.62,0,0,0,281.84,79.85Z" transform="translate(-56.39 -6.99)" fill="url(#linear-gradient-11)"/><path d="M251.91,30.61a13.78,13.78,0,0,1-.82,5.53A5.47,5.47,0,0,1,247,39.57a2.93,2.93,0,0,0-1.22.26,2.14,2.14,0,0,0-.66,1.88L245,45.24a2.63,2.63,0,0,1-.28,1.42,2.32,2.32,0,0,1-1.22.82,5.19,5.19,0,0,1-3.45.17,5.87,5.87,0,0,1-2.47-2,14.77,14.77,0,0,1-3.11-7.38c-.28-2.33-.08-4.9-1.52-6.74a9.4,9.4,0,0,1-1.5-1.92c-.32-.75,0-1.86.81-1.93s1.31.73,2.05.71a23.72,23.72,0,0,1-.47-5.24,8.13,8.13,0,0,1,1.77-4.87,8.31,8.31,0,0,1,6.08-2.53c2.83-.09,6.88,1,8.41,3.68C251.91,22.53,251.9,27.17,251.91,30.61Z" transform="translate(-56.39 -6.99)" fill="url(#linear-gradient-12)"/><path d="M251.66,21.36a10,10,0,0,0,.66-4.11c0-1.65,0-3.3,0-5a5.77,5.77,0,0,0-.49-2.74c-1-1.77-3.41-2.08-5.39-1.74a27.66,27.66,0,0,0-7.72,3,24.79,24.79,0,0,0-5.66,3.62,8.61,8.61,0,0,0-3,5.86,8.88,8.88,0,0,1-.09,1.79,11.82,11.82,0,0,1-1.17,2.26c-1.08,2.2-.19,4.89,1.23,6.88s3.35,3.6,4.7,5.64a1.58,1.58,0,0,0,.41-1.66,5.57,5.57,0,0,0-.89-1.57,8.93,8.93,0,0,1-1.72-3.8,2.47,2.47,0,0,1,.24-1.61,1.19,1.19,0,0,1,1.42-.53,2.2,2.2,0,0,1,.6.54,6.93,6.93,0,0,0,1.57,1.29.39.39,0,0,0,.29.08c.16,0,.21-.23.23-.39.21-2.21-1-4.43-.54-6.6a1.1,1.1,0,0,1,.29-.59,1.07,1.07,0,0,1,.57-.21c3-.41,6.26,2,9.11.68a8.07,8.07,0,0,0,2.36-2.19c.42-.49.88-1.4,1.54-1.14A11.09,11.09,0,0,1,251.66,21.36Z" transform="translate(-56.39 -6.99)" fill="#b7a451"/><path d="M377.37,170.55c-7.72,8.3-20.54,10.94-31.21,14.76-2.87-4.08-2.35-4.59-4.59-9,4.29-.34,7.81-3.42,10.87-6.45,9.94-9.82,18.72-20.74,27.73-31.41a38.47,38.47,0,0,1,5.49-5.63c5.24-4.11,12.16-5.29,18.8-5.83,4.91-.39,6,6.84,6.82,11.7,2.56,15.24,2.32,30.8,2.07,46.26a126.63,126.63,0,0,1-.73,13.77c-.32,2.53-1,5.38-3.28,6.59A8.38,8.38,0,0,1,406,206a140.25,140.25,0,0,1-28.82-.76c-1.55-.2-3.22-.49-4.26-1.64a5.28,5.28,0,0,1-1.18-2.94c-.56-4.35,1.34-8.58,2.48-12.81C375.65,182.45,378.41,176.06,377.37,170.55Z" transform="translate(-56.39 -6.99)" fill="#4299e1"/><path d="M409.18,202.71c-1.89,18.71-3.78,37.48-3.37,56.28.17,8.23.79,16.47.31,24.69-.12,2.14-.49,4.59-2.29,5.77s-4.1.57-6.07-.16a56.09,56.09,0,0,1-9-4.28,2,2,0,0,1-1-.94,1.6,1.6,0,0,1,.62-1.63c2-1.76,5.92-.87,7.14-3.27a4.79,4.79,0,0,0,.39-2,106,106,0,0,0-1.46-26.27c-.61-3-1.42-6.06-2.05-9.1-.75-3.57-1.24-7.19-1.74-10.8l-1.49-10.8q-6.63,13.59-14.54,26.52c-.1,15.38-1.75,31.86-2.06,47.23,0,1.48-.14,3.14-1.24,4.14a4.84,4.84,0,0,1-2.82,1c-5.64.6-12.21-2-13.74-7.49a2.4,2.4,0,0,1,0-1.77c1-1.8,3.95.14,5.74-.86,1-.58,1.28-1.94,1.39-3.12a156.61,156.61,0,0,0-1.45-40.91c-.72-4.3-1.63-8.63-1.36-13,.38-6.3,3.18-12.16,5.93-17.84l4.79-9.88a8.34,8.34,0,0,1,2.72-3.68,8,8,0,0,1,3.66-.94C385.86,198.8,399.81,200.4,409.18,202.71Z" transform="translate(-56.39 -6.99)" fill="#3e3e54"/><path d="M335.47,176c-2.21-.76-4.36-2-6.69-1.87a1.14,1.14,0,0,0,0,1.22c.18.39.48.72.66,1.11a.45.45,0,0,1,.05.37c-.08.15-.28.18-.45.19l-8.35.46A8.46,8.46,0,0,0,325,183.7a15.16,15.16,0,0,0,7.58,1.8,14.05,14.05,0,0,0,4.23-.5c2-.58,3.7-1.77,5.62-2.51a5.53,5.53,0,0,0,1.53-.73c1.62-1.26.89-4.14-.93-4.84a9.66,9.66,0,0,0-3-.13A15.12,15.12,0,0,1,335.47,176Z" transform="translate(-56.39 -6.99)" fill="url(#linear-gradient-13)"/><polygon points="214.22 5.83 226.72 0 315.06 50.56 302.55 56.39 214.22 5.83" fill="#4299e1" opacity="0.18" style="isolation:isolate"/><path d="M313.49,77.22l-24.06,22.9,25.35,18.26s26.06-23.8,24.9-24.18S313.49,77.22,313.49,77.22Z" transform="translate(-56.39 -6.99)" fill="#4299e1" opacity="0.57" style="isolation:isolate"/><polygon points="233.03 93.14 243.52 125.47 263.24 140.17 258.39 111.39 233.03 93.14" fill="#4299e1" opacity="0.82" style="isolation:isolate"/><polygon points="283.28 87.21 287.43 112.02 263.24 140.17 258.39 111.39 283.28 87.21" fill="#4299e1" opacity="0.39" style="isolation:isolate"/></svg>