<svg id="Layer_1" data-name="Layer 1" xmlns="http://www.w3.org/2000/svg" xmlns:xlink="http://www.w3.org/1999/xlink" viewBox="0 0 395.82 427.53"><defs><linearGradient id="linear-gradient" x1="159.79" y1="76.4" x2="168.68" y2="64.16" gradientUnits="userSpaceOnUse"><stop offset="0" stop-color="#fff" stop-opacity="0"/><stop offset="0.52" stop-color="#fff"/><stop offset="1" stop-color="#fff" stop-opacity="0.23"/></linearGradient><linearGradient id="linear-gradient-2" x1="207.15" y1="153.23" x2="214.08" y2="153.23" gradientUnits="userSpaceOnUse"><stop offset="0" stop-color="#010101" stop-opacity="0"/><stop offset="0.95" stop-color="#010101"/></linearGradient><linearGradient id="linear-gradient-3" x1="267.74" y1="122.03" x2="275.33" y2="122.03" xlink:href="#linear-gradient-2"/><linearGradient id="linear-gradient-4" x1="320.84" y1="152.45" x2="346.61" y2="152.45" xlink:href="#linear-gradient-2"/><linearGradient id="linear-gradient-5" x1="166.79" y1="139.85" x2="430.03" y2="139.85" gradientUnits="userSpaceOnUse"><stop offset="0" stop-color="#e5c6d6"/><stop offset="0.42" stop-color="#ead4d0"/><stop offset="1" stop-color="#f0e9cb"/></linearGradient><linearGradient id="linear-gradient-6" x1="353.74" y1="131.93" x2="354.91" y2="219.39" xlink:href="#linear-gradient-2"/><linearGradient id="linear-gradient-7" x1="261.13" y1="133.8" x2="257.05" y2="177.24" xlink:href="#linear-gradient-2"/><linearGradient id="linear-gradient-8" x1="255.32" y1="200.15" x2="307.47" y2="200.15" xlink:href="#linear-gradient-2"/><linearGradient id="linear-gradient-9" x1="258.23" y1="193.75" x2="266.37" y2="193.75" gradientUnits="userSpaceOnUse"><stop offset="0" stop-color="#fff" stop-opacity="0"/><stop offset="0.23" stop-color="#fff" stop-opacity="0.23"/><stop offset="0.95" stop-color="#fff"/></linearGradient><linearGradient id="linear-gradient-10" x1="254.77" y1="237.49" x2="282.25" y2="237.49" xlink:href="#linear-gradient-2"/><linearGradient id="linear-gradient-11" x1="326.92" y1="273.56" x2="324.08" y2="266.67" xlink:href="#linear-gradient-2"/><linearGradient id="linear-gradient-12" x1="291.75" y1="263.4" x2="289.79" y2="273.68" xlink:href="#linear-gradient-2"/><linearGradient id="linear-gradient-13" x1="225.26" y1="299.94" x2="337.59" y2="299.94" xlink:href="#linear-gradient-5"/><linearGradient id="linear-gradient-14" x1="278.16" y1="335.68" x2="315.74" y2="335.68" xlink:href="#linear-gradient-5"/><linearGradient id="linear-gradient-15" x1="199.47" y1="204.13" x2="209.39" y2="243.78" xlink:href="#linear-gradient-9"/><linearGradient id="linear-gradient-16" x1="181.41" y1="22.74" x2="206.49" y2="44.61" xlink:href="#linear-gradient"/><linearGradient id="linear-gradient-17" x1="292.33" y1="134.92" x2="298.52" y2="134.92" xlink:href="#linear-gradient-2"/><linearGradient id="linear-gradient-18" x1="282.13" y1="92.56" x2="286.2" y2="90.61" xlink:href="#linear-gradient-2"/><linearGradient id="linear-gradient-19" x1="279.05" y1="64.8" x2="302.21" y2="64.8" xlink:href="#linear-gradient-2"/><linearGradient id="linear-gradient-20" x1="319.82" y1="265.02" x2="269.09" y2="266.77" xlink:href="#linear-gradient-2"/><linearGradient id="linear-gradient-21" x1="278.18" y1="251.4" x2="234.67" y2="264.74" xlink:href="#linear-gradient-2"/><linearGradient id="linear-gradient-22" x1="247.33" y1="316.83" x2="157.67" y2="311.68" xlink:href="#linear-gradient-2"/><linearGradient id="linear-gradient-23" x1="308.07" y1="410.8" x2="301.65" y2="459.2" xlink:href="#linear-gradient-2"/><linearGradient id="linear-gradient-24" x1="150.18" y1="74.17" x2="172.9" y2="74.17" gradientTransform="translate(148.9 -103.14) rotate(61.26)" xlink:href="#linear-gradient-2"/><linearGradient id="linear-gradient-25" x1="178.11" y1="13.37" x2="181.8" y2="13.37" xlink:href="#linear-gradient-2"/><linearGradient id="linear-gradient-26" x1="187.52" y1="21.06" x2="223.82" y2="82.28" xlink:href="#linear-gradient-2"/></defs><title>winner 1</title><path d="M215.41,411.67c18.74,9,38.2,18.26,59,18.76,21.66.51,42.42-8.54,61.1-19.5,10.69-6.26,21.15-13.36,28.91-23,11.46-14.23,16.1-32.92,16.87-51.18s-2-36.44-3.76-54.63c-1.28-13.23-2-27.09,3.29-39.31s15.64-21.18,25.09-30.48c13.44-13.22,25.63-28.07,33.4-45.25s10.85-36.94,5.89-55.14c-8.7-32-39.23-52.5-68.6-67.82-16.85-8.79-34.66-17-53.65-17.86-14.47-.67-29.22,2.95-43.33-.35-11.94-2.79-22.18-10.25-33.35-15.31A87,87,0,0,0,132.45,51.1C113.11,90,123.65,141,96.83,175.1,89.16,184.87,79,192.39,70.9,201.83,44.55,232.67,47,284,76.18,312.15c19.33,18.68,47.42,27.21,64.29,48.14,5.32,6.6,9.39,14.3,15.76,19.91,8,7,18.93,6.24,27.59,12.15C194.28,399.47,203.89,406.12,215.41,411.67Z" transform="translate(-51.78 -2.91)" fill="#643518" opacity="0.24" style="isolation:isolate"/><path d="M159.91,63.78c-2.82.13-6.22-.43-8,1.79-1.34,1.7-.86,4.3.51,6a14.42,14.42,0,0,0,5.36,3.55,67,67,0,0,0,11.94,4.67,5.07,5.07,0,0,0,2.53.15,3.18,3.18,0,0,0,1.6-4.6c-.59-1-1.62-1.56-2.31-2.46a6.1,6.1,0,0,1-.83-4.94c.49-2.38,4.46-8.87.35-9.3-1.28-.13-3.37,2.32-4.43,2.94A14.16,14.16,0,0,1,159.91,63.78Z" transform="translate(-51.78 -2.91)" fill="#643518"/><path d="M159.91,63.78c-2.82.13-6.22-.43-8,1.79-1.34,1.7-.86,4.3.51,6a14.42,14.42,0,0,0,5.36,3.55,67,67,0,0,0,11.94,4.67,5.07,5.07,0,0,0,2.53.15,3.18,3.18,0,0,0,1.6-4.6c-.59-1-1.62-1.56-2.31-2.46a6.1,6.1,0,0,1-.83-4.94c.49-2.38,4.46-8.87.35-9.3-1.28-.13-3.37,2.32-4.43,2.94A14.16,14.16,0,0,1,159.91,63.78Z" transform="translate(-51.78 -2.91)" fill="url(#linear-gradient)"/><polygon points="210.21 146.93 207.15 159.53 214.08 150.72 210.21 146.93" fill="#643518"/><polygon points="210.21 146.93 207.15 159.53 214.08 150.72 210.21 146.93" opacity="0.26" fill="url(#linear-gradient-2)"/><path d="M274.67,115.44s-6.63-.22-6.92,6.12,7.58,7.07,7.58,7.07Z" transform="translate(-51.78 -2.91)" fill="#643518"/><path d="M274.67,115.44s-6.63-.22-6.92,6.12,7.58,7.07,7.58,7.07Z" transform="translate(-51.78 -2.91)" opacity="0.26" fill="url(#linear-gradient-3)"/><path d="M345.3,179.1c.23.46.48,1,1,1.13.69.21,1.19-.54,1.69-1.06,4.71-4.86,8.52-9.7-4.73-16.85-1.94-1-4.23-1.51-5.83-3a7,7,0,0,1-1.64-7,10.18,10.18,0,0,1,4.76-5.67c2.19-1.28,4.69-1.89,7-2.91s4.59-2.59,5.46-5,.18-5-1-7.11c-2.79-5.13-9.3-8.53-14.68-6.29,2.81.87,5.91,2,7.29,4.56s.51,5.91-1.27,8.26-4.31,4-6.67,5.74c-3.8,2.84-7.42,6.39-8.57,11C324.64,168.6,340.73,169.83,345.3,179.1Z" transform="translate(-51.78 -2.91)" fill="#643518"/><path d="M345.3,179.1c.23.46.48,1,1,1.13.69.21,1.19-.54,1.69-1.06,4.71-4.86,8.52-9.7-4.73-16.85-1.94-1-4.23-1.51-5.83-3a7,7,0,0,1-1.64-7,10.18,10.18,0,0,1,4.76-5.67c2.19-1.28,4.69-1.89,7-2.91s4.59-2.59,5.46-5,.18-5-1-7.11c-2.79-5.13-9.3-8.53-14.68-6.29,2.81.87,5.91,2,7.29,4.56s.51,5.91-1.27,8.26-4.31,4-6.67,5.74c-3.8,2.84-7.42,6.39-8.57,11C324.64,168.6,340.73,169.83,345.3,179.1Z" transform="translate(-51.78 -2.91)" opacity="0.26" fill="url(#linear-gradient-4)"/><path d="M429.78,125.74a5.1,5.1,0,0,1-2.95,2.55,19.25,19.25,0,0,1-10,1.58,36.47,36.47,0,0,0-4.44-.43,16.32,16.32,0,0,0-4.72,1.06,94.37,94.37,0,0,0-13.11,5.65c-5.84,3.07-11.37,6.74-17.27,9.72a80.7,80.7,0,0,1-34.55,8.51c-14.26.25-29.35,1.12-42.55,6.5-.59.24-1.18.49-1.74.74-.1,2.58-.07,5.13.06,7.67.06,1.28.12,2.55.25,3.79,1.33,15.5,6,30.66,9.16,46a14.42,14.42,0,0,1,.37,5.65c-1.11,5.38-7.64,7.43-13.07,8.23A180.19,180.19,0,0,1,276,234.78c-2.71.09-5.59.09-7.86-1.37-3.61-2.33-4.23-7.24-4.44-11.53-1.06-21.62,8.66-44.26,1.27-64.61L263.72,154a24.48,24.48,0,0,0-16.28-15c-6.09-1.83-12-5.28-18-7.74-5-2-10.25-3.41-14.63-6.49-6.18-4.41-9.66-11.59-13-18.42q-9.37-18.92-20.35-37a8.94,8.94,0,0,0-2.51-3c-1.22-.78-2.74-.9-4.17-1.3-5.77-1.65-9.19-8.61-7.61-14.42a12.17,12.17,0,0,1,1.53-3.41A5.84,5.84,0,0,1,170,45.69c2.33-1.77,5.69-.28,8,1.53,1.25-2,4.45-1.68,6.15-.07s2.33,4,3.14,6.22a74.63,74.63,0,0,0,6.18,12.11q10.35,17.38,20.69,34.76c1.74,3,3.57,6,6.28,8.05,3.17,2.45,7.27,3.35,11.21,4.1a250.77,250.77,0,0,0,29.17,3.79c3.63.28,7.42.52,10.5,2.42,3.69-.34,8.66.18,9.13-.93,1.93-4.54,4.78-9.2,4.19-14.07-.71-5.91-5.71-8.8-8.66-13.95-.9-1.56.77-5.81.18-7.49-1.24-3.45-.87-7.27.1-10.81a24.17,24.17,0,0,1,6.37-11.27,16,16,0,0,1,11.86-4.6c5.13.37,9.69,3.66,12.8,7.76,2.73,3.54,4.53,7.71,6.27,11.84A42.39,42.39,0,0,1,317,86.23c.5,3.88-.15,8-2.54,11.12-3.24,4.16-8.89,5.62-12.68,9.29-4.47,4.35-6.65,10.37-7.24,16.59-.15,1.77-.43,5,0,5.87a1.47,1.47,0,0,1-.15.31,47.65,47.65,0,0,0,4.47,2.76c13.48,7.18,29.51,6.87,44.76,6.37a57.69,57.69,0,0,0,11.16-1.09A63,63,0,0,0,366.38,133c14.82-6.58,30.23-11.83,45.6-17.08-.65-1.24,1.09-3,2.39-3.57a18.09,18.09,0,0,1,4.11-.66c2.45-.37,4.93-1.74,7.23-.84,2.67,1.06,3.39,4.45,3.7,7.3.19,1.56.34,3.11.53,4.7A6,6,0,0,1,429.78,125.74Z" transform="translate(-51.78 -2.91)" fill="url(#linear-gradient-5)"/><path d="M407.67,130.5a94.37,94.37,0,0,0-13.11,5.65c-5.84,3.07-11.37,6.74-17.27,9.72a80.7,80.7,0,0,1-34.55,8.51c-14.26.25-29.35,1.12-42.55,6.5l2.76-13.8s21.59,1.74,32.37,1.15,34.39-2,42.87-8.45S407.67,130.5,407.67,130.5Z" transform="translate(-51.78 -2.91)" opacity="0.26" fill="url(#linear-gradient-6)"/><path d="M261.33,137.42c3.51.61,7.35,1.46,10.44-.31a3,3,0,0,1,1.7-.64,2.23,2.23,0,0,1,1.39,1A14.08,14.08,0,0,1,269,159.16a3.14,3.14,0,0,1-2.18.26c-1.11-.39-1.51-1.7-1.85-2.82a27,27,0,0,0-8.39-12.68,28.26,28.26,0,0,0-6.48-4.15c-2.13-1-5.45-1.19-7.2-2.41,2-1.29,6.4-.84,8.83-.81A61.84,61.84,0,0,1,261.33,137.42Z" transform="translate(-51.78 -2.91)" opacity="0.26" fill="url(#linear-gradient-7)"/><path d="M312.86,230.12a6.48,6.48,0,0,1-2,2.67c-3.91,3.32-9.22,4.56-14.35,4.69s-10.22-.65-15.34-.9a67.78,67.78,0,0,0-23.67,3.13,3.69,3.69,0,0,1-2.74.16c-1.18-.62-1.27-2.27-1.21-3.6q1.86-31.28,3.73-62.47c.31-4.79.62-9.72,2.89-14,2-3.82,5.43-6.68,8-10.09,5.34-7,6.93-16,6.62-24.67a50.37,50.37,0,0,0-.87-7.52c-.37-1.8-2.52-1.33-2.52-1.55,0,0,3.26-.93,4.38-.56,3,.93,4.29,7.61,4.66,10.13.72,4.53.87,9.38,3.42,13.17a9.16,9.16,0,0,0,8.42,3.94,5.13,5.13,0,0,0,3.23-1.77c2.82-3.32-.19-7.45-1-11.68a8.36,8.36,0,0,1,0-3.82c4.69,1.15,7.43,6,7.83,10.84q3,35.08,6,70.11c.49,6.12,1.05,12.3,3.35,18C312.52,226.2,313.45,228.19,312.86,230.12Z" transform="translate(-51.78 -2.91)" fill="#643518"/><path d="M255.32,207.75s11.63-2.23,18.19-3.54c11.66-2.33,34-2.91,34-2.91l-.43-8.75L256,198.13Z" transform="translate(-51.78 -2.91)" opacity="0.26" fill="url(#linear-gradient-8)"/><path d="M263.09,158s-3.06,49.42-4.38,59a64.16,64.16,0,0,0,.44,18.59l3.06-3.5s-2.4-9-1.31-16.18,2.84-39.8,2.84-39.8l2.63-24.27S263.09,155.82,263.09,158Z" transform="translate(-51.78 -2.91)" fill="url(#linear-gradient-9)"/><path d="M254.77,239.87s1.32-7.67,8.61-7.31,18.87.59,18.87.59-19.16,9.76-21.35,9.25S256.59,242.66,254.77,239.87Z" transform="translate(-51.78 -2.91)" fill="#606161"/><path d="M254.77,239.87s1.32-7.67,8.61-7.31,18.87.59,18.87.59-19.16,9.76-21.35,9.25S256.59,242.66,254.77,239.87Z" transform="translate(-51.78 -2.91)" fill="url(#linear-gradient-10)"/><path d="M339.48,260.81c-.12,1.27-1.18,2.2-2.17,3a71.46,71.46,0,0,1-24.17,12.33,3.13,3.13,0,0,1-4.41-1.55,76,76,0,0,1-4.32-7.4c.4,3.08.81,6.15,1.24,9.26a3.76,3.76,0,0,1-.4,2.86,3.7,3.7,0,0,1-2.52,1,73.92,73.92,0,0,1-29.07-2.08A6.63,6.63,0,0,1,271,277l-.59-.78a8.46,8.46,0,0,1-.9-4.25,57.63,57.63,0,0,0-5-20.57c-1.84-4-8-11.12-5.38-15.78a7.18,7.18,0,0,1,3.54-2.85c3.57-1.59,8.64-1.9,11.4-1.84,10,.22,20,.47,30,.69a23,23,0,0,1,7,.87,21.34,21.34,0,0,1,6.09,3.76,126.14,126.14,0,0,1,20.93,21.4A4.87,4.87,0,0,1,339.48,260.81Z" transform="translate(-51.78 -2.91)" fill="#606161"/><path d="M336.13,260.54c.73-.06,1.73.19,1.73.92a1.36,1.36,0,0,1-.26.69c-2.57,4.2-7.27,6.5-11.73,8.58a63.38,63.38,0,0,1-12.1,4.69,2.2,2.2,0,0,1-2.07-.23c-.71-.72-.16-1.94.56-2.65a15.55,15.55,0,0,1,4.4-2.68q5.26-2.46,10.37-5.23C329.84,263.1,332.87,260.84,336.13,260.54Z" transform="translate(-51.78 -2.91)" fill="url(#linear-gradient-11)"/><path d="M278.16,274.05,272.82,276s2.29,2.84,9.07,3.39,23.29.54,23.51-.88-6.24-8.2-10.06-8.42S278.16,274.05,278.16,274.05Z" transform="translate(-51.78 -2.91)" fill="url(#linear-gradient-12)"/><path d="M337.36,299c-.31,2.89-2.63,12.83-13.13,12-16.54-1.38-33.18-.87-49.76-1.3-6.19-.16-12.74-.25-18.15,2.73-8.32,4.6-11.55,14.91-18.45,21.43-2.39,2.27-5.87,4.17-8.91,2.86-2.46-1.05-3.73-3.91-3.7-6.58s1.06-5.22,2.11-7.68c2.83-6.67,5.63-13.35,8.45-20a16.51,16.51,0,0,1,3.7-6.12c1.77-1.62,4.53-2.39,6.58-1.12s2.71,4.16,4.66,5.69c1.62,1.27,3.83,1.39,5.88,1.46,21,.49,42.32-3.83,63.22-5.94,2.66-17-3.55-21.28-1.84-27.21.18-.09.34-.15.52-.25,2.46-1.18,4.91-2.39,7.34-3.57,1.58-.78,3.19-1.71,4.84-2.48a1.28,1.28,0,0,1,.28.15C336.19,267.77,338.35,289.67,337.36,299Z" transform="translate(-51.78 -2.91)" fill="url(#linear-gradient-13)"/><path d="M302.26,401.91a201.81,201.81,0,0,0-24.1-127.86c2.4-6.42,13.65-7.08,19-2.76s7.31,11.42,8.93,18.07c5.61,23,10.25,46.4,9.62,70-.29,11.24-1.78,22.42-3.26,33.56-.37,2.8-.79,5.71-2.41,8S304.75,403.22,302.26,401.91Z" transform="translate(-51.78 -2.91)" fill="url(#linear-gradient-14)"/><path d="M324.85,418.7a5.41,5.41,0,0,1-1.77,4.35c-3.23,3.11-8.33,2.7-12.74,2.08-5.18-.74-10.34-1.46-15.53-2.17-2-.28-4.28-.78-5.22-2.58a5.14,5.14,0,0,1-.4-2.46,13.32,13.32,0,0,1,.62-3.1c.22-.75.47-1.49.72-2.24l6.7-18.85a8.62,8.62,0,0,1,1.68-3.2c2-2.12,5.47-1.65,8.36-1a11.8,11.8,0,0,1,4.19,1.49c3.05,2,1.46,4.26,1.4,7.12a14,14,0,0,0,2.92,8.1c2.45,3.45,5.81,6.22,8,9.82a7.31,7.31,0,0,1,1,2.36A.94.94,0,0,1,324.85,418.7Z" transform="translate(-51.78 -2.91)" fill="#643518"/><path d="M302.21,53.65a4.73,4.73,0,0,1-.75,3c-.84,1-2.52,1.27-3.14,2.48a5.28,5.28,0,0,1-.62,1.34,1.9,1.9,0,0,1-1.15.56c-3,.84-8.88.9-10.16,4.1-.56,1.37-.71,3-1.55,4.16-1.3,1.87-4.07,2.74-4.5,4.94a5.92,5.92,0,0,0,.18,2.21,5.09,5.09,0,0,1,.19,2.64,6.06,6.06,0,0,0-.4,1.27,3.17,3.17,0,0,0,.71,1.9l5.44,8c.06.72-1.43-.78-2-1.09s-.9-1.18-1.56-1.36c-5.84-1.46-3.57,8.32,3.33,7.36a3.75,3.75,0,0,0-1.9,3.07c0,1.09.22,2.52-.81,2.92a1.52,1.52,0,0,1-.87,0c-3.32-.8-3.26-6.55-6.58-7.36-.56-.12-1.12-.09-1.65-.18a5,5,0,0,1-3.63-3.11,11.27,11.27,0,0,1-.65-4.91,2.87,2.87,0,0,0-.16-1.37,3.35,3.35,0,0,0-1.55-1.21c-4.66-2.45-6.15-9.38-3-13.57.68-.9,1.55-1.65,2.23-2.55,1.8-2.3,2.55-5.22,3.85-7.83a5.75,5.75,0,0,1,2.64-2.85,15.92,15.92,0,0,1,2.74-.5c2.67-.53,4.59-2.77,6.52-4.69s4.38-3.82,7.05-3.39c1,.16,1.87.59,2.86.75,2.52.37,5.41-1.28,7.42.25,1.22.9,1.46,2.54,1.46,4.07A6.33,6.33,0,0,1,302.21,53.65Z" transform="translate(-51.78 -2.91)" fill="#e08142"/><path d="M189.58,221c13.11.55,24.69-7.72,36.77-12.85C251,197.68,279,200.21,305.79,200c10.25-.08,20.81-.66,30.06-5.06s17-13.5,16.79-23.75c0-1.94-2.38-5-5.95-7.07,2.06,4-3.33,16.18-10.26,19.55s-14.74,4.41-22.43,4.88c-28.72,1.76-57.75-3.94-86.21.33-8.65,1.3-17.57,3.74-23.9,9.78-6.52,6.23-19.09,4.94-28,3.42s-17.52-4.58-26.5-5.43-18.87.94-25,7.56c-2.48,2.68-4.18,6-6.43,8.84-6.14,7.85-16,12.07-25.9,13.42s-24.7,1.68-34.59.47c-5.34,9.66-7,25.67-4.67,36.44,10-.62,24.78-7.75,34.66-9.5,5.23-.92,10.48-2,15.26-4.33,12.9-6.21,20.62-20.29,33.49-26.56C152.62,215,171.41,222.52,189.58,221Z" transform="translate(-51.78 -2.91)" fill="#643518"/><path d="M189.58,221c13.11.55,24.69-7.72,36.77-12.85C251,197.68,279,200.21,305.79,200c10.25-.08,20.81-.66,30.06-5.06s17-13.5,16.79-23.75c0-1.94-2.38-5-5.95-7.07,2.06,4-3.33,16.18-10.26,19.55s-14.74,4.41-22.43,4.88c-28.72,1.76-57.75-3.94-86.21.33-8.65,1.3-17.57,3.74-23.9,9.78-6.52,6.23-19.09,4.94-28,3.42s-17.52-4.58-26.5-5.43-18.87.94-25,7.56c-2.48,2.68-4.18,6-6.43,8.84-6.14,7.85-16,12.07-25.9,13.42s-24.7,1.68-34.59.47c-5.34,9.66-7,25.67-4.67,36.44,10-.62,24.78-7.75,34.66-9.5,5.23-.92,10.48-2,15.26-4.33,12.9-6.21,20.62-20.29,33.49-26.56C152.62,215,171.41,222.52,189.58,221Z" transform="translate(-51.78 -2.91)" fill="url(#linear-gradient-15)"/><path d="M319.4,119.62c-3.08-1.44-6.53-2.76-9.78-1.8a2.07,2.07,0,0,0-1.19.74,2.48,2.48,0,0,0-.25,1.35l.13,7.23A74,74,0,0,0,334,130.4a20.81,20.81,0,0,1,6.11.22,5.92,5.92,0,0,1,4.42,3.83c1-2.3,0-5.07-1.78-6.81-3-2.91-6-2.44-9.72-2.89C328.24,124.15,323.75,121.65,319.4,119.62Z" transform="translate(-51.78 -2.91)" fill="#643518"/><path d="M216.25,34.08a6.17,6.17,0,0,0-4.53-3.27,14.85,14.85,0,0,0-3.05-.34c.59-1,1.15-2.08,1.65-3.14a5.84,5.84,0,0,0,.65-2.14,5.89,5.89,0,0,0-1.61-3.51,52.61,52.61,0,0,0-19.7-14.91,1.88,1.88,0,0,0-1-.25,2,2,0,0,0-1.18.65,37.4,37.4,0,0,0-4.2,4.6,8,8,0,0,0-.31-.9,7.83,7.83,0,0,0-2.14-3.54,5.54,5.54,0,0,0-4.26-1.18,6.46,6.46,0,0,0-4.41,2.7,8.52,8.52,0,0,0-.5,8.14A21,21,0,0,0,173,19.57c.25.46.53.93.78,1.43a5,5,0,0,1,.65,2.92,1.38,1.38,0,0,1-1.15,1.18l-3.63-1.93a3.88,3.88,0,0,0,.18,3.85,4.38,4.38,0,0,0,3.67,2.12h.09a4.48,4.48,0,0,0,2.49-.81c-1,5.37-1,11.06.87,15.84,3.07,8,15.87,2.49,20.72-.9l.18-.12a3.56,3.56,0,0,0,0,.8,5.23,5.23,0,0,0,5,4.51l0-4.1a1,1,0,0,1-.21-2,4.89,4.89,0,0,1,1.95.28,9.61,9.61,0,0,0,1.87.4,10,10,0,0,0,6-1.27C215.35,40.29,217.59,37.15,216.25,34.08Zm-37.37-15c-.28.62-.52,1.24-.77,1.9a12.5,12.5,0,0,0-.72-1.8c-.28-.56-.59-1.09-.9-1.65s-.77-1.37-1.09-2.08a4.86,4.86,0,0,1,.1-4.29,2.33,2.33,0,0,1,1.55-.93,1.57,1.57,0,0,1,1.06.25,4.77,4.77,0,0,1,1,1.8,40.56,40.56,0,0,1,1.24,4A30.51,30.51,0,0,0,178.88,19.07Zm31.66,19.11A6.37,6.37,0,0,1,207,39c-.44-.06-.87-.18-1.34-.28a11.19,11.19,0,0,0-2.42-.46,35.29,35.29,0,0,0,2.54-3.2,9,9,0,0,1,5-.25,2.52,2.52,0,0,1,1.7.9C212.74,36.31,211.78,37.52,210.54,38.18Z" transform="translate(-51.78 -2.91)" fill="#643518"/><path d="M216.25,34.08a6.17,6.17,0,0,0-4.53-3.27,14.85,14.85,0,0,0-3.05-.34c.59-1,1.15-2.08,1.65-3.14a5.84,5.84,0,0,0,.65-2.14,5.89,5.89,0,0,0-1.61-3.51,52.61,52.61,0,0,0-19.7-14.91,1.88,1.88,0,0,0-1-.25,2,2,0,0,0-1.18.65,37.4,37.4,0,0,0-4.2,4.6,8,8,0,0,0-.31-.9,7.83,7.83,0,0,0-2.14-3.54,5.54,5.54,0,0,0-4.26-1.18,6.46,6.46,0,0,0-4.41,2.7,8.52,8.52,0,0,0-.5,8.14A21,21,0,0,0,173,19.57c.25.46.53.93.78,1.43a5,5,0,0,1,.65,2.92,1.38,1.38,0,0,1-1.15,1.18l-3.63-1.93a3.88,3.88,0,0,0,.18,3.85,4.38,4.38,0,0,0,3.67,2.12h.09a4.48,4.48,0,0,0,2.49-.81c-1,5.37-1,11.06.87,15.84,3.07,8,15.87,2.49,20.72-.9l.18-.12a3.56,3.56,0,0,0,0,.8,5.23,5.23,0,0,0,5,4.51l0-4.1a1,1,0,0,1-.21-2,4.89,4.89,0,0,1,1.95.28,9.61,9.61,0,0,0,1.87.4,10,10,0,0,0,6-1.27C215.35,40.29,217.59,37.15,216.25,34.08Zm-37.37-15c-.28.62-.52,1.24-.77,1.9a12.5,12.5,0,0,0-.72-1.8c-.28-.56-.59-1.09-.9-1.65s-.77-1.37-1.09-2.08a4.86,4.86,0,0,1,.1-4.29,2.33,2.33,0,0,1,1.55-.93,1.57,1.57,0,0,1,1.06.25,4.77,4.77,0,0,1,1,1.8,40.56,40.56,0,0,1,1.24,4A30.51,30.51,0,0,0,178.88,19.07Zm31.66,19.11A6.37,6.37,0,0,1,207,39c-.44-.06-.87-.18-1.34-.28a11.19,11.19,0,0,0-2.42-.46,35.29,35.29,0,0,0,2.54-3.2,9,9,0,0,1,5-.25,2.52,2.52,0,0,1,1.7.9C212.74,36.31,211.78,37.52,210.54,38.18Z" transform="translate(-51.78 -2.91)" fill="url(#linear-gradient-16)"/><path d="M298.51,136.37c.15,3.48-1.68,6.71-6.18,6.33a5.13,5.13,0,0,0,3.23-1.77c2.82-3.32-.19-7.45-1-11.68l0-.15.53-2S298.35,132.86,298.51,136.37Z" transform="translate(-51.78 -2.91)" opacity="0.26" fill="url(#linear-gradient-17)"/><path d="M284.57,92.54a3.71,3.71,0,0,1-.6-1.15,3.32,3.32,0,0,0-.84-1.32,1.34,1.34,0,0,0-1.47-.22,1.23,1.23,0,0,0-.57,1,2.27,2.27,0,0,0,.23,1.14,4.1,4.1,0,0,0,2,2,2.25,2.25,0,0,0,1.56.22c.34-.1,1-.58.82-1S284.85,92.84,284.57,92.54Z" transform="translate(-51.78 -2.91)" opacity="0.26" fill="url(#linear-gradient-18)"/><path d="M302.21,53.65a4.73,4.73,0,0,1-.75,3c-.84,1-2.52,1.27-3.14,2.48a5.28,5.28,0,0,1-.62,1.34,1.9,1.9,0,0,1-1.15.56c-3,.84-8.88.9-10.16,4.1-.56,1.37-.71,3-1.55,4.16-1.3,1.87-4.07,2.74-4.5,4.94a5.92,5.92,0,0,0,.18,2.21,1.56,1.56,0,0,0-.34.34,7.43,7.43,0,0,1,.31-8.33c.56-.74,1.28-1.39,1.87-2.11,1.24-1.55,1.92-3.48,3-5.16S288,57.93,290,57.87a7.15,7.15,0,0,1,4,1.52,4.79,4.79,0,0,1,3.05-3.45c.78-.28,1.65-.34,2.39-.65,1.12-.43,1.83-2.17,2.73-2.51A6.33,6.33,0,0,1,302.21,53.65Z" transform="translate(-51.78 -2.91)" opacity="0.26" fill="url(#linear-gradient-19)"/><path d="M298.51,169.29c.06,1.28.12,2.55.25,3.79l-1.06.22Z" transform="translate(-51.78 -2.91)" fill="#643518"/><path d="M334.88,261.15c-.34.59-1.3.53-1.89.71a15.49,15.49,0,0,0-2.27,1c-1.65.77-3.26,1.7-4.84,2.48-2.43,1.18-4.88,2.39-7.34,3.57-.18.1-.34.16-.52.25-1,.53-2.08,1.06-3.14,1.55-.65.32-3.14,1.06-3.42,1.68,1.34-2.82,2.64-5.65,4-8.48a8.64,8.64,0,0,1,2-3.07,8.12,8.12,0,0,1,3.75-1.59,33.61,33.61,0,0,1,9-.59,12.46,12.46,0,0,1,3.7.72C334.57,259.63,335.35,260.31,334.88,261.15Z" transform="translate(-51.78 -2.91)" fill="none"/><path d="M304.4,267.16l-.28-12.51,9.48,13.55s-4.69,3.88-3.15,8.06Z" transform="translate(-51.78 -2.91)" fill="url(#linear-gradient-20)"/><path d="M279.72,271.49,278.16,274,271,277l-.59-.78a8.46,8.46,0,0,1-.9-4.25,57.63,57.63,0,0,0-5-20.57c-1.84-4-8-11.12-5.38-15.78a7.18,7.18,0,0,1,3.54-2.85c1.65,2.23,7.12,10,8.05,14.44,1.09,5.25,5,16.62,5,16.62Z" transform="translate(-51.78 -2.91)" fill="url(#linear-gradient-21)"/><path d="M258.9,313.74a3.09,3.09,0,0,1-1.86,2.42c-.93.53-2,.81-2.89,1.4-1.46,1-2.27,2.58-3.14,4.1a46.25,46.25,0,0,1-15.37,16,14.5,14.5,0,0,1-5.22,2.33,6.5,6.5,0,0,1-2,0,5.1,5.1,0,0,1-3.26-1.49c-1.93-2-1.68-5.16-1.18-7.86,1.83-9.54,5.4-18.64,8.94-27.68a27.69,27.69,0,0,1,3.36-6.62,10.16,10.16,0,0,1,5.84-3.88,7.63,7.63,0,0,1,1.43-.15,6.75,6.75,0,0,1,5.15,2.14,38.26,38.26,0,0,1,2.12,3.23c1.27,1.68,3.91,2.08,4.9,3.76,1.31,2.2-1.55,4.25-1.21,6.46C254.9,310.41,259,311.22,258.9,313.74Z" transform="translate(-51.78 -2.91)" fill="#643518"/><path d="M243.53,292.34c-.07.18-.19.43-.31.68-1.28,2.33-2.83,4.32-3.89,6.83-1.83,4.32-3.63,8.7-5.37,13.08-2.92,7.33-5.75,15.13-4.72,23,.15,1.27.4,2.73-.44,3.72a2.59,2.59,0,0,1-.4.41,5.1,5.1,0,0,1-3.26-1.49c-1.93-2-1.68-5.16-1.18-7.86,1.83-9.54,5.4-18.64,8.94-27.68a27.69,27.69,0,0,1,3.36-6.62,10.16,10.16,0,0,1,5.84-3.88A7.63,7.63,0,0,1,243.53,292.34Z" transform="translate(-51.78 -2.91)" fill="url(#linear-gradient-22)"/><path d="M324.85,418.7a5.41,5.41,0,0,1-1.77,4.35c-3.23,3.11-8.33,2.7-12.74,2.08-5.18-.74-10.34-1.46-15.53-2.17-2-.28-4.28-.78-5.22-2.58a5.14,5.14,0,0,1-.4-2.46,13.32,13.32,0,0,1,.62-3.1l.16-.13s6.36,3.08,18.6,3.73a130.85,130.85,0,0,0,16.22,0A.94.94,0,0,1,324.85,418.7Z" transform="translate(-51.78 -2.91)" fill="url(#linear-gradient-23)"/><ellipse cx="161.62" cy="73.51" rx="3.69" ry="12.85" transform="translate(-32.32 176.96) rotate(-61.26)" fill="#643518"/><ellipse cx="161.54" cy="74.17" rx="3.07" ry="12.85" transform="translate(-32.95 177.23) rotate(-61.26)" opacity="0.26" fill="url(#linear-gradient-24)"/><path d="M178.11,10.47a5.16,5.16,0,0,1,3.64,2.86s.48,2.25-1.44,3Z" transform="translate(-51.78 -2.91)" opacity="0.26" fill="url(#linear-gradient-25)"/><path d="M209.36,21.68s-18.07,26.56-27.54,26a17.3,17.3,0,0,0,12.68-2.19,34.91,34.91,0,0,0,13-12.68,39.47,39.47,0,0,0,3.49-7.6Z" transform="translate(-51.78 -2.91)" opacity="0.26" fill="url(#linear-gradient-26)"/><g opacity="0.24" style="isolation:isolate"><path d="M358.64,67.19a19.2,19.2,0,0,1-3.37,7,13.06,13.06,0,0,0,2,2.06.82.82,0,0,0,1.28,0l7.66-5.93a1.07,1.07,0,0,0,.39-.43c.15-.44-.29-.83-.68-1.08a11.38,11.38,0,0,0-4.37-2,3.88,3.88,0,0,0-4.09,1.89" transform="translate(-51.78 -2.91)" fill="#643518"/><path d="M368.22,92a28.76,28.76,0,0,0-8.43-3.9,5.14,5.14,0,0,0-4,.1c-1.76,1-1.77,3.77-.56,5.42s3.2,2.5,5.09,3.27a3.91,3.91,0,0,0,3,.37A3.81,3.81,0,0,0,364.74,96l3.58-4.57" transform="translate(-51.78 -2.91)" fill="#643518"/><path d="M368.1,79.82a.56.56,0,0,0-.36.23.58.58,0,0,0,0,.39l.49,1.89a.47.47,0,0,0,.13.24.37.37,0,0,0,.23,0l5.41-.2c.28,0,.47-2.24.43-2.5-.15-.92-.09-.87-1-1C371.83,78.64,369.62,79.35,368.1,79.82Z" transform="translate(-51.78 -2.91)" fill="#643518"/><path d="M349.46,65.53a11.52,11.52,0,0,0-3.34,1.06,1.53,1.53,0,0,0-.75.62,1.06,1.06,0,0,0,.53,1.33,2.2,2.2,0,0,0,1.56.06,2.71,2.71,0,0,0,1.77-1.25,1.48,1.48,0,0,0-.49-1.95" transform="translate(-51.78 -2.91)" fill="#643518"/><path d="M357,61.07a5.44,5.44,0,0,0-3.47-1.71.9.9,0,0,0-.49,0,.7.7,0,0,0-.24.92,1.86,1.86,0,0,0,.75.72,2.78,2.78,0,0,0,1.8.62c.65-.09,1.22-.84.88-1.4" transform="translate(-51.78 -2.91)" fill="#643518"/><path d="M369.34,60.71l-4.12,0c-.5,0-1.12.09-1.29.57s.32,1,.82,1a4,4,0,0,0,1.48-.22,4.5,4.5,0,0,1,2.41.16,1.39,1.39,0,0,0,1,.13c.59-.24.42-1.13.14-1.71" transform="translate(-51.78 -2.91)" fill="#643518"/><path d="M374.2,109.76,372,111.35a5.36,5.36,0,0,0-1.85,1.91,1.83,1.83,0,0,0,.58,2.37c1,.53,2.24-.47,2.76-1.51s.86-2.31,1.87-2.91c.38-.23.87-.36,1.11-.75a1.2,1.2,0,0,0-.55-1.57,3.51,3.51,0,0,0-1.82-.29" transform="translate(-51.78 -2.91)" fill="#643518"/><path d="M335.88,107.39c-.69-.4-1.63-.79-2.21-.23s.08,1.91,1,2.15,1.95,0,2.9.13a3.61,3.61,0,0,0-.5-2.91" transform="translate(-51.78 -2.91)" fill="#643518"/><path d="M248.79,83.54a65,65,0,0,1-5.07-10.7l-4,4.48a1.5,1.5,0,0,0-.08,2.43l3.5,4.35c.94,1.18,2,2.44,3.52,2.64S249.78,85.29,249,84" transform="translate(-51.78 -2.91)" fill="#643518"/><path d="M251.62,42.38l-7,6.06c.18,1.83,2.89,1.81,4.59,1.12a6.75,6.75,0,0,0,3.65-2.71c.72-1.36.19-3.45-1.32-3.77" transform="translate(-51.78 -2.91)" fill="#643518"/><path d="M214.3,58.16c.35,1.73-.2,3.55.08,5.3S216.47,67,218,66.15a3.33,3.33,0,0,0,1.38-2.62,14.09,14.09,0,0,0-.92-7.23" transform="translate(-51.78 -2.91)" fill="#643518"/><path d="M172.53,125.93a36.54,36.54,0,0,1-10.71,8.64c-.79.41-1.69.93-1.83,1.81a2.83,2.83,0,0,0,.93,2.1l3.29,3.92a1.73,1.73,0,0,0,2.87.31c2.31-1.58,4.59-3.21,6.81-4.91a8.66,8.66,0,0,0,2.62-2.67c1.1-2,.42-4.7-1-6.52a18,18,0,0,0-5.6-4.14" transform="translate(-51.78 -2.91)" fill="#643518"/><path d="M186.34,143.28c.51,1.44.08,3-.28,4.49s-.65,3.13.09,4.47,2.91,1.87,3.75.6c.74-2.77,1.46-5.79.3-8.41s-5.1-4-6.93-1.84" transform="translate(-51.78 -2.91)" fill="#643518"/><path d="M373.67,191.7c.16,3.12.53,6.54,2.8,8.68s7,1.5,7.41-1.6a6.49,6.49,0,0,0-1.07-3.73L375.39,181A10.88,10.88,0,0,0,372,193" transform="translate(-51.78 -2.91)" fill="#643518"/><path d="M395.85,164.86c-.54,2.71.11,6.53,2.87,6.69,3,.17,3.67-4.73,1.33-6.55s-5.67-1.37-8.58-.82" transform="translate(-51.78 -2.91)" fill="#643518"/><path d="M412,147.41a22.84,22.84,0,0,0-10.52,1.29c-.11,4.28,5.41,7.52,9.1,5.34l.26-6.68" transform="translate(-51.78 -2.91)" fill="#643518"/><path d="M160,271.05a27.86,27.86,0,0,0-20.83-9.4,14.46,14.46,0,0,0-1,9.16,40.22,40.22,0,0,1,14.35,6.73l5.41-8.81" transform="translate(-51.78 -2.91)" fill="#643518"/><path d="M196.34,247.26a41,41,0,0,0-13.93-.53,5.41,5.41,0,0,0,1.15,5.88A7.66,7.66,0,0,0,193,249.9a8.51,8.51,0,0,0-.78-9.94" transform="translate(-51.78 -2.91)" fill="#643518"/><path d="M148.6,179.89a109,109,0,0,0-18.51-18.49,31.58,31.58,0,0,0-1.26,14.76q8.83,4.53,17.77,8.87" transform="translate(-51.78 -2.91)" fill="#643518"/><path d="M395.33,95.72a6.52,6.52,0,0,0-1.08-2.38,2,2,0,0,0-3.67,1.35,6.55,6.55,0,0,0,.76,2.6,2.53,2.53,0,0,0-2.77,1.79,2.43,2.43,0,0,0,1.62,2.84,2.34,2.34,0,0,0,2.8-1.64,1.6,1.6,0,0,0,1.76,2.09,1.84,1.84,0,0,0,1-2.71,1.58,1.58,0,1,0,1.38-2.3,1.73,1.73,0,1,0-1.77-1.89" transform="translate(-51.78 -2.91)" fill="#643518"/><path d="M156.05,163.68a7.11,7.11,0,0,1,1.87-5.69c.57-.6,1.47-1.12,2.2-.72a1.93,1.93,0,0,1,.7.82,6.7,6.7,0,0,1,.39,5.23,8.28,8.28,0,0,1,3.58-.66,2.85,2.85,0,0,1,2.6,2.2,2.81,2.81,0,0,1-2.22,2.79,7.29,7.29,0,0,1-3.83-.33c1.63.71,1.55,3.17.5,4.61a3.07,3.07,0,0,1-1.59,1.23,2.81,2.81,0,0,1-3-1.46,8.46,8.46,0,0,1-.86-3.41,2.64,2.64,0,0,1-3.43,1.32,4.06,4.06,0,0,1-2.26-3.23,2.91,2.91,0,0,1,.43-2.2c1-1.27,3-.89,4.48-.38" transform="translate(-51.78 -2.91)" fill="#643518"/><path d="M144.92,108.51a8.36,8.36,0,0,0-.58-4,2.87,2.87,0,0,0-3.3-1.64,4.1,4.1,0,0,0-2,2.14,6.72,6.72,0,0,0-1.12,3.53c.09,1.25,1.17,2.51,2.41,2.31a10.82,10.82,0,0,0-3.47,6.92,1.87,1.87,0,0,0,.38,1.57,1.71,1.71,0,0,0,1.5.23,5.73,5.73,0,0,0,4.36-6c.44,1.45,1.34,3.23,2.84,3a2.52,2.52,0,0,0,1.81-1.58,5.37,5.37,0,0,0-2.39-6.82" transform="translate(-51.78 -2.91)" fill="#643518"/></g></svg>